<svg width="406" height="306" viewBox="0 0 406 306" fill="none" xmlns="http://www.w3.org/2000/svg">
<path opacity="0.3" d="M97.2878 124.306C69.2129 129.29 49.3696 153.741 52.6278 180.567C54.3634 194.777 61.3974 207.394 79.4948 211.017C127.504 220.67 308.733 257.007 344.339 194.047C372.099 144.982 355.554 111.009 329.773 89.7452C303.992 68.481 250.603 72.8962 206.421 87.4513C173.565 98.3017 149.134 115.09 97.2878 124.306Z" fill="#E6E6E6"/>
<path opacity="0.45" d="M208.684 261.524C298.947 261.524 372.119 256.116 372.119 249.445C372.119 242.774 298.947 237.367 208.684 237.367C118.421 237.367 45.2487 242.774 45.2487 249.445C45.2487 256.116 118.421 261.524 208.684 261.524Z" fill="#E6E6E6"/>
<path d="M117.05 81.7468C127.779 81.7468 136.477 73.049 136.477 62.3197C136.477 51.5904 127.779 42.8926 117.05 42.8926C106.32 42.8926 97.6227 51.5904 97.6227 62.3197C97.6227 73.049 106.32 81.7468 117.05 81.7468Z" fill="#FFD200"/>
<path opacity="0.15" d="M117.05 99.3574C137.505 99.3574 154.087 82.7752 154.087 62.3201C154.087 41.8649 137.505 25.2827 117.05 25.2827C96.5946 25.2827 80.0125 41.8649 80.0125 62.3201C80.0125 82.7752 96.5946 99.3574 117.05 99.3574Z" fill="#FFD200"/>
<path d="M198.625 248.887C227.31 248.887 250.563 225.634 250.563 196.949C250.563 168.265 227.31 145.012 198.625 145.012C169.941 145.012 146.688 168.265 146.688 196.949C146.688 225.634 169.941 248.887 198.625 248.887Z" fill="#24285B"/>
<path d="M198.625 229.643C216.681 229.643 231.318 215.005 231.318 196.95C231.318 178.894 216.681 164.256 198.625 164.256C180.569 164.256 165.932 178.894 165.932 196.95C165.932 215.005 180.569 229.643 198.625 229.643Z" fill="white"/>
<path d="M135.919 209.343C139.36 209.343 140.598 210.581 140.598 214.012V219.929C140.598 223.37 139.583 224.608 135.919 224.608H126.428V242.625C126.428 246.055 125.19 247.294 121.749 247.294H115.01C111.579 247.294 110.341 246.055 110.341 242.625V224.608H64.96C61.5293 224.608 60.291 223.37 60.291 219.929V214.976C60.1987 212.971 60.7695 210.991 61.915 209.343L107.59 152.675C108.355 151.648 109.351 150.814 110.496 150.241C111.642 149.668 112.906 149.372 114.188 149.377H121.8C125.241 149.377 126.479 150.341 126.479 154.056V209.343H135.919ZM110.341 172.478L80.4895 209.343H110.341V172.478Z" fill="#68E1FD"/>
<path d="M332.331 209.343C335.772 209.343 337.01 210.581 337.01 214.012V219.929C337.01 223.37 336.046 224.608 332.331 224.608H322.841V242.625C322.841 246.055 321.603 247.294 318.162 247.294H311.422C307.992 247.294 306.753 246.055 306.753 242.625V224.608H261.363C257.932 224.608 256.694 223.37 256.694 219.929V214.976C256.607 212.968 257.185 210.989 258.338 209.343L304.013 152.675C304.778 151.648 305.773 150.814 306.919 150.241C308.065 149.668 309.329 149.372 310.61 149.377H318.172C321.613 149.377 322.851 150.341 322.851 154.056V209.343H332.331ZM306.753 172.478L276.902 209.343H306.753V172.478Z" fill="#68E1FD"/>
<path opacity="0.58" d="M311.96 138.313C311.96 138.313 303.323 135.958 301.445 127.909C301.445 127.909 314.833 125.209 315.218 139.023L311.96 138.313Z" fill="#68E1FD"/>
<path opacity="0.73" d="M313.026 137.46C313.026 137.46 306.987 127.909 312.295 118.987C312.295 118.987 322.445 125.453 317.959 137.481L313.026 137.46Z" fill="#68E1FD"/>
<path d="M314.579 137.47C314.579 137.47 317.766 127.381 327.419 125.473C327.419 125.473 329.225 132.02 321.166 137.491L314.579 137.47Z" fill="#68E1FD"/>
<path d="M308.316 137.237L310.062 149.224L321.095 149.275L322.719 137.298L308.316 137.237Z" fill="#24285B"/>
<path d="M191.835 156.461L204.512 156.055C204.512 156.055 224.427 152.675 231.339 168.915C238.251 185.155 229.39 208.104 229.39 208.104C229.39 208.104 222.184 232.332 191.835 229.653C191.835 229.653 166.592 228.191 163.74 193.59C163.611 192.081 163.38 190.582 163.05 189.104C161.893 183.694 161.223 167.281 191.835 156.461Z" fill="#68E1FD"/>
<path opacity="0.08" d="M174.854 178.02C174.854 178.02 181.614 178.76 191.003 194.483C200.391 210.205 218.824 204.44 229.217 192.808L209.932 218.325L188.333 216.59L176.59 185.328L174.854 178.02Z" fill="black"/>
<path d="M248.88 141.629L245.167 142.125L246.611 152.931L250.323 152.435L248.88 141.629Z" fill="#FFD200"/>
<path opacity="0.08" d="M248.88 141.629L245.167 142.125L246.611 152.931L250.323 152.435L248.88 141.629Z" fill="black"/>
<path d="M250.966 149.296L245.262 150.058L247.116 163.932L252.82 163.17L250.966 149.296Z" fill="#24285B"/>
<path d="M243.6 119.271C241.193 119.594 238.935 120.623 237.112 122.228C235.29 123.834 233.984 125.944 233.361 128.291C232.737 130.639 232.824 133.119 233.61 135.417C234.395 137.715 235.845 139.729 237.775 141.203C239.705 142.678 242.029 143.547 244.453 143.701C246.877 143.855 249.292 143.286 251.393 142.068C253.494 140.849 255.187 139.035 256.256 136.854C257.326 134.674 257.726 132.225 257.404 129.817C257.19 128.218 256.664 126.677 255.854 125.282C255.045 123.886 253.968 122.664 252.687 121.685C251.405 120.705 249.942 119.988 248.383 119.574C246.824 119.16 245.199 119.057 243.6 119.271ZM246.381 140.038C244.679 140.268 242.948 139.988 241.405 139.234C239.863 138.479 238.579 137.284 237.716 135.799C236.853 134.315 236.45 132.607 236.557 130.894C236.665 129.18 237.279 127.537 238.321 126.172C239.363 124.807 240.787 123.782 242.412 123.226C244.036 122.671 245.79 122.61 247.449 123.052C249.109 123.493 250.6 124.417 251.734 125.706C252.868 126.995 253.595 128.592 253.821 130.294C254.122 132.566 253.513 134.865 252.127 136.69C250.741 138.514 248.691 139.718 246.422 140.038H246.381Z" fill="#FFD200"/>
<path d="M245.295 140.201C250.11 140.201 254.014 136.297 254.014 131.482C254.014 126.667 250.11 122.763 245.295 122.763C240.48 122.763 236.576 126.667 236.576 131.482C236.576 136.297 240.48 140.201 245.295 140.201Z" fill="white"/>
<path d="M163.415 179.725C163.724 178.534 164.377 177.46 165.291 176.636C166.206 175.813 167.343 175.277 168.56 175.096C169.778 174.914 171.021 175.094 172.137 175.614C173.252 176.134 174.19 176.971 174.834 178.02C179.678 185.862 183.757 194.152 187.014 202.776C194.271 222.121 229.857 209.363 242.991 164.256L250.482 168.915C250.482 168.915 240.149 227.501 198.554 229.653C198.554 229.653 172.591 234.91 164.704 203.05C164.704 203.05 162.674 197.051 162.552 193.661L162.004 189.845C161.92 186.455 162.372 183.074 163.344 179.826L163.415 179.725Z" fill="#68E1FD"/>
<path opacity="0.39" d="M163.415 179.725C163.724 178.534 164.377 177.46 165.291 176.636C166.206 175.813 167.343 175.277 168.56 175.096C169.778 174.914 171.021 175.094 172.137 175.614C173.252 176.134 174.19 176.971 174.834 178.02C179.678 185.862 183.757 194.152 187.014 202.776C194.271 222.121 229.857 209.363 242.991 164.256L250.482 168.915C250.482 168.915 240.149 227.501 198.554 229.653C198.554 229.653 172.591 234.911 164.704 203.05C164.704 203.05 162.674 197.051 162.552 193.661L162.004 189.845C161.92 186.455 162.372 183.074 163.344 179.826L163.415 179.725Z" fill="white"/>
<path d="M244.889 165.393C244.889 165.393 245.65 155.74 249.629 155.761C253.608 155.781 262.956 162.927 248.523 167.646L244.889 165.393Z" fill="#E7B606"/>
<path d="M348.642 91.694C348.642 89.8742 347.919 88.129 346.633 86.8422C345.346 85.5555 343.601 84.8326 341.781 84.8326C341.41 84.8323 341.04 84.8629 340.675 84.9239C339.887 83.4546 338.716 82.2259 337.286 81.3682C335.857 80.5104 334.222 80.0556 332.555 80.0519H332.22C332.622 78.4334 332.651 76.7444 332.303 75.1131C331.956 73.4818 331.242 71.9511 330.214 70.6371C329.187 69.323 327.874 68.2602 326.375 67.5293C324.876 66.7983 323.23 66.4185 321.562 66.4185C319.894 66.4185 318.248 66.7983 316.749 67.5293C315.25 68.2602 313.937 69.323 312.91 70.6371C311.883 71.9511 311.168 73.4818 310.821 75.1131C310.473 76.7444 310.502 78.4334 310.905 80.0519H310.57C309.329 80.0108 308.093 80.2197 306.934 80.6661C305.776 81.1126 304.719 81.7875 303.827 82.6506C302.935 83.5138 302.225 84.5476 301.741 85.6905C301.256 86.8335 301.006 88.0622 301.006 89.3036C301.006 90.5451 301.256 91.7738 301.741 92.9167C302.225 94.0597 302.935 95.0935 303.827 95.9567C304.719 96.8198 305.776 97.4947 306.934 97.9411C308.093 98.3876 309.329 98.5965 310.57 98.5554H342.674V98.4945C344.324 98.2757 345.838 97.4658 346.935 96.2151C348.033 94.9644 348.64 93.358 348.642 91.694Z" fill="#E6E6E6"/>
<path d="M81.9105 159.608C81.9105 158.834 81.7583 158.069 81.4624 157.355C81.1666 156.64 80.7329 155.991 80.1863 155.445C79.6396 154.898 78.9906 154.464 78.2764 154.169C77.5621 153.873 76.7966 153.721 76.0235 153.721C75.7074 153.727 75.3921 153.754 75.0796 153.802C74.4002 152.539 73.391 151.484 72.1595 150.749C70.928 150.015 69.5202 149.628 68.0862 149.63H67.802C68.1512 148.241 68.179 146.79 67.8832 145.389C67.5874 143.987 66.9758 142.671 66.095 141.542C65.2142 140.412 64.0874 139.498 62.8002 138.87C61.513 138.241 60.0995 137.915 58.667 137.915C57.2346 137.915 55.821 138.241 54.5338 138.87C53.2467 139.498 52.1198 140.412 51.239 141.542C50.3582 142.671 49.7466 143.987 49.4508 145.389C49.155 146.79 49.1828 148.241 49.532 149.63H49.2478C48.1823 149.592 47.12 149.769 46.1243 150.15C45.1287 150.532 44.2201 151.11 43.4528 151.85C42.6855 152.591 42.0752 153.478 41.6584 154.459C41.2416 155.441 41.0267 156.496 41.0267 157.562C41.0267 158.629 41.2416 159.684 41.6584 160.665C42.0752 161.647 42.6855 162.534 43.4528 163.274C44.2201 164.015 45.1287 164.593 46.1243 164.974C47.12 165.356 48.1823 165.533 49.2478 165.495H76.7848V165.444C78.2011 165.257 79.5015 164.562 80.4443 163.489C81.387 162.415 81.908 161.036 81.9105 159.608Z" fill="#E6E6E6"/>
<path d="M191.888 119.471C191.699 118.197 191.353 116.746 191.471 115.464C191.517 114.957 191.608 114.709 191.988 114.388C192.406 114.402 192.681 114.517 193.017 114.785C193.302 115.011 193.315 115.317 193.354 115.652C193.442 116.854 193.606 118.036 193.779 119.227L191.888 119.471Z" fill="#25285B"/>
<path d="M184.857 142.078C184.229 142.101 183.448 142.199 182.882 141.873C182.345 141.563 182.169 141.249 181.998 140.669C181.622 139.391 180.587 132.78 181.124 131.915C181.618 131.12 182.546 131.001 183.386 130.855C183.846 134.594 184.468 138.334 184.857 142.078Z" fill="#25285B"/>
<path d="M204.812 127.777C205.588 127.7 206.302 127.602 206.948 128.148C207.322 128.465 207.641 128.896 207.952 129.275C208.262 131.231 209.564 136.284 208.465 137.921C208.142 138.402 207.712 138.621 207.153 138.705C206.863 138.747 206.573 138.781 206.281 138.809C205.721 135.147 205.3 131.451 204.812 127.777Z" fill="#25285B"/>
<path d="M191.157 147.324C194.965 147.699 198.572 145.827 202.351 146.117L202.695 148.154C203.037 150.575 203.798 154.252 203.395 156.384C202.143 158.453 195.717 159.259 193.835 158.445C193.32 158.222 193.05 157.971 192.694 157.036C191.978 155.158 191.766 152.17 191.503 150.029L191.157 147.324Z" fill="#E7B606"/>
<path d="M193.779 119.228C193.606 118.036 193.442 116.854 193.354 115.652L193.837 119.203C196.727 119.216 200.6 119.113 202.784 121.341C204.456 123.047 204.524 125.544 204.813 127.778C205.3 131.452 205.721 135.148 206.282 138.81C206.493 140.334 207.469 143.812 206.54 145.084C205.741 146.178 203.713 146.493 202.436 146.744C198.713 146.874 195.007 148.014 191.262 148.106C189.803 148.189 187.474 148.558 186.266 147.571C185.021 146.555 185.037 143.617 184.857 142.079C184.468 138.335 183.846 134.595 183.387 130.856C183.454 128.189 182.276 126.271 183.959 123.744C185.634 121.227 189.07 120.051 191.888 119.471L193.779 119.228Z" fill="#FFD200"/>
<path d="M183.647 131.632C183.523 130.491 183.332 129.6 183.22 128.458C183.073 126.897 183.009 125.608 183.647 124.395C185.604 120.668 190.871 118.889 194.615 120.84C194.615 120.84 196.894 121.749 198.105 124.796C199.086 127.266 198.733 130.445 198.996 131.054C198.498 132.212 198.148 133.46 198.364 134.966C198.486 135.819 198.742 136.585 199.084 137.301C198.828 138.177 198.634 139.084 198.342 139.933C197.368 142.766 195.72 144.825 193.925 146.343C193.384 146.8 192.673 146.982 192.24 147.679C192.224 147.705 192.208 147.73 192.191 147.756C192.155 147.764 192.119 147.773 192.083 147.78C191.439 147.905 190.768 147.939 190.117 148.014C188.809 148.166 187.364 148.577 186.184 147.118C184.885 145.511 184.907 142.366 184.662 140.116C184.256 136.811 184.082 134.931 183.647 131.632Z" fill="#FFE56E"/>
<path d="M186.811 132.295C189.488 131.812 192.24 131.543 194.937 131.182C197.088 130.894 199.324 130.454 201.491 130.368C202.348 130.334 203.161 130.396 203.806 131.031C204.533 131.748 204.77 132.878 204.752 133.87C204.726 135.289 204.109 136.214 203.142 137.16C201.312 137.758 190.354 139.226 188.432 139.165C187.53 139.136 186.768 138.789 186.162 138.107C185.454 137.31 185.168 136.136 185.237 135.083C185.317 133.848 185.91 133.066 186.811 132.295Z" fill="#25285B"/>
<path d="M197.718 132.792C199.325 132.523 200.958 132.349 202.574 132.135C202.71 133.079 202.836 134.024 202.951 134.971C201.427 135.41 199.663 135.495 198.084 135.695L197.718 132.792Z" fill="#FFD200"/>
<path d="M187.514 134.103C189.039 133.884 190.572 133.703 192.1 133.506C192.221 134.302 192.616 135.765 192.294 136.474L187.569 137.106C187.442 136.197 187.232 135.229 187.277 134.312L187.514 134.103Z" fill="#FFD200"/>
<path d="M189.055 132.422C189.81 132.269 190.444 132.21 191.171 132.514C191.933 132.834 192.512 133.473 192.806 134.236C192.824 134.284 192.842 134.332 192.858 134.381C192.874 134.43 192.889 134.479 192.903 134.529C192.917 134.578 192.93 134.628 192.941 134.678C192.952 134.728 192.962 134.779 192.971 134.829C192.98 134.88 192.988 134.931 192.994 134.982C193 135.033 193.005 135.084 193.009 135.135C193.013 135.186 193.015 135.238 193.017 135.289C193.018 135.34 193.018 135.392 193.016 135.443C193.015 135.494 193.012 135.546 193.009 135.597C193.005 135.648 193 135.699 192.993 135.75C192.987 135.801 192.979 135.852 192.97 135.903C192.961 135.954 192.951 136.004 192.94 136.054C192.928 136.104 192.915 136.154 192.901 136.204C192.887 136.253 192.872 136.302 192.856 136.351C192.84 136.4 192.822 136.448 192.803 136.496C192.784 136.544 192.765 136.591 192.743 136.638C192.349 137.5 191.679 137.978 190.816 138.312C190.15 138.446 189.523 138.448 188.875 138.22C188.111 137.952 187.448 137.389 187.109 136.652C187.088 136.605 187.068 136.558 187.05 136.511C187.031 136.463 187.014 136.415 186.997 136.367C186.981 136.318 186.966 136.269 186.952 136.22C186.939 136.171 186.926 136.122 186.915 136.072C186.904 136.022 186.894 135.972 186.885 135.922C186.877 135.871 186.869 135.821 186.863 135.77C186.857 135.719 186.852 135.669 186.849 135.618C186.845 135.567 186.843 135.516 186.842 135.465C186.841 135.414 186.841 135.363 186.843 135.312C186.844 135.261 186.847 135.21 186.852 135.159C186.856 135.108 186.861 135.057 186.868 135.006C186.875 134.956 186.883 134.905 186.892 134.855C186.902 134.805 186.912 134.755 186.924 134.705C186.936 134.656 186.949 134.606 186.963 134.557C186.978 134.508 186.993 134.459 187.01 134.411C187.027 134.363 187.045 134.315 187.064 134.268C187.444 133.322 188.148 132.818 189.055 132.422Z" fill="#1AAEE0"/>
<path d="M198.191 131.868C198.916 131.208 199.738 130.755 200.749 130.805C200.8 130.808 200.85 130.812 200.901 130.817C200.951 130.823 201.001 130.83 201.051 130.838C201.101 130.846 201.151 130.855 201.201 130.865C201.25 130.876 201.3 130.887 201.349 130.9C201.398 130.913 201.446 130.927 201.495 130.942C201.543 130.958 201.591 130.974 201.638 130.992C201.686 131.009 201.733 131.028 201.779 131.048C201.826 131.068 201.872 131.089 201.917 131.112C201.963 131.134 202.008 131.157 202.052 131.182C202.096 131.206 202.14 131.232 202.183 131.259C202.226 131.285 202.268 131.313 202.31 131.342C202.351 131.371 202.392 131.401 202.432 131.431C202.472 131.462 202.512 131.494 202.55 131.527C202.589 131.559 202.626 131.593 202.663 131.628C202.7 131.663 202.736 131.698 202.771 131.734C202.806 131.771 202.84 131.808 202.873 131.846C202.908 131.886 202.943 131.927 202.976 131.968C203.009 132.01 203.041 132.052 203.073 132.096C203.104 132.139 203.134 132.183 203.163 132.227C203.192 132.272 203.22 132.317 203.247 132.363C203.273 132.409 203.299 132.456 203.323 132.503C203.348 132.551 203.371 132.599 203.393 132.647C203.415 132.695 203.435 132.744 203.455 132.794C203.474 132.843 203.493 132.893 203.51 132.944C203.527 132.994 203.543 133.045 203.557 133.096C203.571 133.147 203.585 133.199 203.596 133.251C203.608 133.303 203.619 133.355 203.628 133.407C203.637 133.46 203.645 133.512 203.652 133.565C203.659 133.618 203.664 133.671 203.668 133.724C203.672 133.777 203.675 133.83 203.676 133.883C203.677 133.936 203.677 133.989 203.676 134.042C203.674 134.096 203.672 134.149 203.668 134.202C203.612 134.966 203.273 135.697 202.686 136.2C202.045 136.749 201.141 137.016 200.303 136.951C199.5 136.889 198.782 136.517 198.205 135.972C197.861 135.527 197.607 135.043 197.492 134.49C197.288 133.516 197.663 132.668 198.191 131.868Z" fill="#1AAEE0"/>
<path d="M200.22 132.255C200.526 132.24 200.81 132.253 201.099 132.362C201.554 132.535 201.936 132.865 202.13 133.314C202.151 133.363 202.17 133.412 202.186 133.463C202.202 133.513 202.216 133.564 202.226 133.616C202.237 133.668 202.245 133.72 202.251 133.773C202.256 133.826 202.259 133.878 202.259 133.931C202.259 133.984 202.256 134.037 202.25 134.09C202.245 134.143 202.237 134.195 202.226 134.247C202.215 134.299 202.201 134.35 202.185 134.4C202.169 134.451 202.15 134.5 202.128 134.549C201.891 135.081 201.446 135.329 200.924 135.519C200.593 135.548 200.279 135.565 199.959 135.452C199.904 135.432 199.85 135.41 199.797 135.386C199.744 135.361 199.692 135.333 199.642 135.303C199.592 135.272 199.544 135.239 199.498 135.204C199.451 135.168 199.407 135.131 199.365 135.091C199.322 135.05 199.282 135.008 199.244 134.964C199.206 134.919 199.171 134.873 199.138 134.825C199.105 134.777 199.075 134.727 199.047 134.676C199.02 134.624 198.995 134.572 198.973 134.518C198.953 134.467 198.936 134.416 198.921 134.365C198.907 134.313 198.895 134.26 198.885 134.207C198.876 134.154 198.869 134.101 198.865 134.047C198.86 133.993 198.859 133.939 198.86 133.885C198.861 133.831 198.865 133.778 198.871 133.724C198.878 133.67 198.887 133.617 198.898 133.565C198.91 133.512 198.924 133.46 198.941 133.409C198.958 133.357 198.977 133.307 198.999 133.257C199.243 132.709 199.679 132.447 200.22 132.255Z" fill="white"/>
<path d="M189.329 133.763C189.746 133.691 190.132 133.65 190.543 133.798C191.145 134.016 191.409 134.5 191.665 135.038C191.644 135.242 191.617 135.447 191.57 135.647C191.429 136.255 191.089 136.58 190.581 136.897C190.282 136.965 189.969 137.017 189.664 136.969C189.605 136.959 189.547 136.947 189.489 136.931C189.432 136.916 189.376 136.898 189.32 136.876C189.265 136.855 189.21 136.831 189.157 136.804C189.104 136.777 189.053 136.747 189.003 136.715C188.953 136.683 188.905 136.648 188.859 136.611C188.813 136.573 188.769 136.534 188.727 136.492C188.685 136.45 188.645 136.406 188.608 136.36C188.571 136.314 188.536 136.266 188.503 136.216C188.475 136.172 188.449 136.126 188.425 136.079C188.401 136.032 188.379 135.984 188.36 135.934C188.341 135.885 188.324 135.835 188.31 135.784C188.295 135.733 188.284 135.682 188.275 135.63C188.266 135.578 188.259 135.525 188.256 135.472C188.252 135.42 188.251 135.367 188.252 135.314C188.254 135.261 188.258 135.208 188.264 135.156C188.271 135.104 188.28 135.052 188.292 135C188.43 134.397 188.824 134.064 189.329 133.763Z" fill="white"/>
</svg>
