<svg width="406" height="306" viewBox="0 0 406 306" fill="none" xmlns="http://www.w3.org/2000/svg">
<path opacity="0.45" d="M210.663 272.232C302.978 272.232 377.813 267.061 377.813 260.682C377.813 254.302 302.978 249.131 210.663 249.131C118.349 249.131 43.5131 254.302 43.5131 260.682C43.5131 267.061 118.349 272.232 210.663 272.232Z" fill="#E6E6E6"/>
<path d="M113.558 183.369L104.545 212.113C103.331 215.99 101.33 219.574 98.6664 222.641C96.0029 225.708 92.7345 228.192 89.0662 229.937L75.8712 236.22L76.399 240.117L96.1509 235.854C100.784 234.483 105.081 232.16 108.766 229.036C112.452 225.911 115.446 222.052 117.557 217.706L131.503 188.992L113.558 183.369Z" fill="#F4A28C"/>
<path opacity="0.19" d="M304.723 249.09C304.723 249.09 295.659 246.613 293.69 238.179C293.69 238.179 307.728 235.347 308.134 249.841L304.723 249.09Z" fill="#68E1FD"/>
<path opacity="0.51" d="M305.84 248.197C305.84 248.197 299.506 238.189 305.078 228.831C305.078 228.831 315.756 235.611 311.006 248.217L305.84 248.197Z" fill="#68E1FD"/>
<path d="M307.464 248.197C307.464 248.197 310.813 237.631 320.923 235.631C320.923 235.631 322.821 242.493 314.376 248.228L307.464 248.197Z" fill="#68E1FD"/>
<path d="M300.897 247.963L302.734 260.529L314.305 260.58L316.01 248.024L300.897 247.963Z" fill="#24285B"/>
<path d="M285.215 95.1655H185.674V260.742H285.215V95.1655Z" fill="#24285B"/>
<path d="M276.648 30.3218L178.427 46.4766L184.637 84.2348L282.858 68.08L276.648 30.3218Z" fill="#24285B"/>
<path d="M255.731 23.3679L197.108 32.8423L198.877 43.7851L257.5 34.3107L255.731 23.3679Z" fill="#68E1FD"/>
<path opacity="0.07" d="M267.392 144.484H203.315C198.107 144.484 193.885 148.706 193.885 153.914V161.536C193.885 166.744 198.107 170.966 203.315 170.966H267.392C272.599 170.966 276.821 166.744 276.821 161.536V153.914C276.821 148.706 272.599 144.484 267.392 144.484Z" fill="white"/>
<path d="M261.697 164.845C265.61 164.845 268.782 161.673 268.782 157.76C268.782 153.848 265.61 150.676 261.697 150.676C257.785 150.676 254.613 153.848 254.613 157.76C254.613 161.673 257.785 164.845 261.697 164.845Z" fill="#68E1FD"/>
<path d="M244.128 154.391H202.381V161.12H244.128V154.391Z" fill="white"/>
<path opacity="0.07" d="M267.392 105.914H203.315C198.107 105.914 193.885 110.136 193.885 115.343V122.966C193.885 128.174 198.107 132.395 203.315 132.395H267.392C272.599 132.395 276.821 128.174 276.821 122.966V115.343C276.821 110.136 272.599 105.914 267.392 105.914Z" fill="white"/>
<path d="M261.697 126.275C265.61 126.275 268.782 123.103 268.782 119.19C268.782 115.277 265.61 112.105 261.697 112.105C257.785 112.105 254.613 115.277 254.613 119.19C254.613 123.103 257.785 126.275 261.697 126.275Z" fill="#68E1FD"/>
<path d="M244.128 115.82H202.381V122.55H244.128V115.82Z" fill="white"/>
<path opacity="0.07" d="M260.765 39.7781L197.329 50.0304C192.174 50.8636 188.67 55.7185 189.503 60.8741L190.722 68.4205C191.556 73.5762 196.411 77.0801 201.566 76.2469L265.002 65.9946C270.158 65.1614 273.662 60.3065 272.829 55.1508L271.609 47.6044C270.776 42.4488 265.921 38.9448 260.765 39.7781Z" fill="white"/>
<path d="M256.551 60.1479C260.464 60.1479 263.636 56.976 263.636 53.0632C263.636 49.1504 260.464 45.9785 256.551 45.9785C252.639 45.9785 249.467 49.1504 249.467 53.0632C249.467 56.976 252.639 60.1479 256.551 60.1479Z" fill="#68E1FD"/>
<path d="M238.663 52.5822L197.469 59.3574L198.561 65.9977L239.755 59.2224L238.663 52.5822Z" fill="white"/>
<path opacity="0.07" d="M267.392 184.729H203.315C198.107 184.729 193.885 188.951 193.885 194.158V201.781C193.885 206.989 198.107 211.21 203.315 211.21H267.392C272.599 211.21 276.821 206.989 276.821 201.781V194.158C276.821 188.951 272.599 184.729 267.392 184.729Z" fill="white"/>
<path d="M261.697 205.09C265.61 205.09 268.782 201.918 268.782 198.005C268.782 194.092 265.61 190.92 261.697 190.92C257.785 190.92 254.613 194.092 254.613 198.005C254.613 201.918 257.785 205.09 261.697 205.09Z" fill="#68E1FD"/>
<path d="M244.128 194.635H202.381V201.365H244.128V194.635Z" fill="white"/>
<path opacity="0.07" d="M267.392 224.974H203.315C198.107 224.974 193.885 229.195 193.885 234.403V242.026C193.885 247.233 198.107 251.455 203.315 251.455H267.392C272.599 251.455 276.821 247.233 276.821 242.026V234.403C276.821 229.195 272.599 224.974 267.392 224.974Z" fill="white"/>
<path d="M261.697 245.334C265.61 245.334 268.782 242.163 268.782 238.25C268.782 234.337 265.61 231.165 261.697 231.165C257.785 231.165 254.613 234.337 254.613 238.25C254.613 242.163 257.785 245.334 261.697 245.334Z" fill="#68E1FD"/>
<path d="M244.128 234.88H202.381V241.609H244.128V234.88Z" fill="white"/>
<path d="M143.338 191.479L147.561 253.038L143.633 254.398L128.002 196.807L143.338 191.479Z" fill="#F4A28C"/>
<path d="M148.363 254.094C148.363 254.094 149.215 257.738 151.966 258.875C154.716 260.011 153.326 263.95 149.185 261.564C147.897 260.815 146.675 259.96 145.531 259.007C144.455 258.164 143.178 257.619 141.826 257.423C141.574 257.378 141.341 257.256 141.16 257.075C140.978 256.893 140.857 256.661 140.811 256.408C140.253 254.378 144.82 252.49 144.82 252.49L148.363 254.094Z" fill="#68E1FD"/>
<path d="M76.3889 240.117C76.3889 240.117 73.6078 242.249 73.689 245.03C73.7702 247.811 69.8523 248.146 70.3294 243.69C70.4727 242.318 70.7307 240.96 71.1008 239.63C71.4123 238.391 71.3878 237.091 71.0297 235.865C70.9798 235.625 71.0034 235.375 71.0976 235.149C71.1918 234.922 71.3521 234.73 71.5575 234.596C73.0699 233.358 76.4498 236.524 76.4498 236.524L76.3889 240.117Z" fill="#68E1FD"/>
<path d="M65.3911 132.254L86.8107 159.7L106.198 144.569L84.7789 117.123L65.3911 132.254Z" fill="#FFD200"/>
<path d="M94.7604 120.814C94.7604 120.814 74.095 153.132 78.2261 157.892C91.3602 172.996 120.521 138.973 120.521 138.973L94.7604 120.814Z" fill="#F4A28C"/>
<path d="M141.511 115.993C135.581 111.662 128.458 109.267 121.115 109.134C113.773 109.002 106.568 111.138 100.485 115.252C95.075 118.936 90.9034 124.387 92.8116 132.405C97.2877 151.081 111.599 163.393 112.097 179.826L145.977 177.553V156.4C145.969 154.399 146.374 152.419 147.169 150.583C147.964 148.747 149.131 147.095 150.596 145.732C153.549 143.012 156.483 138.577 154.473 132.476C152.646 127.067 148.028 120.774 141.511 115.993Z" fill="#68E1FD"/>
<path opacity="0.08" d="M124.743 124.793C124.743 124.793 117.425 138.79 125.921 152.432C134.416 166.073 118.308 179.41 118.308 179.41L145.937 177.553V165.495C145.937 165.495 144.231 150.27 149.499 146.809C149.499 146.809 158.513 140.313 153.661 130.477C148.809 120.642 124.743 124.793 124.743 124.793Z" fill="black"/>
<path d="M111.655 85.4439C111.487 84.6029 111.207 83.6486 111.243 82.7917C111.257 82.453 111.309 82.2847 111.551 82.0581C111.829 82.0532 112.016 82.1209 112.249 82.2878C112.446 82.4286 112.465 82.6321 112.503 82.8533C112.602 83.6502 112.75 84.4313 112.906 85.2185L111.655 85.4439Z" fill="#25285B"/>
<path d="M112.107 104.009C114.654 104.131 116.992 102.764 119.518 102.83L119.815 104.174C120.124 105.773 120.754 108.195 120.558 109.628C119.794 111.047 115.544 111.8 114.264 111.322C113.914 111.191 113.726 111.033 113.457 110.422C112.917 109.196 112.676 107.215 112.429 105.798L112.107 104.009Z" fill="#E7B606"/>
<path d="M112.906 85.2198C112.751 84.4325 112.602 83.6512 112.503 82.8541L112.944 85.2014C114.868 85.1125 117.443 84.9137 118.971 86.3236C120.142 87.4026 120.271 89.0623 120.538 90.5396C120.987 92.9685 121.391 95.4144 121.888 97.8334C122.079 98.8408 122.846 101.123 122.271 102.001C121.776 102.756 120.437 103.034 119.595 103.244C117.121 103.456 114.693 104.34 112.203 104.527C111.235 104.631 109.697 104.955 108.86 104.339C107.997 103.705 107.909 101.749 107.737 100.731C107.352 98.252 106.812 95.7832 106.38 93.3102C106.335 91.5322 105.487 90.2957 106.522 88.5569C107.552 86.8249 109.799 85.9265 111.655 85.4453L112.906 85.2198Z" fill="#FFD200"/>
<path d="M106.579 93.8175C106.459 93.0624 106.301 92.4756 106.189 91.7192C106.038 90.6851 105.952 89.8296 106.336 89.0005C107.513 86.454 110.959 85.0925 113.517 86.265C113.517 86.265 115.064 86.7933 115.973 88.7805C116.709 90.3918 116.581 92.5196 116.777 92.9161C116.484 93.7033 116.294 94.5458 116.488 95.541C116.598 96.1052 116.794 96.6064 117.046 97.0715C116.905 97.6629 116.806 98.2732 116.64 98.8484C116.088 100.766 115.06 102.193 113.916 103.263C113.571 103.586 113.104 103.731 112.84 104.21C112.83 104.228 112.82 104.245 112.81 104.263C112.786 104.269 112.763 104.276 112.739 104.282C112.314 104.387 111.869 104.432 111.438 104.504C110.573 104.65 109.624 104.972 108.79 104.04C107.871 103.014 107.78 100.92 107.541 99.431C107.159 97.2448 106.981 95.9991 106.579 93.8175Z" fill="#FFE56E"/>
<path d="M110.833 93.5997C112.452 93.2151 114.126 92.971 115.763 92.6672C117.069 92.4249 118.42 92.0791 119.744 91.9705C120.267 91.9276 120.768 91.9495 121.188 92.3563C121.663 92.8152 121.854 93.5603 121.884 94.2193C121.926 95.1625 121.586 95.792 121.032 96.4433C119.936 96.8844 113.285 98.1195 112.106 98.1248C111.552 98.1272 111.071 97.9149 110.673 97.4761C110.206 96.9632 109.983 96.1905 109.982 95.4892C109.981 94.6669 110.313 94.1332 110.833 93.5997Z" fill="#25285B"/>
<path d="M109.267 100.608C108.534 100.703 107.62 100.869 106.971 100.719C106.356 100.577 106.16 100.386 105.981 100.015C105.586 99.1958 104.599 94.8439 105.254 94.1897C105.857 93.5874 106.943 93.389 107.928 93.1842C108.338 95.6611 108.939 98.1187 109.267 100.608Z" fill="#25285B"/>
<path d="M112.424 93.6349C112.922 93.5077 113.342 93.4467 113.836 93.625C114.354 93.8119 114.76 94.2179 114.982 94.7159C114.996 94.7472 115.009 94.7787 115.021 94.8106C115.034 94.8426 115.046 94.8748 115.056 94.9072C115.067 94.9397 115.077 94.9724 115.087 95.0054C115.096 95.0384 115.104 95.0715 115.112 95.1049C115.119 95.1383 115.126 95.1719 115.132 95.2056C115.138 95.2393 115.143 95.2732 115.147 95.3072C115.152 95.3412 115.155 95.3752 115.157 95.4094C115.16 95.4435 115.162 95.4777 115.163 95.5119C115.163 95.5462 115.163 95.5804 115.163 95.6147C115.162 95.6489 115.16 95.6831 115.157 95.7173C115.155 95.7514 115.151 95.7855 115.147 95.8195C115.143 95.8535 115.138 95.8874 115.132 95.9211C115.126 95.9549 115.119 95.9885 115.112 96.0219C115.104 96.0553 115.096 96.0885 115.086 96.1215C115.077 96.1545 115.067 96.1873 115.056 96.2198C115.045 96.2524 115.034 96.2846 115.021 96.3165C114.788 96.9033 114.358 97.2441 113.795 97.4952C113.356 97.6068 112.939 97.6293 112.5 97.4997C111.983 97.3468 111.522 96.9941 111.272 96.5152C111.257 96.4849 111.242 96.4542 111.228 96.4232C111.214 96.3923 111.201 96.3609 111.188 96.3292C111.176 96.2975 111.164 96.2655 111.153 96.2333C111.143 96.201 111.133 96.1685 111.124 96.1357C111.114 96.103 111.106 96.07 111.099 96.0368C111.091 96.0036 111.084 95.9703 111.079 95.9367C111.073 95.9032 111.068 95.8696 111.064 95.8358C111.06 95.802 111.057 95.7681 111.054 95.7342C111.052 95.7003 111.05 95.6663 111.05 95.6323C111.049 95.5983 111.049 95.5642 111.05 95.5302C111.052 95.4962 111.053 95.4623 111.056 95.4283C111.059 95.3944 111.063 95.3606 111.067 95.3269C111.072 95.2932 111.077 95.2595 111.083 95.226C111.09 95.1926 111.097 95.1593 111.105 95.1262C111.113 95.093 111.121 95.0601 111.131 95.0275C111.141 94.9948 111.151 94.9623 111.162 94.9302C111.383 94.2884 111.835 93.9289 112.424 93.6349Z" fill="#1AAEE0"/>
<path d="M117.445 93.1089C117.905 92.6454 118.438 92.316 119.112 92.3153C119.146 92.3155 119.179 92.3166 119.213 92.3185C119.247 92.3205 119.28 92.3232 119.314 92.3269C119.348 92.3304 119.381 92.3348 119.414 92.3401C119.448 92.3454 119.481 92.3515 119.514 92.3584C119.547 92.3653 119.58 92.373 119.613 92.3816C119.645 92.3901 119.678 92.3995 119.71 92.4096C119.742 92.4198 119.774 92.4307 119.806 92.4425C119.837 92.4542 119.869 92.4668 119.9 92.48C119.931 92.4933 119.961 92.5074 119.992 92.5222C120.022 92.5371 120.052 92.5526 120.081 92.569C120.111 92.5853 120.14 92.6023 120.168 92.62C120.197 92.6378 120.225 92.6563 120.253 92.6754C120.281 92.6946 120.308 92.7144 120.335 92.735C120.361 92.7555 120.388 92.7766 120.413 92.7985C120.439 92.8203 120.464 92.8427 120.488 92.8658C120.513 92.8889 120.537 92.9125 120.56 92.9368C120.585 92.9621 120.609 92.988 120.633 93.0146C120.656 93.0411 120.679 93.0682 120.702 93.096C120.724 93.1236 120.745 93.1518 120.766 93.1806C120.787 93.2093 120.807 93.2385 120.826 93.2683C120.846 93.298 120.864 93.3282 120.882 93.3589C120.9 93.3895 120.917 93.4206 120.933 93.4521C120.949 93.4836 120.965 93.5156 120.979 93.5479C120.994 93.5801 121.008 93.6127 121.021 93.6457C121.034 93.6787 121.046 93.712 121.058 93.7455C121.069 93.7791 121.079 93.813 121.089 93.8471C121.099 93.8812 121.107 93.9155 121.115 93.9501C121.123 93.9846 121.13 94.0193 121.137 94.0542C121.143 94.0892 121.148 94.1242 121.152 94.1593C121.157 94.1945 121.16 94.2298 121.163 94.2651C121.166 94.3004 121.168 94.3358 121.168 94.3712C121.169 94.4067 121.169 94.4422 121.168 94.4776C121.157 94.9877 120.956 95.486 120.582 95.8405C120.174 96.227 119.582 96.4351 119.022 96.4204C118.486 96.4063 117.995 96.1826 117.593 95.8392C117.349 95.5549 117.164 95.2413 117.068 94.8775C116.9 94.2361 117.121 93.6591 117.445 93.1089Z" fill="#1AAEE0"/>
<path d="M118.809 93.2986C119.012 93.2781 119.201 93.2769 119.397 93.3402C119.706 93.4398 119.971 93.6465 120.115 93.9389C120.131 93.9705 120.145 94.0028 120.158 94.0358C120.17 94.0688 120.181 94.1024 120.19 94.1366C120.199 94.1707 120.206 94.2052 120.211 94.24C120.217 94.2749 120.22 94.31 120.222 94.3452C120.224 94.3806 120.224 94.4158 120.222 94.4511C120.22 94.4863 120.216 94.5214 120.211 94.5563C120.205 94.5911 120.198 94.6256 120.188 94.6598C120.179 94.6939 120.168 94.7275 120.156 94.7605C120.016 95.123 119.728 95.3026 119.387 95.4469C119.168 95.4774 118.959 95.4989 118.743 95.4345C118.705 95.4235 118.669 95.4107 118.632 95.3959C118.596 95.3811 118.561 95.3645 118.527 95.346C118.493 95.3275 118.459 95.3072 118.427 95.2851C118.395 95.2631 118.364 95.2394 118.335 95.2141C118.305 95.1889 118.277 95.1621 118.251 95.1338C118.224 95.1056 118.199 95.076 118.175 95.045C118.152 95.0141 118.13 94.982 118.11 94.9487C118.09 94.9155 118.071 94.8813 118.055 94.8461C118.04 94.8134 118.027 94.7799 118.016 94.7459C118.004 94.7119 117.994 94.6774 117.986 94.6424C117.978 94.6074 117.972 94.572 117.967 94.5364C117.962 94.5007 117.959 94.4649 117.958 94.429C117.957 94.3931 117.958 94.3572 117.961 94.3214C117.963 94.2855 117.967 94.2498 117.973 94.2143C117.979 94.1789 117.987 94.1438 117.996 94.1091C118.006 94.0744 118.017 94.0402 118.03 94.0066C118.174 93.6335 118.455 93.4443 118.809 93.2986Z" fill="white"/>
<path d="M112.652 94.5187C112.928 94.4563 113.183 94.4163 113.461 94.5013C113.869 94.6258 114.061 94.939 114.25 95.2887C114.242 95.4252 114.231 95.5619 114.207 95.6967C114.134 96.1062 113.918 96.334 113.591 96.5623C113.395 96.6176 113.188 96.6625 112.983 96.6405C112.944 96.6362 112.904 96.6299 112.866 96.6216C112.827 96.6132 112.789 96.6029 112.751 96.5906C112.713 96.5783 112.677 96.564 112.64 96.5479C112.604 96.5317 112.569 96.5137 112.535 96.4939C112.501 96.4741 112.467 96.4526 112.436 96.4293C112.404 96.406 112.373 96.3811 112.344 96.3547C112.314 96.3282 112.286 96.3003 112.26 96.271C112.233 96.2416 112.209 96.2109 112.186 96.179C112.165 96.1504 112.146 96.1208 112.128 96.0902C112.111 96.0596 112.095 96.0283 112.08 95.9962C112.066 95.964 112.053 95.9313 112.042 95.8978C112.031 95.8644 112.021 95.8305 112.014 95.7962C112.006 95.7618 112 95.7272 111.995 95.6922C111.991 95.6572 111.989 95.6221 111.988 95.5869C111.987 95.5517 111.988 95.5165 111.991 95.4814C111.993 95.4463 111.998 95.4114 112.004 95.3767C112.076 94.9707 112.326 94.7359 112.652 94.5187Z" fill="white"/>
<path d="M110.564 171.179H145.937L151.57 220.122L99.0945 217.757L110.564 171.179Z" fill="#24285B"/>
<path d="M126.144 134.73C125.308 133.714 124.683 132.542 124.303 131.282C123.924 130.022 123.799 128.699 123.935 127.391C124.071 126.082 124.465 124.813 125.095 123.658C125.726 122.503 126.579 121.485 127.606 120.662C129.652 119.065 131.816 117.626 134.081 116.359C147.571 108.635 169.992 91.5622 179.432 68.0142C179.432 68.0142 181.644 59.407 188.211 59.7115C194.778 60.016 192.515 68.1766 185.978 68.0954C185.978 68.0954 180.629 119.191 141.379 138.201C138.819 139.411 135.927 139.726 133.167 139.096C130.407 138.467 127.937 136.929 126.154 134.73H126.144Z" fill="#F4A28C"/>
<path d="M101.5 49.46V68.1055H113.548L116.187 75.5252L119.303 68.1055H131.351V49.46H101.5Z" fill="#E6E6E6"/>
<path opacity="0.12" d="M114.918 62.949C114.784 62.9422 114.652 62.906 114.533 62.8428C114.413 62.7797 114.309 62.6912 114.228 62.5836L111.071 58.5236C110.932 58.3276 110.873 58.0851 110.908 57.8469C110.943 57.6087 111.068 57.3931 111.258 57.2451C111.448 57.0971 111.687 57.0282 111.927 57.0527C112.166 57.0772 112.387 57.1933 112.543 57.3767L115.02 60.5638L121.11 53.9663C121.193 53.8744 121.293 53.7999 121.405 53.7471C121.516 53.6943 121.638 53.6642 121.761 53.6587C121.885 53.6531 122.008 53.6721 122.124 53.7146C122.241 53.7571 122.347 53.8223 122.438 53.9063C122.529 53.9904 122.602 54.0916 122.653 54.2041C122.704 54.3166 122.733 54.4382 122.737 54.5618C122.741 54.6854 122.72 54.8086 122.676 54.9242C122.632 55.0397 122.565 55.1454 122.48 55.235L115.608 62.6648C115.519 62.7566 115.411 62.8292 115.293 62.878C115.174 62.9269 115.047 62.951 114.918 62.949Z" fill="black"/>
</svg>
