<svg width="406" height="306" viewBox="0 0 406 306" fill="none" xmlns="http://www.w3.org/2000/svg">
<path d="M171.921 123.271C171.921 123.271 151.032 129.574 144.993 146.413C138.954 163.252 144.404 194.625 168.642 213.687C192.88 232.749 231.461 217.646 231.461 217.646C231.461 217.646 257.962 181.846 246.807 156.045C235.653 130.244 217.21 104.209 171.921 123.271Z" fill="#68E1FD"/>
<path d="M131.95 195.285C131.95 195.285 120.907 238.93 137.492 238.93C154.077 238.93 182.396 238.3 182.396 238.3L161.081 200.329L131.95 195.285Z" fill="#BAF1FE"/>
<path d="M173.88 123.342C173.88 123.342 162.096 136.049 173.88 143.804C185.664 151.559 199.925 140.353 196.514 132.467C193.104 124.58 182.832 119.18 182.832 119.18L173.88 123.342Z" fill="#5AD8F5"/>
<path d="M143.673 149.001C138.233 160.389 129.819 180.466 130.296 195.001L161.081 200.34C161.081 200.34 178.254 159.862 161.497 145.246C160.162 144.094 158.58 143.266 156.873 142.826C155.166 142.386 153.38 142.346 151.655 142.709C149.93 143.073 148.312 143.83 146.928 144.921C145.543 146.012 144.429 147.409 143.673 149.001Z" fill="#68E1FD"/>
<path opacity="0.54" d="M143.673 149.001C138.233 160.389 129.819 180.466 130.296 195.001L161.081 200.34C161.081 200.34 178.254 159.862 161.497 145.246C160.162 144.094 158.58 143.266 156.873 142.826C155.166 142.386 153.38 142.346 151.655 142.709C149.93 143.073 148.312 143.83 146.928 144.921C145.543 146.012 144.429 147.409 143.673 149.001Z" fill="#34C0E0"/>
<path d="M229.116 126.783C240.413 134.751 255.069 150.128 260.236 177.797L232.1 188.261C232.1 188.261 208.085 163.851 209.77 136.09C209.912 133.91 210.63 131.807 211.852 129.996C213.074 128.186 214.755 126.732 216.724 125.785C218.693 124.838 220.877 124.431 223.055 124.607C225.232 124.782 227.324 125.533 229.116 126.783Z" fill="#68E1FD"/>
<path opacity="0.54" d="M229.116 126.783C240.413 134.751 255.069 150.128 260.236 177.797L232.1 188.261C232.1 188.261 208.085 163.851 209.77 136.09C209.912 133.91 210.63 131.807 211.852 129.996C213.074 128.186 214.755 126.732 216.724 125.785C218.693 124.838 220.877 124.431 223.055 124.607C225.232 124.782 227.324 125.533 229.116 126.783Z" fill="#3FC7E7"/>
<path opacity="0.58" d="M94.7604 223.766C94.7604 223.766 82.3571 220.386 79.6572 208.825C79.6572 208.825 98.8712 204.948 99.4193 224.781L94.7604 223.766Z" fill="#68E1FD"/>
<path opacity="0.73" d="M96.2829 222.538C96.2829 222.538 87.6148 208.835 95.2679 196.036C95.2679 196.036 109.884 205.313 103.388 222.568L96.2829 222.538Z" fill="#68E1FD"/>
<path d="M98.5159 222.548C98.5159 222.548 103.094 208.084 116.928 205.293C116.928 205.293 119.526 214.682 107.966 222.548H98.5159Z" fill="#68E1FD"/>
<path d="M89.5129 222.223L92.0301 239.427L107.864 239.488L110.199 222.304L89.5129 222.223Z" fill="#24285B"/>
<path opacity="0.09" d="M176.174 132.802C176.174 132.802 170.967 137.349 177.706 140.841C184.446 144.332 182.588 177.563 192.353 186.16C202.117 194.757 217.92 190.119 217.92 190.119L198.991 154.32L195.245 136.425L185.633 134.558L176.174 132.802Z" fill="black"/>
<path d="M190.008 129.229C190.008 129.229 177.919 124.276 175.128 129.229C172.337 134.182 188.445 137.907 188.445 137.907L190.008 129.229Z" fill="#F4A28C"/>
<path d="M190.008 129.229C190.008 129.229 177.919 124.276 175.128 129.229C172.337 134.182 188.445 137.907 188.445 137.907L190.008 129.229Z" fill="#ADEFFE"/>
<path d="M258.825 178.304C258.825 178.304 271.858 212.885 256.511 221.005C241.164 229.125 197.57 184.526 188.445 137.876L190.008 129.198C190.008 129.198 205.375 146.128 211.181 156.37C216.987 166.611 234.962 180.405 234.962 180.405L258.825 178.304Z" fill="#ADEFFE"/>
<path d="M166.703 238.94L155.863 184.698H242.128L235.226 240.32L166.703 238.94Z" fill="#FFD200"/>
<path d="M198.981 217.199C202.254 217.199 204.908 214.545 204.908 211.271C204.908 207.998 202.254 205.344 198.981 205.344C195.707 205.344 193.053 207.998 193.053 211.271C193.053 214.545 195.707 217.199 198.981 217.199Z" fill="white"/>
<path d="M314.782 237.702H75.0491V254.733H314.782V237.702Z" fill="#E6E6E6"/>
<path d="M301.313 213.555H282.87V237.783H301.313V213.555Z" fill="#C1C1C1"/>
<path d="M286.616 219.635H280.14C278.291 219.635 276.517 220.369 275.209 221.677C273.902 222.985 273.167 224.758 273.167 226.608C273.166 227.524 273.345 228.431 273.695 229.278C274.045 230.124 274.559 230.894 275.206 231.541C275.854 232.189 276.623 232.703 277.47 233.053C278.317 233.403 279.224 233.582 280.14 233.581H286.646" stroke="#C1C1C1" stroke-width="2.03" stroke-miterlimit="10"/>
<path d="M292.046 232.008C295.028 232.008 297.446 229.59 297.446 226.608C297.446 223.626 295.028 221.208 292.046 221.208C289.064 221.208 286.646 223.626 286.646 226.608C286.646 229.59 289.064 232.008 292.046 232.008Z" fill="#E6E6E6"/>
<path opacity="0.38" d="M285.022 213.555C285.022 213.555 280.262 200.502 292.127 198.33C303.992 196.158 306.52 191.824 299.232 182.831C291.944 173.838 294.157 167.332 301.374 166.093C308.59 164.855 319.177 177.908 324.445 162.033C329.713 146.159 340.258 151.823 344.288 162.033C348.317 172.244 355.453 188.363 333.742 189.601C312.031 190.839 322.577 206.277 314.843 209.251C310.452 210.964 305.952 212.384 301.374 213.504L285.022 213.555Z" fill="#E6E6E6"/>
<path opacity="0.38" d="M284.9 60.6959C284.997 60.1053 285.048 59.508 285.053 58.9095C285.053 55.7492 283.797 52.7183 281.562 50.4836C279.328 48.2489 276.297 46.9934 273.136 46.9934C271.273 46.9926 269.436 47.4344 267.777 48.2825C267.777 47.8562 267.848 47.4299 267.848 46.9934C267.896 43.8922 266.732 40.8947 264.604 38.6387C262.475 36.3827 259.55 35.0464 256.451 34.9142C253.353 34.7819 250.325 35.8641 248.012 37.9305C245.699 39.9969 244.283 42.8844 244.067 45.9784C241.946 44.282 239.308 43.3624 236.592 43.3725C233.876 43.3826 231.245 44.3219 229.137 46.0341C227.029 47.7464 225.57 50.1286 225.003 52.7847C224.436 55.4409 224.795 58.2111 226.02 60.635H225.787C224.602 60.6341 223.431 60.8883 222.353 61.3803C221.275 61.8724 220.316 62.5907 219.541 63.4865C218.765 64.3824 218.192 65.4347 217.859 66.5719C217.527 67.7091 217.443 68.9045 217.614 70.077C217.785 71.2494 218.207 72.3712 218.85 73.3663C219.493 74.3613 220.343 75.2062 221.341 75.8435C222.34 76.4808 223.465 76.8955 224.638 77.0595C225.811 77.2235 227.006 77.1329 228.141 76.7938C228.478 79.6917 229.867 82.3652 232.045 84.3058C234.223 86.2464 237.039 87.3189 239.956 87.3194C240.729 89.8446 242.319 92.0414 244.477 93.5648C246.634 95.0882 249.236 95.8518 251.874 95.7356C254.513 95.6194 257.038 94.6301 259.053 92.923C261.068 91.2159 262.459 88.8878 263.007 86.3044C264.75 87.7393 266.866 88.6492 269.107 88.9282C271.348 89.2071 273.622 88.8435 275.664 87.8799C277.706 86.9162 279.432 85.3921 280.642 83.4851C281.851 81.578 282.494 79.3666 282.495 77.1085C282.495 77.1085 282.495 77.0476 282.495 77.0171C282.885 77.0732 283.278 77.1037 283.672 77.1085C285.744 77.0957 287.736 76.3037 289.251 74.89C290.766 73.4762 291.694 71.5442 291.85 69.4779C292.006 67.4116 291.379 65.3622 290.093 63.737C288.807 62.1118 286.957 61.0298 284.91 60.7061L284.9 60.6959Z" fill="#E6E6E6"/>
<path opacity="0.38" d="M237.997 99.337C238.073 99.1493 238.134 98.9559 238.18 98.7585C238.325 98.0905 238.3 97.3967 238.105 96.7413C237.911 96.0859 237.554 95.4901 237.069 95.0093C236.583 94.5285 235.983 94.1781 235.326 93.9907C234.668 93.8033 233.974 93.7849 233.308 93.9372C233.359 93.8019 233.4 93.6627 233.43 93.5211C233.551 92.5534 233.321 91.5742 232.78 90.7627C232.239 89.9511 231.424 89.3614 230.484 89.1015C229.544 88.8415 228.541 88.9286 227.66 89.3469C226.779 89.7652 226.078 90.4867 225.685 91.3795C225.209 90.79 224.577 90.3457 223.861 90.0968C223.145 89.848 222.373 89.8045 221.634 89.9714C220.895 90.1383 220.217 90.5089 219.677 91.0411C219.137 91.5734 218.757 92.2461 218.58 92.9832C218.438 93.5804 218.438 94.2028 218.58 94.8H218.499C218.128 94.6764 217.736 94.6319 217.347 94.6695C216.958 94.7071 216.582 94.8259 216.242 95.0182C215.901 95.2106 215.606 95.4722 215.373 95.7861C215.14 96.1 214.976 96.4593 214.891 96.8406C214.806 97.222 214.802 97.6169 214.88 97.9999C214.957 98.3829 215.114 98.7454 215.34 99.0639C215.566 99.3825 215.857 99.65 216.193 99.8491C216.529 100.048 216.903 100.175 217.291 100.22C217.553 100.289 217.824 100.313 218.093 100.291C217.99 101.263 218.241 102.24 218.801 103.042C219.36 103.844 220.19 104.417 221.138 104.656C221.226 105.527 221.594 106.347 222.187 106.992C222.78 107.638 223.565 108.074 224.426 108.236C225.287 108.398 226.177 108.278 226.964 107.892C227.751 107.507 228.392 106.877 228.791 106.097C229.263 106.687 229.891 107.133 230.603 107.385C231.315 107.638 232.083 107.687 232.822 107.526C233.56 107.366 234.239 107.003 234.782 106.478C235.325 105.953 235.711 105.287 235.896 104.554C236.018 104.605 236.143 104.646 236.272 104.676C236.961 104.851 237.691 104.756 238.311 104.409C238.932 104.063 239.397 103.492 239.61 102.814C239.823 102.136 239.768 101.402 239.457 100.763C239.146 100.124 238.602 99.628 237.936 99.3776L237.997 99.337Z" fill="#E6E6E6"/>
<path opacity="0.38" d="M211.557 103.407C211.557 103.285 211.638 103.163 211.668 103.031C211.746 102.7 211.758 102.357 211.703 102.021C211.647 101.685 211.526 101.363 211.346 101.075C211.166 100.786 210.93 100.536 210.653 100.338C210.375 100.141 210.062 100.001 209.73 99.9255C209.336 99.8291 208.925 99.8291 208.532 99.9255C208.565 99.8395 208.592 99.7513 208.613 99.6616C208.796 98.9994 208.709 98.2916 208.37 97.6939C208.031 97.0962 207.469 96.6576 206.806 96.4745C206.144 96.2915 205.436 96.379 204.839 96.7178C204.241 97.0566 203.802 97.619 203.619 98.2812C203.316 97.9032 202.914 97.6177 202.457 97.4573C202 97.2968 201.507 97.2678 201.034 97.3735C200.561 97.4793 200.128 97.7155 199.783 98.0554C199.438 98.3953 199.195 98.8252 199.082 99.2962C198.991 99.6799 198.991 100.08 199.082 100.463C198.831 100.405 198.57 100.401 198.317 100.452C198.064 100.503 197.825 100.608 197.616 100.76C197.408 100.912 197.234 101.107 197.108 101.332C196.981 101.557 196.904 101.807 196.883 102.064C196.862 102.321 196.896 102.58 196.984 102.823C197.071 103.066 197.21 103.287 197.391 103.471C197.572 103.655 197.79 103.798 198.031 103.891C198.272 103.983 198.53 104.022 198.788 104.006C198.718 104.643 198.887 105.282 199.262 105.802C199.637 106.321 200.192 106.683 200.818 106.817C200.858 107.389 201.086 107.93 201.467 108.358C201.848 108.786 202.36 109.075 202.922 109.181C203.485 109.286 204.067 109.202 204.577 108.942C205.087 108.681 205.496 108.259 205.741 107.741C206.042 108.13 206.448 108.426 206.911 108.593C207.374 108.761 207.875 108.793 208.356 108.687C208.837 108.58 209.277 108.34 209.627 107.992C209.976 107.645 210.219 107.206 210.328 106.726L210.572 106.807C211.009 106.899 211.464 106.826 211.849 106.601C212.235 106.376 212.522 106.016 212.657 105.59C212.791 105.164 212.762 104.704 212.576 104.299C212.389 103.893 212.058 103.572 211.648 103.397L211.557 103.407Z" fill="#E6E6E6"/>
<path d="M166.309 85.5429C165.917 84.2811 165.337 82.8634 165.255 81.5449C165.222 81.0237 165.275 80.7575 165.61 80.3719C166.036 80.3202 166.333 80.3941 166.717 80.6127C167.04 80.7972 167.102 81.106 167.195 81.4389C167.473 82.6442 167.825 83.8173 168.189 84.9987L166.309 85.5429Z" fill="#25285B"/>
<path d="M162.736 109.579C162.104 109.702 161.326 109.924 160.701 109.682C160.108 109.453 159.88 109.162 159.615 108.6C159.033 107.363 156.942 100.821 157.351 99.8596C157.727 98.9747 158.649 98.7078 159.479 98.4283C160.533 102.148 161.753 105.844 162.736 109.579Z" fill="#25285B"/>
<path d="M180.725 91.9333C181.5 91.7326 182.209 91.5213 182.95 91.9733C183.379 92.2353 183.77 92.6224 184.145 92.9576C184.767 94.8929 186.884 99.8132 186.027 101.647C185.776 102.186 185.374 102.475 184.819 102.648C184.532 102.736 184.243 102.817 183.952 102.891C182.807 99.265 181.799 95.5826 180.725 91.9333Z" fill="#25285B"/>
<path d="M169.953 113.908C173.873 113.689 177.238 111.223 181.117 110.922L181.786 112.934C182.514 115.335 183.864 118.945 183.791 121.171C182.847 123.466 176.457 125.296 174.42 124.766C173.862 124.621 173.549 124.409 173.041 123.517C172.019 121.725 171.333 118.728 170.73 116.597L169.953 113.908Z" fill="#FFD200"/>
<path d="M177.897 118.427C174.158 119.882 171.69 116.073 170.179 114.663L181.334 111.522C181.092 113.224 182.847 116.501 177.897 118.427Z" fill="#E5BF0B"/>
<path d="M168.189 84.9984C167.825 83.817 167.473 82.6439 167.195 81.4386L168.244 84.9642C171.177 84.522 175.089 83.808 177.655 85.7247C179.619 87.1914 180.081 89.7133 180.726 91.9337C181.799 95.583 182.808 99.2654 183.952 102.892C184.406 104.405 185.944 107.778 185.202 109.214C184.564 110.45 182.557 111.089 181.301 111.545C177.545 112.263 173.966 114.002 170.182 114.685C168.715 114.999 166.411 115.739 165.03 114.929C163.608 114.095 163.162 111.112 162.737 109.58C161.753 105.844 160.533 102.149 159.479 98.429C159.127 95.7127 157.631 93.9534 158.939 91.1253C160.243 88.3084 163.542 86.5748 166.309 85.5426L168.189 84.9984Z" fill="#FFD200"/>
<path d="M159.864 99.1748C159.56 98.0372 159.225 97.1634 158.932 96.0227C158.537 94.4626 158.27 93.1658 158.725 91.8348C160.124 87.7467 165.185 85.1133 169.29 86.5027C169.29 86.5027 171.745 87.0658 173.453 89.9653C174.837 92.3164 174.979 95.5962 175.342 96.1724C175.019 97.4249 174.861 98.7457 175.317 100.239C175.575 101.086 175.955 101.823 176.415 102.495C176.292 103.423 176.239 104.374 176.076 105.281C175.535 108.307 174.188 110.656 172.606 112.478C171.428 113.833 170.698 114.305 169.006 114.772C167.704 115.132 166.134 116.015 164.707 114.721C163.137 113.295 162.832 109.864 162.23 107.621C161.298 104.333 160.826 102.453 159.864 99.1748Z" fill="#FFE56E"/>
<path d="M163.179 99.3492C165.817 98.4378 168.566 97.7318 171.245 96.9412C173.381 96.3108 175.58 95.5118 177.765 95.0835C178.629 94.9143 179.463 94.8492 180.217 95.3922C181.067 96.0049 181.485 97.1137 181.623 98.122C181.821 99.5653 181.341 100.601 180.508 101.713C178.747 102.608 167.863 105.821 165.904 106.062C164.985 106.175 164.157 105.943 163.435 105.346C162.591 104.649 162.117 103.504 162.02 102.425C161.908 101.16 162.386 100.273 163.179 99.3492Z" fill="#25285B"/>
<path d="M174.319 98.1354C175.907 97.6099 177.536 97.1763 179.141 96.7053C179.428 97.6412 179.704 98.58 179.97 99.5219C178.493 100.207 176.717 100.571 175.147 101.023L174.319 98.1354Z" fill="#FFD200"/>
<path d="M164.176 101.072C165.689 100.61 167.214 100.185 168.734 99.7447C168.982 100.533 169.612 101.954 169.397 102.724L164.705 104.109C164.432 103.207 164.067 102.258 163.968 101.321L164.176 101.072Z" fill="#FFD200"/>
<path d="M165.474 99.1253C166.216 98.8512 166.849 98.6911 167.635 98.8857C168.458 99.0896 169.145 99.647 169.564 100.375C169.59 100.421 169.616 100.467 169.64 100.514C169.664 100.561 169.687 100.608 169.709 100.656C169.731 100.704 169.751 100.753 169.771 100.802C169.79 100.851 169.808 100.9 169.825 100.95C169.842 101 169.858 101.051 169.872 101.101C169.887 101.152 169.9 101.203 169.912 101.254C169.923 101.306 169.934 101.358 169.943 101.409C169.953 101.461 169.961 101.513 169.967 101.566C169.974 101.618 169.98 101.671 169.984 101.723C169.988 101.776 169.991 101.828 169.992 101.881C169.994 101.934 169.994 101.987 169.993 102.04C169.992 102.092 169.989 102.145 169.986 102.198C169.982 102.25 169.977 102.303 169.971 102.355C169.964 102.408 169.957 102.46 169.948 102.512C169.939 102.564 169.929 102.616 169.917 102.667C169.906 102.719 169.893 102.77 169.879 102.821C169.615 103.757 169.01 104.348 168.187 104.822C167.533 105.063 166.897 105.164 166.204 105.035C165.387 104.883 164.626 104.416 164.166 103.722C164.138 103.678 164.11 103.633 164.084 103.588C164.057 103.543 164.032 103.497 164.008 103.45C163.984 103.403 163.961 103.356 163.94 103.309C163.918 103.261 163.897 103.213 163.878 103.164C163.859 103.115 163.841 103.066 163.824 103.016C163.808 102.967 163.792 102.917 163.778 102.866C163.764 102.816 163.751 102.765 163.739 102.714C163.728 102.663 163.717 102.611 163.708 102.56C163.699 102.508 163.692 102.456 163.685 102.404C163.679 102.352 163.674 102.3 163.67 102.248C163.666 102.196 163.664 102.143 163.663 102.091C163.662 102.038 163.662 101.986 163.663 101.934C163.665 101.881 163.668 101.829 163.672 101.776C163.676 101.724 163.682 101.672 163.689 101.62C163.696 101.568 163.704 101.516 163.713 101.465C163.723 101.413 163.734 101.362 163.746 101.311C163.982 100.292 164.617 99.6696 165.474 99.1253Z" fill="#1AAEE0"/>
<path d="M174.653 97.1257C175.285 96.3422 176.048 95.7529 177.08 95.6446C177.132 95.6396 177.184 95.6359 177.236 95.6334C177.288 95.6311 177.34 95.63 177.392 95.6302C177.444 95.6303 177.496 95.6317 177.548 95.6345C177.6 95.6373 177.652 95.6414 177.704 95.6467C177.755 95.652 177.807 95.6586 177.858 95.6665C177.91 95.6744 177.961 95.6836 178.012 95.694C178.063 95.7044 178.113 95.7162 178.164 95.7292C178.214 95.7421 178.264 95.7563 178.314 95.7717C178.363 95.7872 178.413 95.8038 178.461 95.8217C178.51 95.8397 178.558 95.8588 178.606 95.8791C178.654 95.8994 178.701 95.9208 178.748 95.9435C178.795 95.9662 178.841 95.99 178.886 96.0149C178.932 96.0399 178.977 96.0659 179.021 96.0931C179.065 96.1203 179.108 96.1486 179.151 96.178C179.194 96.2073 179.236 96.2377 179.277 96.2691C179.318 96.3006 179.359 96.333 179.398 96.3665C179.441 96.4013 179.482 96.4372 179.522 96.4741C179.563 96.511 179.602 96.5489 179.64 96.5879C179.679 96.6267 179.716 96.6665 179.753 96.7072C179.789 96.7479 179.825 96.7895 179.859 96.8321C179.893 96.8746 179.927 96.9179 179.959 96.9621C179.991 97.0062 180.022 97.0511 180.052 97.0967C180.082 97.1424 180.111 97.1889 180.138 97.2361C180.166 97.2832 180.192 97.3309 180.217 97.3794C180.242 97.4278 180.266 97.4769 180.289 97.5265C180.312 97.5762 180.333 97.6264 180.353 97.6772C180.374 97.7278 180.393 97.779 180.41 97.8307C180.428 97.8823 180.444 97.9344 180.459 97.9869C180.474 98.0394 180.488 98.0923 180.5 98.1454C180.513 98.1986 180.524 98.252 180.534 98.3058C180.543 98.3595 180.552 98.4134 180.559 98.4676C180.566 98.5218 180.571 98.5761 180.575 98.6305C180.639 99.4138 180.411 100.209 179.894 100.812C179.33 101.469 178.456 101.882 177.595 101.949C176.772 102.012 175.985 101.748 175.313 101.286C174.895 100.889 174.561 100.438 174.357 99.8954C173.997 98.9394 174.244 98.0202 174.653 97.1257Z" fill="#1AAEE0"/>
<path d="M176.772 97.1989C177.08 97.1353 177.37 97.1034 177.681 97.1691C178.17 97.2726 178.608 97.5472 178.876 97.9722C178.905 98.0181 178.932 98.0653 178.956 98.1139C178.98 98.1626 179.002 98.2124 179.021 98.2632C179.04 98.3141 179.057 98.3658 179.071 98.4184C179.085 98.471 179.096 98.5241 179.104 98.5779C179.112 98.6317 179.118 98.6857 179.12 98.7401C179.123 98.7943 179.123 98.8487 179.12 98.903C179.117 98.9573 179.111 99.0113 179.103 99.0652C179.094 99.1189 179.083 99.172 179.069 99.2247C178.911 99.8023 178.499 100.123 178 100.399C177.669 100.48 177.353 100.546 177.011 100.482C176.952 100.471 176.893 100.457 176.836 100.44C176.778 100.424 176.721 100.404 176.666 100.381C176.611 100.358 176.556 100.332 176.504 100.303C176.451 100.275 176.4 100.243 176.351 100.209C176.301 100.175 176.254 100.139 176.209 100.1C176.163 100.061 176.12 100.019 176.079 99.9755C176.038 99.932 176 99.8862 175.964 99.8384C175.928 99.7907 175.894 99.7412 175.863 99.6899C175.836 99.6421 175.81 99.593 175.787 99.5427C175.764 99.4923 175.743 99.441 175.725 99.3887C175.707 99.3364 175.692 99.2833 175.679 99.2294C175.666 99.1755 175.656 99.1211 175.649 99.0662C175.642 99.0113 175.637 98.9562 175.635 98.9009C175.633 98.8456 175.634 98.7902 175.638 98.7349C175.641 98.6797 175.647 98.6247 175.656 98.57C175.665 98.5153 175.677 98.4612 175.691 98.4076C175.853 97.8131 176.254 97.4785 176.772 97.1989Z" fill="white"/>
<path d="M165.963 100.443C166.375 100.304 166.76 100.202 167.2 100.288C167.845 100.414 168.188 100.863 168.534 101.369C168.544 101.579 168.548 101.79 168.533 102.001C168.485 102.64 168.192 103.023 167.726 103.425C167.434 103.541 167.125 103.643 166.807 103.641C166.746 103.641 166.685 103.638 166.625 103.631C166.564 103.624 166.504 103.615 166.444 103.602C166.385 103.589 166.326 103.573 166.268 103.554C166.21 103.535 166.153 103.513 166.097 103.488C166.042 103.463 165.988 103.436 165.935 103.405C165.882 103.374 165.831 103.341 165.782 103.305C165.733 103.269 165.686 103.231 165.641 103.19C165.596 103.149 165.553 103.106 165.512 103.061C165.476 103.021 165.442 102.978 165.41 102.934C165.379 102.89 165.349 102.845 165.322 102.798C165.295 102.751 165.27 102.703 165.248 102.653C165.225 102.604 165.205 102.553 165.188 102.502C165.17 102.451 165.156 102.398 165.143 102.346C165.131 102.293 165.122 102.239 165.115 102.185C165.108 102.132 165.104 102.078 165.103 102.023C165.101 101.969 165.102 101.915 165.106 101.861C165.152 101.227 165.498 100.828 165.963 100.443Z" fill="white"/>
</svg>
