<svg width="406" height="306" viewBox="0 0 406 306" fill="none" xmlns="http://www.w3.org/2000/svg">
<path d="M170.825 81.1685H49.0854V184.221H170.825V81.1685Z" fill="#24285B"/>
<path d="M123.769 141.155H84.6611V145.529H123.769V141.155Z" fill="#68E1FD"/>
<path d="M130.834 128.975H95.877V133.35H130.834V128.975Z" fill="#FFD200"/>
<path d="M129.017 162.855H110.777V167.23H129.017V162.855Z" fill="#FFD200"/>
<path d="M142.476 151.731H95.877V156.106H142.476V151.731Z" fill="#68E1FD"/>
<path d="M87.6758 151.731H70.1467V156.106H87.6758V151.731Z" fill="white"/>
<path d="M105.134 163.231H87.6047V167.606H105.134V163.231Z" fill="white"/>
<path d="M76.46 141.155H58.9309V145.529H76.46V141.155Z" fill="white"/>
<path d="M57.0531 90.6077C58.1911 90.6077 59.1136 89.6852 59.1136 88.5473C59.1136 87.4093 58.1911 86.4868 57.0531 86.4868C55.9152 86.4868 54.9927 87.4093 54.9927 88.5473C54.9927 89.6852 55.9152 90.6077 57.0531 90.6077Z" fill="white"/>
<path d="M63.1837 90.6077C64.3217 90.6077 65.2442 89.6852 65.2442 88.5473C65.2442 87.4093 64.3217 86.4868 63.1837 86.4868C62.0458 86.4868 61.1233 87.4093 61.1233 88.5473C61.1233 89.6852 62.0458 90.6077 63.1837 90.6077Z" fill="#68E1FD"/>
<path d="M68.9691 90.6077C70.1071 90.6077 71.0296 89.6852 71.0296 88.5473C71.0296 87.4093 70.1071 86.4868 68.9691 86.4868C67.8312 86.4868 66.9087 87.4093 66.9087 88.5473C66.9087 89.6852 67.8312 90.6077 68.9691 90.6077Z" fill="#FFD200"/>
<path d="M76.46 107.873H58.9309V112.248H76.46V107.873Z" fill="white"/>
<path d="M87.6758 118.825H70.1467V123.2H87.6758V118.825Z" fill="white"/>
<path d="M130.834 118.825H95.877V123.2H130.834V118.825Z" fill="#FFD200"/>
<path d="M87.6758 128.975H70.1467V133.35H87.6758V128.975Z" fill="white"/>
<path d="M119.567 107.873H83.4634V112.248H119.567V107.873Z" fill="#68E1FD"/>
<path d="M152.747 107.873H127.119V112.248H152.747V107.873Z" fill="#68E1FD"/>
<path d="M214.459 159.009C214.459 159.009 193.885 166.662 191.114 180.324C188.343 193.986 172.712 215.727 150.687 173.351L143.44 176.142C143.44 176.142 163.516 244.147 198.92 210.987C234.323 177.827 214.459 159.009 214.459 159.009Z" fill="#68E1FD"/>
<path opacity="0.46" d="M214.459 159.009C214.459 159.009 193.885 166.662 191.114 180.324C188.343 193.986 172.712 215.727 150.687 173.351L143.44 176.142C143.44 176.142 163.516 244.147 198.92 210.987C234.323 177.827 214.459 159.009 214.459 159.009Z" fill="white"/>
<path opacity="0.45" d="M237.277 258.154C297.073 258.154 345.547 253.578 345.547 247.933C345.547 242.288 297.073 237.712 237.277 237.712C177.481 237.712 129.007 242.288 129.007 247.933C129.007 253.578 177.481 258.154 237.277 258.154Z" fill="#E6E6E6"/>
<path d="M250.766 156.045C250.766 156.045 228.558 147.408 208.055 163.15C187.552 178.893 214.145 234.302 214.145 234.302L252.522 235.581C252.522 235.581 302.846 189.429 250.766 156.045Z" fill="#68E1FD"/>
<path opacity="0.08" d="M240.941 162.257C240.941 162.257 226.964 184.323 241.286 197.883C261.586 217.118 237.875 218.752 214.145 219.442L238.911 238.26L269.878 221.238L266.377 199.01L240.941 162.257Z" fill="black"/>
<path d="M219.849 232.261C234.587 232.749 238.383 231.652 251.994 225.999C260.256 222.558 270.061 220.132 277.572 223.238C293.457 229.805 280.78 255.627 240.017 249.384L202.381 247.689C202.381 247.689 187.938 247.689 185.38 242.503C182.264 236.179 188.79 229.612 218.875 232.231L219.849 232.261Z" fill="#24285B"/>
<path d="M236.891 222.771C236.891 222.771 225.208 221.025 225.574 228.181L236.333 229.105L236.891 222.771Z" fill="#F4A28C"/>
<path d="M202.625 231.723L193.52 204.298H226.223L230.527 228.709L242.961 229.551V232.728L202.625 231.723Z" fill="#FFD200"/>
<path d="M212.105 220.833C214.156 220.833 215.819 219.169 215.819 217.118C215.819 215.066 214.156 213.403 212.105 213.403C210.053 213.403 208.39 215.066 208.39 217.118C208.39 219.169 210.053 220.833 212.105 220.833Z" fill="white"/>
<path d="M150.677 173.351C150.677 173.351 148.16 165.485 143.805 163.201C143.674 163.133 143.526 163.103 143.379 163.115C143.231 163.127 143.09 163.181 142.972 163.271C142.854 163.36 142.764 163.481 142.712 163.62C142.66 163.758 142.648 163.909 142.679 164.054L143.43 167.89C143.43 167.89 137.756 171.605 143.43 176.163L150.677 173.351Z" fill="#F4A28C"/>
<path d="M247.498 244.401C247.498 244.401 233.48 246.299 236.86 249.537C240.24 252.775 248.533 250.349 248.533 250.349L247.498 244.401Z" fill="#68E1FD"/>
<path d="M223.533 248.552L226.416 244.208C226.416 244.208 235.287 250.247 234.445 252.947C232.739 258.337 223.533 248.552 223.533 248.552Z" fill="#68E1FD"/>
<path d="M239.895 166.712C239.9 165.083 240.296 163.479 241.051 162.035C241.807 160.591 242.899 159.35 244.234 158.418C245.57 157.485 247.111 156.887 248.727 156.676C250.343 156.464 251.985 156.645 253.516 157.202C260.621 159.75 269.645 164.804 275.572 174.741C286.737 193.427 306.347 243.243 236.333 229.105L236.982 221.807C236.982 221.807 264.255 224.689 266.854 212.398C269.076 201.821 239.895 189.763 239.895 166.712Z" fill="#68E1FD"/>
<path opacity="0.46" d="M239.895 166.712C239.9 165.083 240.296 163.479 241.051 162.035C241.807 160.591 242.899 159.35 244.234 158.418C245.57 157.485 247.111 156.887 248.727 156.676C250.343 156.464 251.985 156.645 253.516 157.202C260.621 159.75 269.645 164.804 275.572 174.741C286.737 193.427 306.347 243.243 236.333 229.105L236.982 221.807C236.982 221.807 264.255 224.689 266.854 212.398C269.076 201.821 239.895 189.763 239.895 166.712Z" fill="white"/>
<path d="M343.08 70.5718H248.3V128.721H343.08V70.5718Z" fill="#E6E6E6"/>
<path opacity="0.58" d="M309.768 237.559C309.768 237.559 302.724 235.631 301.191 229.084C301.191 229.084 312.113 226.871 312.417 238.138L309.768 237.559Z" fill="#68E1FD"/>
<path opacity="0.73" d="M310.59 236.859C310.59 236.859 305.667 229.084 310.001 221.807C310.001 221.807 318.304 227.074 314.61 236.879L310.59 236.859Z" fill="#68E1FD"/>
<path d="M311.899 236.87C311.899 236.87 314.498 228.648 322.364 227.095C322.364 227.095 323.836 232.424 317.289 236.89L311.899 236.87Z" fill="#68E1FD"/>
<path d="M306.794 236.677L308.225 246.451L317.218 246.492L318.537 236.728L306.794 236.677Z" fill="#24285B"/>
<path d="M279.125 100.565L270.934 103.61L279.125 106.584V109.629L267.412 105.173V101.966L279.125 97.5098V100.565Z" fill="#A5A5A5"/>
<path d="M280.14 109.964L282.353 107.305C282.691 107.857 283.159 108.318 283.716 108.647C284.274 108.976 284.903 109.163 285.55 109.193C287.143 109.193 287.986 108.238 287.986 106.34V98.19H281.896V94.9521H291.904V106.117C291.904 110.37 289.762 112.461 285.702 112.461C284.646 112.495 283.596 112.288 282.632 111.856C281.668 111.423 280.816 110.776 280.14 109.964Z" fill="#A5A5A5"/>
<path d="M294.573 110.471L295.923 107.477C297.595 108.631 299.575 109.257 301.607 109.274C303.962 109.274 304.926 108.482 304.926 107.426C304.926 104.209 294.918 106.411 294.918 100.027C294.918 97.0937 297.273 94.6577 302.165 94.6577C304.258 94.603 306.326 95.1226 308.144 96.1599L306.916 99.2049C305.47 98.3455 303.826 97.8767 302.145 97.8448C299.78 97.8448 298.877 98.738 298.877 99.8139C298.877 102.991 308.885 100.829 308.885 107.122C308.885 109.994 306.499 112.461 301.577 112.461C299.094 112.527 296.65 111.833 294.573 110.471Z" fill="#A5A5A5"/>
<path d="M322.77 101.966V105.163L311.057 109.619V106.574L319.248 103.6L311.057 100.555V97.5098L322.77 101.966Z" fill="#A5A5A5"/>
<path d="M255.983 81.4021C257.121 81.4021 258.044 80.4797 258.044 79.3417C258.044 78.2037 257.121 77.2812 255.983 77.2812C254.845 77.2812 253.923 78.2037 253.923 79.3417C253.923 80.4797 254.845 81.4021 255.983 81.4021Z" fill="#24285B"/>
<path d="M262.114 81.4021C263.252 81.4021 264.174 80.4797 264.174 79.3417C264.174 78.2037 263.252 77.2812 262.114 77.2812C260.976 77.2812 260.053 78.2037 260.053 79.3417C260.053 80.4797 260.976 81.4021 262.114 81.4021Z" fill="#68E1FD"/>
<path d="M267.899 81.4021C269.037 81.4021 269.96 80.4797 269.96 79.3417C269.96 78.2037 269.037 77.2812 267.899 77.2812C266.761 77.2812 265.839 78.2037 265.839 79.3417C265.839 80.4797 266.761 81.4021 267.899 81.4021Z" fill="#FFD200"/>
<path opacity="0.2" d="M323.399 76.2256H276.75V82.7013H323.399V76.2256Z" fill="#A5A5A5"/>
<path d="M216.794 126.121C216.533 125.115 216.13 123.979 216.114 122.94C216.108 122.529 216.16 122.322 216.437 122.031C216.774 122.006 217.004 122.075 217.298 122.261C217.545 122.418 217.582 122.663 217.643 122.928C217.817 123.886 218.05 124.821 218.292 125.763L216.794 126.121Z" fill="#25285B"/>
<path d="M213.094 144.878C212.593 144.951 211.973 145.097 211.491 144.883C211.034 144.681 210.865 144.444 210.678 143.993C210.266 142.999 208.866 137.78 209.223 137.039C209.551 136.358 210.286 136.182 210.948 135.993C211.639 138.956 212.46 141.906 213.094 144.878Z" fill="#25285B"/>
<path d="M227.887 131.678C228.503 131.549 229.068 131.409 229.634 131.792C229.961 132.014 230.254 132.333 230.536 132.61C230.954 134.154 232.434 138.099 231.693 139.509C231.475 139.923 231.149 140.135 230.707 140.251C230.478 140.309 230.247 140.362 230.016 140.41C229.251 137.517 228.595 134.586 227.887 131.678Z" fill="#25285B"/>
<path d="M218.605 148.548C221.694 148.521 224.43 146.708 227.49 146.616L227.941 148.221C228.424 150.136 229.351 153.023 229.211 154.77C228.384 156.538 223.294 157.739 221.713 157.247C221.28 157.112 221.042 156.934 220.675 156.214C219.938 154.767 219.511 152.387 219.116 150.69L218.605 148.548Z" fill="#FFD200"/>
<path d="M224.681 152.395C221.688 153.399 219.89 150.314 218.755 149.15L227.638 147.096C227.385 148.424 228.642 151.065 224.681 152.395Z" fill="#E5BF0B"/>
<path d="M218.292 125.763C218.05 124.821 217.817 123.886 217.643 122.928L218.336 125.738C220.658 125.499 223.759 125.083 225.705 126.685C227.194 127.91 227.463 129.91 227.887 131.678C228.595 134.586 229.251 137.518 230.016 140.41C230.317 141.616 231.4 144.324 230.764 145.425C230.216 146.373 228.615 146.8 227.611 147.112C224.633 147.537 221.755 148.771 218.756 149.167C217.592 149.36 215.754 149.856 214.699 149.168C213.612 148.459 213.372 146.099 213.095 144.879C212.46 141.907 211.639 138.957 210.948 135.994C210.772 133.847 209.662 132.409 210.795 130.234C211.924 128.069 214.582 126.829 216.794 126.121L218.292 125.763Z" fill="#FFD200"/>
<path d="M211.223 136.595C211.026 135.69 210.796 134.99 210.608 134.083C210.355 132.842 210.193 131.813 210.601 130.784C211.851 127.623 215.927 125.742 219.102 126.986C219.102 126.986 221.01 127.52 222.244 129.862C223.245 131.761 223.235 134.344 223.499 134.81C223.198 135.782 223.025 136.814 223.328 138.005C223.499 138.68 223.771 139.273 224.107 139.819C223.976 140.544 223.899 141.289 223.737 141.996C223.2 144.354 222.054 146.149 220.743 147.522C219.767 148.544 219.176 148.888 217.829 149.192C216.792 149.427 215.525 150.062 214.452 148.992C213.271 147.814 213.159 145.106 212.769 143.32C212.158 140.702 211.857 139.207 211.223 136.595Z" fill="#FFE56E"/>
<path d="M213.822 136.855C215.929 136.237 218.116 135.784 220.25 135.262C221.953 134.846 223.711 134.299 225.443 134.044C226.128 133.943 226.787 133.923 227.359 134.378C228.004 134.891 228.292 135.778 228.363 136.575C228.464 137.717 228.049 138.513 227.353 139.356C225.936 139.994 217.263 142.115 215.715 142.232C214.988 142.286 214.346 142.073 213.801 141.578C213.163 140.998 212.833 140.081 212.797 139.229C212.756 138.231 213.165 137.551 213.822 136.855Z" fill="#25285B"/>
<path d="M222.622 136.314C223.889 135.96 225.185 135.68 226.465 135.369C226.655 136.115 226.837 136.864 227.011 137.614C225.825 138.097 224.416 138.317 223.165 138.614L222.622 136.314Z" fill="#FFD200"/>
<path d="M214.541 138.246C215.748 137.939 216.962 137.661 218.173 137.372C218.338 138 218.781 139.141 218.584 139.738L214.844 140.652C214.664 139.933 214.412 139.174 214.369 138.434L214.541 138.246Z" fill="#FFD200"/>
<path d="M215.633 136.765C216.227 136.577 216.731 136.474 217.341 136.656C217.98 136.847 218.5 137.311 218.801 137.899C218.821 137.935 218.839 137.973 218.856 138.01C218.873 138.048 218.89 138.086 218.905 138.125C218.92 138.163 218.935 138.202 218.948 138.242C218.961 138.281 218.974 138.32 218.985 138.36C218.997 138.4 219.007 138.44 219.017 138.481C219.026 138.521 219.035 138.562 219.042 138.603C219.05 138.643 219.056 138.684 219.061 138.726C219.067 138.767 219.071 138.808 219.074 138.849C219.078 138.891 219.08 138.932 219.082 138.974C219.083 139.015 219.083 139.057 219.082 139.098C219.082 139.14 219.08 139.181 219.077 139.223C219.074 139.264 219.07 139.305 219.065 139.347C219.061 139.388 219.055 139.429 219.048 139.47C219.041 139.511 219.033 139.552 219.024 139.592C219.015 139.633 219.005 139.673 218.994 139.713C218.983 139.753 218.971 139.793 218.958 139.833C218.716 140.558 218.219 141 217.555 141.342C217.031 141.507 216.528 141.563 215.988 141.436C215.352 141.286 214.771 140.891 214.435 140.328C214.415 140.293 214.395 140.257 214.375 140.22C214.356 140.184 214.338 140.147 214.321 140.109C214.304 140.072 214.288 140.034 214.272 139.995C214.257 139.957 214.243 139.918 214.23 139.879C214.216 139.84 214.204 139.801 214.193 139.761C214.181 139.722 214.171 139.682 214.162 139.642C214.153 139.601 214.144 139.561 214.137 139.52C214.13 139.48 214.124 139.439 214.118 139.398C214.113 139.357 214.109 139.316 214.106 139.275C214.103 139.234 214.101 139.193 214.1 139.152C214.099 139.11 214.099 139.069 214.1 139.028C214.101 138.987 214.103 138.946 214.107 138.904C214.11 138.863 214.114 138.822 214.119 138.781C214.125 138.74 214.131 138.7 214.138 138.659C214.145 138.618 214.154 138.578 214.163 138.538C214.173 138.498 214.183 138.458 214.194 138.418C214.418 137.626 214.94 137.161 215.633 136.765Z" fill="#1AAEE0"/>
<path d="M222.922 135.534C223.447 134.942 224.069 134.507 224.884 134.461C224.925 134.459 224.966 134.458 225.007 134.458C225.048 134.458 225.089 134.459 225.13 134.461C225.171 134.463 225.211 134.466 225.252 134.47C225.293 134.474 225.334 134.479 225.374 134.485C225.414 134.491 225.455 134.498 225.495 134.507C225.535 134.515 225.575 134.524 225.614 134.534C225.654 134.544 225.693 134.555 225.733 134.567C225.772 134.579 225.81 134.592 225.849 134.606C225.887 134.62 225.925 134.635 225.963 134.651C226.001 134.667 226.038 134.684 226.075 134.701C226.111 134.719 226.148 134.738 226.184 134.757C226.22 134.777 226.255 134.797 226.29 134.819C226.325 134.84 226.359 134.862 226.393 134.885C226.426 134.908 226.459 134.932 226.492 134.957C226.524 134.981 226.556 135.007 226.588 135.033C226.619 135.059 226.649 135.086 226.679 135.114C226.711 135.143 226.742 135.173 226.772 135.203C226.803 135.234 226.832 135.265 226.861 135.297C226.89 135.329 226.918 135.361 226.945 135.395C226.972 135.428 226.998 135.462 227.024 135.497C227.049 135.532 227.074 135.567 227.097 135.603C227.121 135.639 227.144 135.675 227.166 135.712C227.187 135.749 227.208 135.787 227.228 135.825C227.248 135.863 227.267 135.901 227.285 135.94C227.303 135.979 227.32 136.019 227.336 136.059C227.352 136.099 227.367 136.139 227.381 136.179C227.395 136.22 227.408 136.261 227.42 136.302C227.432 136.343 227.443 136.385 227.453 136.427C227.463 136.469 227.471 136.511 227.479 136.553C227.487 136.595 227.494 136.638 227.499 136.68C227.505 136.723 227.51 136.765 227.513 136.808C227.516 136.851 227.519 136.894 227.52 136.937C227.541 137.555 227.332 138.172 226.904 138.626C226.436 139.121 225.734 139.414 225.055 139.434C224.405 139.453 223.797 139.216 223.286 138.828C222.972 138.501 222.726 138.134 222.586 137.7C222.339 136.935 222.567 136.222 222.922 135.534Z" fill="#1AAEE0"/>
<path d="M224.584 135.67C224.828 135.632 225.058 135.618 225.299 135.681C225.68 135.78 226.014 136.012 226.209 136.356C226.23 136.393 226.249 136.431 226.267 136.471C226.284 136.51 226.299 136.55 226.312 136.59C226.326 136.631 226.337 136.672 226.345 136.714C226.354 136.756 226.361 136.798 226.366 136.841C226.37 136.883 226.372 136.926 226.372 136.969C226.373 137.011 226.37 137.054 226.366 137.097C226.362 137.139 226.355 137.182 226.347 137.224C226.338 137.265 226.327 137.307 226.314 137.348C226.169 137.796 225.833 138.033 225.43 138.231C225.167 138.282 224.916 138.323 224.65 138.259C224.604 138.249 224.558 138.236 224.514 138.22C224.469 138.205 224.426 138.187 224.383 138.167C224.34 138.147 224.299 138.125 224.258 138.1C224.218 138.076 224.179 138.049 224.141 138.021C224.104 137.992 224.068 137.962 224.034 137.929C224 137.897 223.967 137.863 223.937 137.827C223.906 137.791 223.878 137.754 223.851 137.715C223.824 137.676 223.8 137.636 223.778 137.594C223.758 137.556 223.739 137.516 223.723 137.476C223.707 137.435 223.693 137.394 223.68 137.353C223.668 137.311 223.658 137.268 223.65 137.226C223.642 137.183 223.636 137.14 223.632 137.096C223.629 137.053 223.627 137.009 223.628 136.966C223.628 136.922 223.631 136.879 223.636 136.835C223.641 136.792 223.647 136.749 223.657 136.707C223.666 136.664 223.677 136.622 223.69 136.58C223.839 136.119 224.167 135.871 224.584 135.67Z" fill="white"/>
<path d="M215.969 137.819C216.298 137.725 216.604 137.659 216.947 137.743C217.449 137.866 217.702 138.231 217.955 138.642C217.955 138.807 217.951 138.974 217.931 139.138C217.87 139.639 217.625 139.929 217.244 140.228C217.01 140.308 216.763 140.376 216.514 140.364C216.466 140.361 216.418 140.356 216.371 140.349C216.323 140.341 216.276 140.331 216.23 140.319C216.183 140.307 216.138 140.292 216.093 140.275C216.048 140.258 216.004 140.239 215.962 140.217C215.919 140.195 215.877 140.171 215.837 140.146C215.797 140.119 215.758 140.091 215.721 140.062C215.683 140.031 215.648 140 215.614 139.966C215.58 139.932 215.548 139.897 215.517 139.86C215.491 139.826 215.466 139.792 215.442 139.756C215.419 139.72 215.397 139.683 215.378 139.646C215.358 139.608 215.34 139.569 215.325 139.529C215.309 139.49 215.295 139.449 215.283 139.408C215.271 139.367 215.262 139.326 215.254 139.284C215.247 139.242 215.241 139.199 215.238 139.157C215.234 139.114 215.233 139.072 215.234 139.029C215.235 138.986 215.238 138.944 215.243 138.901C215.302 138.405 215.589 138.104 215.969 137.819Z" fill="white"/>
</svg>
