<svg width="406" height="306" viewBox="0 0 406 306" fill="none" xmlns="http://www.w3.org/2000/svg">
<path d="M220.631 106.797C220.631 106.797 244.716 112.887 244.889 132.893C245.062 152.899 234.201 187.754 249.7 190.606C265.199 193.458 274.466 150.351 274.466 150.351L285.509 154.797C285.509 154.797 273.756 228.455 233.135 216.296C192.515 204.136 220.631 106.797 220.631 106.797Z" fill="#68E1FD"/>
<path opacity="0.44" d="M220.631 106.797C220.631 106.797 244.716 112.887 244.889 132.893C245.062 152.899 234.201 187.754 249.7 190.606C265.199 193.458 274.466 150.351 274.466 150.351L285.509 154.797C285.509 154.797 273.756 228.455 233.135 216.296C192.515 204.136 220.631 106.797 220.631 106.797Z" fill="white"/>
<path opacity="0.3" d="M205.314 249.618C293.862 249.618 365.644 243.051 365.644 234.951C365.644 226.851 293.862 220.284 205.314 220.284C116.767 220.284 44.9849 226.851 44.9849 234.951C44.9849 243.051 116.767 249.618 205.314 249.618Z" fill="#E6E6E6"/>
<path opacity="0.58" d="M77.6576 217.686C77.6576 217.686 67.2437 214.844 64.96 205.161C64.96 205.161 81.0883 201.903 81.5451 218.549L77.6576 217.686Z" fill="#68E1FD"/>
<path opacity="0.73" d="M78.9264 216.661C78.9264 216.661 71.659 205.161 78.0637 194.412C78.0637 194.412 90.3147 202.197 84.8743 216.681L78.9264 216.661Z" fill="#68E1FD"/>
<path d="M80.8042 216.661C80.8042 216.661 84.651 204.481 96.2626 202.228C96.2626 202.228 98.4347 210.104 88.7415 216.701L80.8042 216.661Z" fill="#68E1FD"/>
<path d="M73.2526 216.397L75.3638 230.83L88.6501 230.881L90.6091 216.468L73.2526 216.397Z" fill="#24285B"/>
<path d="M191.612 99.9258L200.239 101.712C200.239 101.712 239.723 105.965 241.326 128.254C242.93 150.544 220.631 207.485 220.631 207.485H160.807C160.807 207.485 112.868 94.0286 191.612 99.9258Z" fill="#68E1FD"/>
<path d="M192.644 91.478C195.264 91.8845 200.932 92.2382 203.582 92.1342L203.491 93.7135L203.133 99.6917C203.042 100.671 203.27 102.918 202.36 103.613C201.137 104.547 195.277 103.937 193.478 103.748C193.162 103.715 192.964 103.667 192.693 103.529C192.441 103.387 192.17 103.239 191.97 103.045C190.872 101.983 191.634 97.0276 191.729 95.4262C191.786 94.5109 191.499 92.4182 192.057 91.6654C192.188 91.4897 192.411 91.5137 192.644 91.478Z" fill="#FFD200"/>
<path d="M200.729 53.3597C200.343 53.0129 199.999 52.7473 199.94 52.1834C199.913 51.9198 199.98 51.6622 200.152 51.4612C200.508 51.0461 201.105 50.9084 201.619 50.9149C202.086 50.9206 202.7 51.0492 203.016 51.4368C203.183 51.6421 203.276 51.8582 203.257 52.1344C203.214 52.7611 202.759 53.1708 202.317 53.5306L202.156 56.352C202.141 56.7955 202.178 57.2152 201.925 57.5943C201.474 57.8482 201.037 57.7505 200.544 57.6539C200.53 57.2172 200.558 56.7741 200.569 56.337L200.729 53.3597Z" fill="#25285B"/>
<path d="M217.749 71.8494C218.598 71.8593 219.465 71.8327 220.309 71.9306C221.016 72.41 221.479 72.8197 221.929 73.5773C221.874 75.7533 221.728 77.9304 221.606 80.1034C221.538 81.3192 221.555 82.6375 221.333 83.8318C221.227 84.4016 221.033 85.1046 220.623 85.5196C219.704 86.4485 218.016 86.1606 216.854 86.1277C216.944 83.5792 217.128 81.0255 217.269 78.4789C217.391 76.2747 217.45 74.0371 217.749 71.8494Z" fill="#25285B"/>
<path d="M182.29 69.9855C182.944 69.195 183.156 67.705 183.505 66.7196C184.287 64.5113 185.939 62.1923 187.608 60.6369C191.319 57.1778 195.71 56.082 200.57 56.3367C200.558 56.7739 200.53 57.217 200.544 57.6537C200.363 57.3651 200.28 57.1227 199.925 57.0452C198.144 56.6562 194.863 58.7969 193.501 59.8615C189.825 62.7344 187.652 66.6677 187.019 71.3898C186.381 76.1448 185.692 84.0433 188.579 88.0547C189.956 89.967 191.522 90.4921 193.302 91.7062C193.461 91.8146 193.521 91.9414 193.57 92.1269C193.381 92.165 193.2 92.1434 193.092 92.3204C192.631 93.0787 192.842 95.167 192.786 96.0825L192.684 96.1205C192.682 94.7992 192.81 93.4548 192.884 92.1341C190.971 91.988 188.675 92.1919 186.839 91.6878C184.567 91.0636 183.203 88.8719 182.516 86.6827C182.3 85.9964 182.136 84.9703 181.76 84.3751C181.607 84.133 181.092 84.1049 180.818 84.0457C180.546 83.977 180.294 83.9104 180.085 83.7051C179.601 83.2292 179.333 82.4907 179.314 81.8073C179.264 80.0324 179.589 72.8083 179.931 71.2704C179.993 70.9937 180.087 70.7834 180.288 70.5845C180.868 70.0091 181.537 69.9715 182.29 69.9855Z" fill="#FFD200"/>
<path d="M182.29 69.9856C183.052 70.0524 183.698 70.0665 184.222 70.7244C184.577 71.1699 184.759 71.7118 184.812 72.2828C184.976 74.0626 184.517 77.0374 184.396 78.9126C184.326 79.9965 184.411 81.138 184.261 82.2076C184.179 82.7931 184.022 83.3623 183.532 83.718C182.785 84.2597 181.681 84.0868 180.818 84.0457C180.546 83.977 180.294 83.9105 180.085 83.7052C179.601 83.2292 179.333 82.4908 179.314 81.8073C179.264 80.0324 179.589 72.8084 179.931 71.2705C179.993 70.9938 180.087 70.7835 180.288 70.5846C180.868 70.0092 181.537 69.9715 182.29 69.9856Z" fill="#25285B"/>
<path d="M202.156 56.3518C206.525 56.8399 210.449 58.9291 213.214 62.4792C214.788 64.4995 216.027 67.0624 216.616 69.5882C216.735 70.1006 216.937 71.744 217.301 71.9337L217.749 71.8492C217.451 74.0369 217.391 76.2745 217.269 78.4787C217.128 81.0253 216.944 83.579 216.854 86.1275C216.414 88.4295 215.712 90.41 213.737 91.7925C210.33 94.1769 203.7 91.8569 202.434 92.667C200.284 92.7989 195.69 92.5054 193.57 92.1269C193.521 91.9414 193.461 91.8146 193.302 91.7063C191.522 90.4921 189.956 89.967 188.579 88.0547C185.692 84.0434 186.381 76.1448 187.019 71.3899C187.652 66.6677 189.825 62.7344 193.501 59.8615C194.863 58.7969 198.144 56.6563 199.925 57.0453C200.28 57.1227 200.363 57.3651 200.545 57.6537C201.037 57.7503 201.475 57.848 201.925 57.5941C202.178 57.215 202.142 56.7953 202.156 56.3518Z" fill="#FFE56E"/>
<path d="M191.88 71.3175C196.312 71.3557 200.802 71.7965 205.23 72.0407C207.036 72.1403 210.62 72.1082 212.184 72.4683C213.366 72.7402 214.186 73.8439 214.786 74.8473C215.009 76.6451 214.856 82.8138 214.112 84.3244C213.631 85.3005 212.953 85.7871 211.964 86.1161C209.004 86.1012 205.994 85.7896 203.036 85.6236C200.708 85.4931 192.216 85.3679 190.535 84.6734C189.87 84.3986 189.332 83.603 189.099 82.9253C188.65 81.6179 189.013 74.5519 189.588 73.2833C190.075 72.2071 190.849 71.713 191.88 71.3175Z" fill="#25285B"/>
<path d="M195.735 74.923C196.577 74.9192 197.268 74.9919 197.981 75.4881C198.728 76.0084 199.21 76.8425 199.36 77.7514C199.369 77.8085 199.378 77.8658 199.385 77.9233C199.392 77.9808 199.397 78.0385 199.401 78.0963C199.405 78.1541 199.408 78.212 199.409 78.2699C199.411 78.3278 199.411 78.3857 199.409 78.4437C199.408 78.5016 199.405 78.5595 199.401 78.6174C199.396 78.6751 199.391 78.7328 199.384 78.7904C199.377 78.8479 199.368 78.9053 199.358 78.9624C199.349 79.0195 199.338 79.0763 199.325 79.1328C199.313 79.1894 199.299 79.2456 199.283 79.3016C199.268 79.3574 199.252 79.4128 199.234 79.4679C199.216 79.5229 199.197 79.5775 199.176 79.6316C199.156 79.6857 199.134 79.7392 199.111 79.7921C199.088 79.8451 199.063 79.8975 199.038 79.9491C199.012 80.0009 198.985 80.052 198.957 80.1024C198.929 80.1527 198.9 80.2024 198.87 80.2513C198.839 80.3003 198.808 80.3484 198.775 80.3957C198.167 81.263 197.346 81.6454 196.35 81.8256C195.608 81.8282 194.936 81.6932 194.291 81.2997C193.532 80.8355 192.943 80.0668 192.739 79.1774C192.727 79.1213 192.716 79.0648 192.706 79.0081C192.696 78.9515 192.688 78.8946 192.681 78.8375C192.674 78.7803 192.669 78.723 192.665 78.6657C192.661 78.6082 192.658 78.5507 192.657 78.4932C192.655 78.4356 192.655 78.3781 192.657 78.3205C192.659 78.2629 192.662 78.2054 192.666 78.1479C192.67 78.0905 192.676 78.0333 192.683 77.9761C192.691 77.919 192.699 77.8621 192.709 77.8054C192.719 77.7487 192.73 77.6923 192.743 77.6362C192.756 77.58 192.77 77.5243 192.786 77.4689C192.801 77.4135 192.818 77.3585 192.836 77.304C192.854 77.2495 192.874 77.1955 192.895 77.142C192.916 77.0885 192.938 77.0355 192.961 76.983C192.985 76.9307 193.009 76.8789 193.035 76.8278C193.061 76.7767 193.088 76.7263 193.117 76.6766C193.145 76.6269 193.175 76.5779 193.206 76.5297C193.816 75.5668 194.679 75.1628 195.735 74.923Z" fill="#1AAEE0"/>
<path d="M205.638 76.3103C206.556 75.7388 207.535 75.4173 208.606 75.6938C208.66 75.7082 208.713 75.7239 208.766 75.7409C208.819 75.758 208.871 75.7764 208.923 75.7962C208.975 75.8158 209.026 75.8369 209.077 75.8593C209.128 75.8817 209.178 75.9054 209.228 75.9304C209.278 75.9553 209.327 75.9815 209.375 76.009C209.424 76.0365 209.471 76.0652 209.518 76.0951C209.565 76.1251 209.612 76.1562 209.657 76.1886C209.703 76.2209 209.747 76.2543 209.791 76.2889C209.835 76.3235 209.878 76.3592 209.92 76.396C209.962 76.4329 210.003 76.4708 210.044 76.5097C210.084 76.5486 210.123 76.5886 210.161 76.6295C210.2 76.6705 210.237 76.7125 210.273 76.7553C210.31 76.7982 210.345 76.842 210.379 76.8867C210.413 76.9313 210.446 76.9769 210.478 77.0233C210.51 77.0697 210.541 77.1168 210.57 77.1648C210.6 77.2128 210.628 77.2615 210.656 77.311C210.685 77.3628 210.713 77.4153 210.74 77.4686C210.766 77.5219 210.792 77.5759 210.816 77.6305C210.84 77.6851 210.863 77.7403 210.884 77.7961C210.905 77.8517 210.925 77.908 210.944 77.9649C210.963 78.0217 210.98 78.0789 210.996 78.1366C211.012 78.1942 211.026 78.2523 211.039 78.3107C211.053 78.3692 211.064 78.4279 211.074 78.487C211.085 78.546 211.093 78.6053 211.101 78.6648C211.108 78.7243 211.114 78.7839 211.118 78.8437C211.123 78.9036 211.126 78.9635 211.127 79.0235C211.129 79.0834 211.129 79.1434 211.127 79.2034C211.126 79.2633 211.123 79.3232 211.119 79.3831C211.115 79.443 211.109 79.5027 211.102 79.5622C211.095 79.6218 211.086 79.6811 211.076 79.7403C211.066 79.7994 211.054 79.8582 211.041 79.9167C211.028 79.9754 211.014 80.0336 210.998 80.0913C210.774 80.9242 210.253 81.6595 209.515 82.0875C208.711 82.554 207.686 82.6517 206.802 82.3967C205.956 82.1529 205.268 81.5836 204.767 80.8539C204.495 80.2867 204.328 79.6954 204.323 79.0589C204.316 77.9364 204.9 77.0801 205.638 76.3103Z" fill="#1AAEE0"/>
<path d="M207.727 77.183C208.057 77.233 208.359 77.3092 208.645 77.4939C209.095 77.7845 209.432 78.2331 209.543 78.7725C209.555 78.8309 209.564 78.8897 209.571 78.949C209.577 79.0084 209.581 79.068 209.581 79.1278C209.582 79.1875 209.579 79.247 209.573 79.3065C209.568 79.366 209.559 79.4251 209.548 79.4837C209.536 79.5424 209.522 79.6003 209.505 79.6573C209.487 79.7144 209.467 79.7705 209.444 79.8255C209.421 79.8804 209.396 79.934 209.367 79.9864C209.339 80.0386 209.308 80.0893 209.275 80.1383C208.905 80.6757 208.376 80.8519 207.776 80.9485C207.415 80.9083 207.075 80.8577 206.757 80.6626C206.702 80.6293 206.649 80.5931 206.598 80.554C206.547 80.5148 206.497 80.473 206.45 80.4285C206.403 80.384 206.359 80.337 206.317 80.2876C206.275 80.2382 206.235 80.1866 206.199 80.1329C206.162 80.0792 206.128 80.0237 206.097 79.9664C206.066 79.9089 206.038 79.85 206.013 79.7894C205.989 79.729 205.967 79.6674 205.949 79.6044C205.93 79.5416 205.915 79.4779 205.903 79.4134C205.893 79.3535 205.885 79.2932 205.881 79.2326C205.876 79.1719 205.875 79.1112 205.876 79.0505C205.877 78.9896 205.881 78.929 205.889 78.8686C205.896 78.8081 205.906 78.7482 205.918 78.6887C205.931 78.6293 205.947 78.5707 205.965 78.5129C205.984 78.455 206.005 78.3981 206.029 78.3424C206.053 78.2867 206.079 78.2323 206.108 78.1792C206.137 78.126 206.169 78.0745 206.203 78.0246C206.583 77.4714 207.106 77.2768 207.727 77.183Z" fill="white"/>
<path d="M195.74 76.4679C196.202 76.4789 196.624 76.5182 197.031 76.7724C197.629 77.1449 197.807 77.7382 197.966 78.3902C197.899 78.6111 197.826 78.8311 197.733 79.0424C197.45 79.6846 197.016 79.9699 196.404 80.2097C196.07 80.2197 195.723 80.2083 195.406 80.0878C195.345 80.0645 195.286 80.038 195.228 80.0084C195.17 79.9787 195.113 79.946 195.058 79.9102C195.003 79.8746 194.951 79.836 194.9 79.7946C194.849 79.7531 194.8 79.7091 194.754 79.6624C194.707 79.6158 194.664 79.5668 194.622 79.5155C194.581 79.464 194.542 79.4106 194.506 79.3551C194.47 79.2996 194.437 79.2422 194.407 79.1831C194.377 79.124 194.35 79.0635 194.326 79.0015C194.305 78.946 194.287 78.8896 194.271 78.8322C194.256 78.7748 194.243 78.7167 194.233 78.658C194.223 78.5993 194.216 78.5402 194.212 78.4808C194.208 78.4213 194.207 78.3618 194.208 78.3021C194.21 78.2426 194.214 78.1832 194.221 78.124C194.229 78.0648 194.239 78.0061 194.252 77.9479C194.265 77.8898 194.281 77.8324 194.299 77.7759C194.318 77.7193 194.339 77.6639 194.363 77.6094C194.641 76.9724 195.134 76.69 195.74 76.4679Z" fill="white"/>
<path opacity="0.09" d="M186.445 120.571C186.445 120.571 191.267 134.497 178.62 143.581C165.973 152.665 172.144 186.871 185.989 192.392C199.833 197.914 177.331 209.728 167.719 204.887C158.107 200.045 156.787 196.767 156.787 196.767C156.787 196.767 147.886 171.037 146.942 154.624C145.998 138.212 186.445 120.571 186.445 120.571Z" fill="black"/>
<path d="M160.806 207.485C160.806 207.485 127.129 195.508 114.837 200.624C102.545 205.739 109.498 229.571 149.58 230.749C189.663 231.926 248.979 238.473 260.743 223.979C272.507 209.485 228.141 201.72 160.806 207.485Z" fill="#24285B"/>
<path d="M186.445 120.571C186.445 108.32 174.032 99.946 162.38 103.773C152.23 107.092 139.897 113.253 132.397 124.519C117.963 146.159 84.9961 209.424 168.683 211.86L171.139 202.542C171.139 202.542 120.907 188.647 143.115 159.252C160.37 136.395 186.496 137.927 186.445 120.571Z" fill="#68E1FD"/>
<path opacity="0.44" d="M186.445 120.571C186.445 108.32 174.032 99.946 162.38 103.773C152.23 107.092 139.897 113.253 132.397 124.519C117.963 146.159 84.9961 209.424 168.683 211.86L171.139 202.542C171.139 202.542 120.907 188.647 143.115 159.252C160.37 136.395 186.496 137.927 186.445 120.571Z" fill="white"/>
<path d="M169.008 213.768H210.633L220.631 168.875H162.593L169.008 213.768Z" fill="#FFD200"/>
<path d="M277.095 151.386C277.095 151.386 277.724 140.728 281.997 137.694C286.271 134.659 285.56 142.332 285.56 142.332C285.56 142.332 289.833 137.338 293.396 139.663C296.959 141.987 285.56 154.796 285.56 154.796L277.095 151.386Z" fill="#F4A28C"/>
<path d="M316.359 105.284L279.704 95.1045L266.643 142.136L303.298 152.315L316.359 105.284Z" fill="#E6E6E6"/>
<path d="M303.594 127.123L279.359 120.393L274.403 138.241L298.637 144.971L303.594 127.123Z" fill="#C1C1C1"/>
<path opacity="0.24" d="M308.249 110.116L301.364 108.204L298.029 120.213L304.914 122.125L308.249 110.116Z" fill="#C1C1C1"/>
<path d="M190.587 192.392C192.874 192.392 194.728 190.538 194.728 188.251C194.728 185.964 192.874 184.11 190.587 184.11C188.299 184.11 186.445 185.964 186.445 188.251C186.445 190.538 188.299 192.392 190.587 192.392Z" fill="white"/>
<path d="M162.593 223.116C162.593 223.116 145.612 230.475 150.088 234.951C154.564 239.427 166.034 231.429 166.034 231.429L162.593 223.116Z" fill="#68E1FD"/>
<path d="M215.728 224.984C215.728 224.984 232.709 232.332 228.223 236.809C223.736 241.285 212.277 233.287 212.277 233.287L215.728 224.984Z" fill="#68E1FD"/>
<path d="M289.387 117.039C292.929 117.039 295.802 114.167 295.802 110.624C295.802 107.081 292.929 104.209 289.387 104.209C285.844 104.209 282.972 107.081 282.972 110.624C282.972 114.167 285.844 117.039 289.387 117.039Z" fill="#C1C1C1"/>
<path d="M290.99 131.736C292.123 131.736 293.041 130.818 293.041 129.686C293.041 128.553 292.123 127.635 290.99 127.635C289.858 127.635 288.94 128.553 288.94 129.686C288.94 130.818 289.858 131.736 290.99 131.736Z" fill="#E6E6E6"/>
<path d="M277.044 136.009L285.509 127.635L287.834 136.74L294.035 133.34L297.09 141.703L277.044 136.009Z" fill="#E6E6E6"/>
<path d="M319.847 191.316H279.602V231.571H319.847V191.316Z" fill="#C1C1C1"/>
<path d="M342.847 191.316H302.602V231.571H342.847V191.316Z" fill="#E6E6E6"/>
</svg>
