<svg width="406" height="306" viewBox="0 0 406 306" fill="none" xmlns="http://www.w3.org/2000/svg">
<path opacity="0.45" d="M205.903 277.165C301.48 277.165 378.96 271.085 378.96 263.584C378.96 256.084 301.48 250.003 205.903 250.003C110.326 250.003 32.8455 256.084 32.8455 263.584C32.8455 271.085 110.326 277.165 205.903 277.165Z" fill="#E6E6E6"/>
<path d="M109.681 248.41C109.681 248.41 109.742 252.409 112.858 253.789C115.974 255.17 115.74 258.6 112.574 258.428C109.407 258.255 103.215 251.962 103.215 251.962L105.56 246.177L109.681 248.41Z" fill="#68E1FD"/>
<path d="M97.4399 206.409C97.4399 206.409 116.065 207.231 114.035 219.868C112.005 232.505 103.784 246.177 103.784 246.177L110.95 249.171C110.95 249.171 125.16 232.85 126.55 212.712C127.941 192.575 99.3887 197.071 97.4399 206.409Z" fill="#24285B"/>
<path opacity="0.08" d="M97.4399 206.409C97.4399 206.409 116.065 207.231 114.035 219.868C112.005 232.505 103.784 246.177 103.784 246.177L110.95 249.171C110.95 249.171 125.16 232.85 126.55 212.712C127.941 192.575 99.3887 197.071 97.4399 206.409Z" fill="black"/>
<path d="M84.5597 129.98C77.7998 124.753 67.6295 127.432 64.7976 135.501C63.9274 138.013 63.9025 140.74 64.7266 143.266C67.9441 153.589 73.0191 167.626 91.959 172.701C110.899 177.776 126.814 181.572 128.337 174.924C129.859 168.276 125.627 159.821 110.067 154.624C98.993 150.869 93.1567 136.618 84.5597 129.98Z" fill="#68E1FD"/>
<path opacity="0.08" d="M84.5597 129.98C77.7998 124.753 67.6295 127.432 64.7976 135.501C63.9274 138.013 63.9025 140.74 64.7266 143.266C67.9441 153.589 73.0191 167.626 91.959 172.701C110.899 177.776 126.814 181.572 128.337 174.924C129.859 168.276 125.627 159.821 110.067 154.624C98.993 150.869 93.1567 136.618 84.5597 129.98Z" fill="black"/>
<path d="M124.652 249.283C124.652 249.283 124.652 253.282 127.829 254.662C131.006 256.043 130.712 259.473 127.535 259.301C124.358 259.128 118.187 252.835 118.187 252.835L120.481 247.04L124.652 249.283Z" fill="#68E1FD"/>
<path d="M319.029 173.746L281.612 161.398C281.612 161.398 269.934 157.758 270.303 164.048C270.672 170.337 281.875 167.723 281.875 167.723C281.875 167.723 309.976 191.125 318.06 184.579C326.143 178.032 319.029 173.746 319.029 173.746Z" fill="#F4A28C"/>
<path d="M261.19 170.591C259.933 169.973 259.006 168.987 258.483 167.682C258.426 167.541 258.374 167.398 258.329 167.252C258.283 167.107 258.243 166.96 258.21 166.812C258.176 166.663 258.149 166.513 258.127 166.362C258.106 166.211 258.091 166.06 258.082 165.908C258.036 165.073 258.445 157.7 258.63 157.261C259.204 157.098 264.402 157.542 265.463 157.614C265.236 157.63 265.022 157.613 264.797 157.592C264.578 161.972 264.323 166.35 264.032 170.725C264.087 170.768 264.122 170.795 264.187 170.82C263.211 170.778 262.142 170.803 261.19 170.591Z" fill="#60CFE9"/>
<path d="M265.462 157.614L268.724 157.789C269.294 157.823 269.918 157.816 270.476 157.935C270.712 157.985 270.917 158.052 271.096 158.221C271.303 158.656 271.174 159.308 271.136 159.778L275.647 160.055C275.555 161.551 275.474 163.048 275.404 164.546C275.364 165.319 275.422 166.301 275.194 167.04C275.167 167.125 275.135 167.209 275.097 167.29C275.059 167.371 275.015 167.449 274.966 167.524C274.918 167.599 274.864 167.67 274.805 167.738C274.746 167.805 274.683 167.869 274.616 167.927C273.636 168.794 271.58 168.375 270.364 168.289C269.719 169.486 268.759 170.476 267.46 170.955C266.508 171.111 265.168 170.89 264.187 170.82C264.122 170.795 264.087 170.768 264.032 170.725C264.323 166.35 264.578 161.972 264.797 157.592C265.022 157.613 265.236 157.63 265.462 157.614Z" fill="#68E1FD"/>
<path d="M266.58 148.408C266.735 148.439 266.901 148.502 267.015 148.615C267.647 149.243 266.57 150.445 266.527 151.153C266.471 152.072 267.41 152.848 267.382 153.805C267.362 154.487 266.845 154.876 266.599 155.463C266.353 156.054 266.656 156.507 266.129 157.017C266.087 157.017 266.044 157.017 266.001 157.015C265.808 157.006 265.701 156.961 265.575 156.812C264.852 155.955 266.213 154.519 266.253 153.649C266.295 152.714 265.324 152.198 265.488 150.899C265.569 150.262 265.86 149.797 266.102 149.226C266.174 149.055 266.183 148.839 266.278 148.684C266.343 148.578 266.483 148.483 266.58 148.408Z" fill="#A5A5A5"/>
<path d="M263.424 148.233C263.586 148.247 263.761 148.256 263.905 148.34C264.581 148.739 263.598 149.893 263.497 150.42C263.302 151.437 264.063 152.087 264.246 152.983C264.415 153.818 263.875 154.531 263.431 155.176C263.412 155.444 263.43 155.689 263.448 155.956C263.474 156.334 263.505 156.598 263.24 156.902C263.175 156.917 263.111 156.931 263.045 156.938C262.896 156.954 262.76 156.899 262.646 156.804C262.415 156.612 262.378 156.288 262.371 156.007C262.362 155.656 262.375 155.301 262.475 154.963C262.596 154.556 263.254 153.564 263.19 153.228C263.187 153.209 263.181 153.191 263.177 153.172C263.014 152.43 262.509 151.825 262.394 151.059C262.241 150.034 262.827 149.023 263.424 148.233Z" fill="#A5A5A5"/>
<path opacity="0.08" d="M319.029 173.746L281.612 161.398C281.612 161.398 269.934 157.758 270.303 164.048C270.672 170.337 281.875 167.723 281.875 167.723C281.875 167.723 309.976 191.125 318.06 184.579C326.143 178.032 319.029 173.746 319.029 173.746Z" fill="black"/>
<path d="M290.463 218.528L318.7 249.273L322.598 247.588L301.293 209.738L290.463 218.528Z" fill="#F4A28C"/>
<path d="M318.182 248.491C318.182 248.491 318.182 252.318 315.645 254.053C313.107 255.789 315.421 259.453 319.015 256.083C320.123 255.056 321.142 253.935 322.06 252.734C322.946 251.655 324.101 250.828 325.409 250.338C325.653 250.227 325.856 250.044 325.992 249.813C326.128 249.583 326.19 249.316 326.17 249.049C326.282 246.918 321.298 246.004 321.298 246.004L318.182 248.491Z" fill="#68E1FD"/>
<path d="M308.753 191.103C308.753 191.103 269.32 190.809 275.035 214.154C276.588 220.866 279.616 227.149 283.897 232.548C288.179 237.946 293.608 242.324 299.79 245.365L314 219.31L306.185 196.645L308.753 191.103Z" fill="#24285B"/>
<path opacity="0.08" d="M308.753 191.103C308.753 191.103 269.32 190.809 275.035 214.154C276.588 220.866 279.616 227.149 283.897 232.548C288.179 237.946 293.608 242.324 299.79 245.365L314 219.31L306.185 196.645L308.753 191.103Z" fill="black"/>
<path d="M330.961 212.042H326.759V248.288H330.961V212.042Z" fill="#C9C9C9"/>
<path d="M342.786 124.184C342.786 124.184 346.653 103.458 365.258 112.836C378.971 119.749 365.573 174.873 357.584 203.385C356.212 208.263 353.282 212.558 349.241 215.617C345.201 218.675 340.271 220.328 335.204 220.325H308.966C300.937 220.325 299.506 208.886 307.281 206.907L307.738 206.795C312.265 205.78 317.573 204.927 322.405 204.288C326.494 203.761 330.277 201.841 333.116 198.852C335.956 195.863 337.679 191.986 337.995 187.875L342.786 124.184Z" fill="#E6E6E6"/>
<path d="M324.14 104.503C324.121 106.825 324.411 109.14 325.003 111.385C325.092 111.646 325.232 111.888 325.414 112.095C325.597 112.302 325.818 112.471 326.066 112.593C326.314 112.715 326.584 112.786 326.859 112.804C327.135 112.821 327.411 112.784 327.673 112.694C328.531 112.455 329.303 111.974 329.895 111.308C330.487 110.642 330.875 109.82 331.012 108.939L331.976 105.214C332.092 104.447 331.966 103.663 331.617 102.97C331.268 102.277 330.713 101.71 330.027 101.347C327.551 99.8445 324.039 101.966 324.14 104.503Z" fill="#F4A28C"/>
<path d="M332.595 107.417L333.773 121.038L326.221 121.16L328.342 111.446L332.595 107.417Z" fill="#F4A28C"/>
<path d="M324.252 107.132L323.237 108.827C323.178 108.924 323.145 109.033 323.139 109.146C323.134 109.258 323.157 109.37 323.207 109.471C323.257 109.573 323.331 109.66 323.423 109.724C323.515 109.789 323.622 109.83 323.734 109.842L325.348 110.015L324.252 107.132Z" fill="#F4A28C"/>
<path opacity="0.31" d="M328.281 111.72C329.188 111.547 330.03 111.129 330.717 110.512C330.717 110.512 331.255 113.456 327.672 114.501L328.281 111.72Z" fill="#CE8172"/>
<path d="M283.835 212.042V253.779L287.854 255.17L297.76 212.885L283.835 212.042Z" fill="#F4A28C"/>
<path d="M283.987 252.855C283.987 252.855 281.358 255.647 278.354 255.241C275.349 254.835 274.527 259.067 279.43 259.047C280.953 259.046 282.475 258.917 283.977 258.661C285.35 258.469 286.75 258.641 288.037 259.159C288.292 259.241 288.566 259.245 288.823 259.169C289.081 259.093 289.309 258.94 289.478 258.732C290.99 257.23 287.925 253.201 287.925 253.201L283.987 252.855Z" fill="#68E1FD"/>
<path d="M332.311 107.457C332.311 107.457 332.209 105.853 333.427 105.884C334.645 105.914 334.788 108.228 333.164 108.573L332.311 107.457Z" fill="#F4A28C"/>
<path d="M324.993 104.28C326.321 104.496 327.674 104.496 329.002 104.28C329.002 104.28 329.855 108.908 333.529 110.076C333.529 110.076 337.01 103.153 332.737 100.474C329.164 98.2306 326.495 96.2412 323.552 98.9107C323.126 99.2969 322.816 99.7929 322.654 100.344C322.492 100.895 322.486 101.48 322.634 102.035C322.783 102.59 323.082 103.093 323.498 103.489C323.914 103.885 324.431 104.159 324.993 104.28Z" fill="#24285B"/>
<path d="M335.123 102.615C337.415 102.615 339.274 100.757 339.274 98.4638C339.274 96.1711 337.415 94.3125 335.123 94.3125C332.83 94.3125 330.971 96.1711 330.971 98.4638C330.971 100.757 332.83 102.615 335.123 102.615Z" fill="#24285B"/>
<path d="M328.931 106.675C328.931 106.675 329.114 104.818 330.596 105.112C332.078 105.407 332.057 107.568 330.19 108.421L328.931 106.675Z" fill="#F4A28C"/>
<path d="M325.693 123.322L333.072 121.2C333.072 121.2 352.773 123.322 352.57 139.125C352.418 150.838 338.746 194.615 338.746 194.615H308.753V179.197C308.819 171.9 307.109 164.696 303.769 158.207C299.131 149.417 296.705 134.121 325.693 123.322Z" fill="#68E1FD"/>
<path d="M320.111 142.109C321.318 128.224 340.969 126.498 344.765 139.906C346.795 147.011 347.81 157.263 345.475 171.686C339.883 206.46 272.893 183.866 272.893 183.866V175.624C272.893 175.624 312.478 183.074 321.988 172.924C327.581 166.976 319.136 153.345 320.111 142.109Z" fill="#68E1FD"/>
<path d="M308.753 187.409L338.746 194.615C338.746 194.615 340.198 207.556 329.763 208.571C319.329 209.586 287.357 206.034 299.79 245.365H275.065C275.065 245.365 260.033 203.101 296.776 194.615C301.232 193.6 308.702 192.748 308.773 188.17L308.753 187.409Z" fill="#24285B"/>
<path d="M174.58 110.888C168.542 114.538 163.491 119.613 159.869 125.668C156.247 131.724 154.164 138.574 153.803 145.621C152.524 168.661 154.615 193.377 183.817 190.606C213.018 187.835 174.58 110.888 174.58 110.888Z" fill="#68E1FD"/>
<path opacity="0.08" d="M174.58 110.888C168.542 114.538 163.491 119.613 159.869 125.668C156.247 131.724 154.164 138.574 153.803 145.621C152.524 168.661 154.615 193.377 183.817 190.606C213.018 187.835 174.58 110.888 174.58 110.888Z" fill="black"/>
<path d="M184.212 107.081C184.212 107.081 221.96 98.6262 235.48 106.208C249 113.79 222.468 185.226 222.468 185.226L180.782 183.907C180.782 183.907 144.313 114.338 184.212 107.081Z" fill="#68E1FD"/>
<path d="M192.647 252.308C192.647 252.308 190.698 255.809 187.298 255.545C183.898 255.282 182.487 258.418 185.359 259.768C188.232 261.118 196.656 258.499 196.656 258.499L197.377 252.308H192.647Z" fill="#68E1FD"/>
<path d="M223.178 251.536C223.178 251.536 224.559 255.292 227.969 255.545C231.38 255.799 232.283 259.128 229.238 260.021C226.193 260.915 218.225 257.037 218.225 257.037L218.459 250.815L223.178 251.536Z" fill="#68E1FD"/>
<path opacity="0.08" d="M216.987 112.836C216.987 112.836 205.03 120.52 211.12 138.201C217.21 155.883 218.174 168.509 203.853 164.084C189.531 159.658 190.576 139.896 190.576 139.896L175.971 142.16L174.58 170.194L180.782 183.907L216.987 181.633L231.745 177.867L237.246 159.374L227.228 128.041L216.987 112.836Z" fill="black"/>
<path d="M180.782 183.907L191.449 252.308H198.412C198.412 252.308 191.957 200.867 203.234 194.656C214.51 188.444 216.723 252.308 216.723 252.308L224.122 251.719L224.031 181.197L180.782 183.907Z" fill="#24285B"/>
<path d="M224.315 103.966C224.315 103.966 247.802 100.007 247.802 136.963C247.802 173.919 242.159 206.805 187.917 173.848L192.038 167.555C192.038 167.555 221.27 180.405 227.512 169.118C233.754 157.832 203.122 110.228 224.315 103.966Z" fill="#68E1FD"/>
<path opacity="0.46" d="M224.315 103.966C224.315 103.966 247.802 100.007 247.802 136.963C247.802 173.919 242.159 206.805 187.917 173.848L192.038 167.555C192.038 167.555 221.27 180.405 227.512 169.118C233.754 157.832 203.122 110.228 224.315 103.966Z" fill="white"/>
<path d="M181.417 136.832L161.534 141.834L169.019 171.59L188.903 166.589L181.417 136.832Z" fill="#FFD200"/>
<path d="M192.109 167.555C192.109 167.555 182.324 159.8 180.782 165.728C179.239 171.656 189.399 171.686 189.399 171.686L192.109 167.555Z" fill="#F4A28C"/>
<path d="M248.827 70.2555C262.118 70.2555 272.893 61.2896 272.893 50.2296C272.893 39.1695 262.118 30.2036 248.827 30.2036C235.536 30.2036 224.761 39.1695 224.761 50.2296C224.761 61.2896 235.536 70.2555 248.827 70.2555Z" fill="#24285B"/>
<path d="M232.039 59.3745L223.472 73.9499L237.581 63.4853L232.039 59.3745Z" fill="#24285B"/>
<path d="M239.347 53.2033C240.989 53.2033 242.321 51.8718 242.321 50.2293C242.321 48.5869 240.989 47.2554 239.347 47.2554C237.705 47.2554 236.373 48.5869 236.373 50.2293C236.373 51.8718 237.705 53.2033 239.347 53.2033Z" fill="white"/>
<path d="M248.878 53.2033C250.52 53.2033 251.852 51.8718 251.852 50.2293C251.852 48.5869 250.52 47.2554 248.878 47.2554C247.235 47.2554 245.904 48.5869 245.904 50.2293C245.904 51.8718 247.235 53.2033 248.878 53.2033Z" fill="white"/>
<path d="M258.307 53.2033C259.95 53.2033 261.281 51.8718 261.281 50.2293C261.281 48.5869 259.95 47.2554 258.307 47.2554C256.665 47.2554 255.333 48.5869 255.333 50.2293C255.333 51.8718 256.665 53.2033 258.307 53.2033Z" fill="white"/>
<path d="M82.9661 248.278H87.1682V212.032H82.9661V248.278Z" fill="#C9C9C9"/>
<path d="M71.1413 124.184C71.1413 124.184 67.2742 103.458 48.72 112.836C35.0073 119.749 48.4053 174.873 56.3934 203.385C57.7659 208.263 60.6958 212.558 64.7363 215.617C68.7769 218.675 73.7066 220.328 78.7741 220.325H105.012C113.041 220.325 114.472 208.886 106.697 206.907L106.24 206.795C101.713 205.78 96.4047 204.927 91.5733 204.288C87.4895 203.755 83.7138 201.832 80.8803 198.843C78.0468 195.855 76.3282 191.982 76.0133 187.875L71.1413 124.184Z" fill="#E6E6E6"/>
<path d="M87.1682 248.288L102.21 260.153H68.7155L82.9559 248.288H87.1682Z" fill="#C9C9C9"/>
<path d="M84.722 97.0533C85.2603 99.6693 85.448 102.345 85.2803 105.011C85.1874 105.64 84.849 106.207 84.3392 106.587C83.8294 106.968 83.1897 107.131 82.5601 107.041C81.5382 106.962 80.5606 106.59 79.7436 105.971C78.9267 105.352 78.3048 104.512 77.952 103.549L76.0336 99.5604C75.7323 98.719 75.7004 97.8047 75.9423 96.9444C76.1842 96.0841 76.6879 95.3204 77.3836 94.7594C79.8399 92.5569 84.245 94.1301 84.722 97.0533Z" fill="#F4A28C"/>
<path d="M76.3788 100.321L75.7596 116.033L84.4379 115.759L81.4132 104.442L76.3788 100.321Z" fill="#F4A28C"/>
<path d="M83.565 97.3983C82.1117 97.626 80.6372 97.6873 79.17 97.581C79.6722 98.1769 79.9889 98.9068 80.0809 99.6806C80.1729 100.454 80.0362 101.238 79.6877 101.935C79.3629 102.618 78.8105 103.167 78.1253 103.488C77.44 103.808 76.6647 103.88 75.9322 103.691L75.2927 97.6013C75.1675 96.7281 75.2817 95.8373 75.6232 95.0239C75.9646 94.2106 76.5204 93.5052 77.2314 92.983C77.8492 92.5151 78.4968 92.0879 79.17 91.7041C80.8448 90.7805 83.5751 91.7041 85.0063 90.273C85.1528 90.1367 85.3318 90.0404 85.5262 89.9933C85.7205 89.9462 85.9238 89.9498 86.1164 90.0038C86.309 90.0578 86.4844 90.1604 86.626 90.3017C86.7675 90.4431 86.8704 90.6184 86.9246 90.8109C87.422 92.6481 87.4321 95.6119 85.0367 96.9009C84.5773 97.1475 84.0799 97.3156 83.565 97.3983Z" fill="#24285B"/>
<path d="M80.185 101.733C80.185 101.733 79.9313 99.9055 78.5712 100.21C77.2111 100.515 77.5562 103.164 79.4644 103.184L80.185 101.733Z" fill="#F4A28C"/>
<path d="M85.189 100.047L86.7318 101.722C86.8199 101.818 86.8824 101.934 86.9136 102.06C86.9448 102.186 86.9436 102.318 86.9102 102.443C86.8768 102.569 86.8122 102.684 86.7225 102.778C86.6327 102.872 86.5207 102.942 86.3969 102.981L84.6206 103.539L85.189 100.047Z" fill="#F4A28C"/>
<path opacity="0.31" d="M82.215 106.889C81.0903 106.759 80.03 106.296 79.17 105.559C79.17 105.559 79.6369 108.401 83.1082 110.847L82.215 106.889Z" fill="#CE8172"/>
<path d="M75.7596 116.034L84.4378 115.76C84.4378 115.76 103.489 119.82 108.158 144.007C112.827 168.195 99.47 189.824 99.47 189.824L72.065 190.068C72.065 190.068 35.728 120.124 75.7596 116.034Z" fill="#68E1FD"/>
<path d="M72.0649 190.068C72.0649 190.068 72.4303 205.78 83.0675 207.13C93.7047 208.48 118.065 200.299 121.11 213.565C124.155 226.831 118.065 247.923 118.065 247.923L125.484 249.953C125.484 249.953 142.151 218.062 132.336 202.938C122.521 187.815 99.5004 189.743 99.5004 189.743L72.0649 190.068Z" fill="#24285B"/>
<path opacity="0.08" d="M69.02 133.471C69.02 133.471 62.0571 152.929 74.095 163.495C86.1329 174.061 93.0451 175.33 86.9348 190.068L99.47 189.824C99.47 189.824 106.057 177.847 107.387 169.362C108.717 160.876 69.02 133.471 69.02 133.471Z" fill="black"/>
<path d="M89.4621 123.9C82.7022 118.673 72.5319 121.352 69.7001 129.421C68.8299 131.933 68.8049 134.659 69.629 137.186C72.8466 147.509 77.9216 161.546 96.8716 166.621C115.822 171.696 131.717 175.492 133.239 168.854C134.762 162.216 130.529 153.751 114.969 148.554C103.906 144.788 98.0592 130.538 89.4621 123.9Z" fill="#68E1FD"/>
<path opacity="0.46" d="M89.4621 123.9C82.7022 118.673 72.5319 121.352 69.7001 129.421C68.8299 131.933 68.8049 134.659 69.629 137.186C72.8466 147.509 77.9216 161.546 96.8716 166.621C115.822 171.696 131.717 175.492 133.239 168.854C134.762 162.216 130.529 153.751 114.969 148.554C103.906 144.788 98.0592 130.538 89.4621 123.9Z" fill="white"/>
<path d="M111.782 147.093C111.782 147.093 117.03 143.216 121.09 147.093C125.15 150.97 117.111 156.543 111.782 147.093Z" fill="#F4A28C"/>
<path opacity="0.08" d="M323.612 134.344C323.612 134.344 308.986 139.632 314 157.395C319.014 175.157 308.743 177.867 308.743 177.867L321.988 190.819L338.746 194.615L343.994 176.944L323.612 134.344Z" fill="black"/>
<path d="M137.309 192.321H130.488V260.59H137.309V192.321Z" fill="#A5A5A5"/>
<path d="M278.445 192.321H271.624V260.59H278.445V192.321Z" fill="#A5A5A5"/>
<path d="M284.748 181.623H123.607V199.599H284.748V181.623Z" fill="#E6E6E6"/>
<path d="M320.111 142.109C321.318 128.224 340.969 126.498 344.765 139.906C346.795 147.011 347.81 157.263 345.475 171.686C339.883 206.46 272.893 183.866 272.893 183.866V175.624C272.893 175.624 312.478 183.074 321.988 172.924C327.581 166.976 319.136 153.345 320.111 142.109Z" fill="#F4A28C"/>
<path d="M272.893 175.665C272.893 175.665 264.204 171.442 261.474 174.822C258.744 178.202 261.9 183.277 272.893 183.907V175.665Z" fill="#F4A28C"/>
<path d="M276.086 174.425L272.177 174.035L271.081 185.024L274.989 185.414L276.086 174.425Z" fill="#68E1FD"/>
<path d="M326.759 248.288L311.717 260.153H345.212L330.971 248.288H326.759Z" fill="#C9C9C9"/>
<path d="M321.988 124.793C321.751 123.698 321.902 122.555 322.415 121.558C322.928 120.562 323.771 119.775 324.8 119.332C328.545 117.475 337.427 115.272 338.746 122.519C338.746 122.55 330.494 127.889 321.988 124.793Z" fill="#68E1FD"/>
<path opacity="0.46" d="M321.988 124.793C321.751 123.698 321.902 122.555 322.415 121.558C322.928 120.562 323.771 119.775 324.8 119.332C328.545 117.475 337.427 115.272 338.746 122.519C338.746 122.55 330.494 127.889 321.988 124.793Z" fill="white"/>
<path d="M194.311 65.7659C194.171 64.4216 193.872 62.8833 194.054 61.5441C194.126 61.0148 194.232 60.7583 194.645 60.4384C195.082 60.4717 195.366 60.6054 195.707 60.9014C195.995 61.1513 195.995 61.4734 196.021 61.8259C196.059 63.0908 196.178 64.3381 196.306 65.596L194.311 65.7659Z" fill="#25285B"/>
<path d="M185.918 89.1658C185.259 89.1617 184.435 89.2295 183.856 88.8617C183.307 88.5129 183.136 88.1752 182.983 87.559C182.646 86.2017 181.857 79.2196 182.46 78.3371C183.014 77.5245 183.993 77.4413 184.881 77.3269C185.194 81.2693 185.679 85.2212 185.918 89.1658Z" fill="#25285B"/>
<path d="M207.496 75.0617C208.313 75.0152 209.067 74.9452 209.72 75.5469C210.098 75.8957 210.413 76.3622 210.722 76.7734C210.959 78.8395 212.098 84.1991 210.872 85.8673C210.511 86.3574 210.05 86.5674 209.459 86.6302C209.154 86.6609 208.847 86.6844 208.541 86.7007C208.118 82.8335 207.843 78.9375 207.496 75.0617Z" fill="#25285B"/>
<path d="M192.292 94.9519C196.269 95.5166 200.138 93.716 204.089 94.1902L204.358 96.3421C204.608 98.8969 205.24 102.788 204.722 105.007C203.316 107.121 196.539 107.678 194.601 106.739C194.07 106.482 193.799 106.206 193.467 105.21C192.8 103.207 192.712 100.063 192.533 97.8053L192.292 94.9519Z" fill="#FFD200"/>
<path d="M199.358 101.075C195.316 101.786 193.602 97.4713 192.368 95.7544L204.187 94.8352C203.604 96.4943 204.709 100.133 199.358 101.075Z" fill="#E5BF0B"/>
<path d="M196.306 65.5959C196.178 64.338 196.059 63.0906 196.021 61.8258L196.368 65.5725C199.399 65.7158 203.467 65.7822 205.658 68.2185C207.334 70.0828 207.293 72.7053 207.496 75.0618C207.842 78.9376 208.118 82.8337 208.54 86.7008C208.693 88.3092 209.561 92.0015 208.529 93.2937C207.641 94.4062 205.501 94.6451 204.149 94.8511C200.238 94.8202 196.299 95.8491 192.366 95.7772C190.831 95.7987 188.372 96.0804 187.149 94.9913C185.889 93.8696 186.038 90.7879 185.918 89.1661C185.679 85.2216 185.194 81.2696 184.881 77.3272C185.071 74.5316 183.922 72.4675 185.801 69.892C187.672 67.3268 191.329 66.2477 194.311 65.7657L196.306 65.5959Z" fill="#FFD200"/>
<path d="M185.119 78.1526C185.041 76.9505 184.88 76.0068 184.814 74.8038C184.73 73.1597 184.721 71.8052 185.444 70.561C187.665 66.7395 193.27 65.1104 197.11 67.3255C197.11 67.3255 199.46 68.3815 200.593 71.632C201.512 74.2677 200.998 77.5865 201.247 78.2372C200.672 79.429 200.249 80.7224 200.408 82.312C200.497 83.2133 200.732 84.0282 201.058 84.7947C200.75 85.7016 200.505 86.6445 200.161 87.5224C199.012 90.4498 197.191 92.536 195.239 94.0474C193.787 95.172 192.96 95.4989 191.169 95.6296C189.791 95.7302 188.039 96.3015 186.867 94.7174C185.576 92.9734 185.958 89.4701 185.802 87.099C185.525 83.6137 185.427 81.6335 185.119 78.1526Z" fill="#FFE56E"/>
<path d="M188.409 78.9905C191.238 78.604 194.137 78.4457 196.983 78.1885C199.252 77.9835 201.618 77.6218 203.895 77.6292C204.796 77.6323 205.646 77.7339 206.293 78.4295C207.023 79.2142 207.222 80.4103 207.158 81.4495C207.068 82.9369 206.379 83.88 205.321 84.8287C203.375 85.3743 191.813 86.4203 189.8 86.2701C188.855 86.1994 188.071 85.8012 187.466 85.0583C186.759 84.1899 186.512 82.9462 186.631 81.8444C186.771 80.5525 187.429 79.7586 188.409 78.9905Z" fill="#25285B"/>
<path d="M199.828 80.0024C201.526 79.7929 203.247 79.6838 204.952 79.5325C205.052 80.5287 205.141 81.5258 205.219 82.5239C203.6 82.9159 201.746 82.9258 200.081 83.0646L199.828 80.0024Z" fill="#FFD200"/>
<path d="M189.064 80.9188C190.675 80.7579 192.29 80.6365 193.903 80.4992C193.993 81.3393 194.342 82.8918 193.972 83.6211L188.987 84.0717C188.894 83.1121 188.718 82.0874 188.806 81.1271L189.064 80.9188Z" fill="#FFD200"/>
<path d="M190.757 79.2261C191.556 79.0997 192.224 79.0658 192.972 79.418C193.758 79.7874 194.336 80.4842 194.61 81.2981C194.627 81.3492 194.644 81.4006 194.658 81.4525C194.673 81.5044 194.687 81.5567 194.699 81.6092C194.711 81.6618 194.722 81.7146 194.732 81.7677C194.742 81.8207 194.75 81.874 194.757 81.9275C194.764 81.981 194.77 82.0346 194.774 82.0885C194.778 82.1422 194.781 82.1961 194.783 82.2501C194.785 82.304 194.785 82.3579 194.784 82.4119C194.783 82.4658 194.781 82.5197 194.777 82.5735C194.773 82.6274 194.768 82.6811 194.762 82.7348C194.755 82.7883 194.748 82.8417 194.739 82.895C194.73 82.9482 194.719 83.0012 194.708 83.0539C194.696 83.1066 194.683 83.159 194.669 83.211C194.654 83.2632 194.639 83.3149 194.622 83.3661C194.605 83.4175 194.587 83.4684 194.568 83.5188C194.548 83.5692 194.528 83.6191 194.506 83.6686C194.484 83.718 194.461 83.7669 194.437 83.8151C193.985 84.7014 193.26 85.1729 192.339 85.484C191.635 85.5948 190.977 85.5687 190.307 85.3008C189.518 84.9849 188.848 84.364 188.526 83.5757C188.506 83.5259 188.487 83.4757 188.469 83.4249C188.452 83.3743 188.436 83.3232 188.421 83.2716C188.406 83.2201 188.393 83.1682 188.381 83.1161C188.368 83.0638 188.358 83.0113 188.348 82.9586C188.339 82.9059 188.33 82.8529 188.324 82.7997C188.317 82.7466 188.311 82.6932 188.307 82.6397C188.303 82.5863 188.3 82.5328 188.299 82.4792C188.297 82.4256 188.297 82.372 188.298 82.3184C188.3 82.2648 188.302 82.2113 188.306 82.1579C188.31 82.1044 188.316 82.051 188.323 81.9978C188.329 81.9447 188.337 81.8916 188.347 81.8388C188.356 81.786 188.367 81.7335 188.379 81.6813C188.391 81.629 188.404 81.5771 188.419 81.5254C188.434 81.4738 188.45 81.4227 188.467 81.3719C188.484 81.3211 188.503 81.2707 188.523 81.2209C188.543 81.171 188.564 81.1216 188.586 81.0728C189.027 80.0983 189.788 79.6008 190.757 79.2261Z" fill="#1AAEE0"/>
<path d="M200.366 79.056C201.156 78.3963 202.04 77.9578 203.097 78.0557C203.15 78.0611 203.203 78.0678 203.256 78.0757C203.308 78.0837 203.361 78.093 203.413 78.1036C203.465 78.1142 203.517 78.126 203.569 78.1392C203.62 78.1524 203.671 78.1668 203.722 78.1826C203.773 78.1982 203.823 78.2151 203.873 78.2334C203.923 78.2516 203.973 78.271 204.022 78.2916C204.071 78.3123 204.119 78.3342 204.167 78.3573C204.215 78.3804 204.262 78.4047 204.309 78.43C204.356 78.4554 204.402 78.482 204.447 78.5097C204.493 78.5375 204.537 78.5663 204.581 78.5963C204.625 78.6262 204.668 78.6571 204.71 78.6892C204.753 78.7213 204.794 78.7544 204.835 78.7885C204.876 78.8227 204.915 78.8578 204.954 78.8939C204.993 78.93 205.031 78.9671 205.068 79.0052C205.105 79.0431 205.141 79.082 205.176 79.1217C205.211 79.1616 205.245 79.2023 205.278 79.2437C205.314 79.2871 205.348 79.3313 205.381 79.3764C205.414 79.4215 205.446 79.4675 205.477 79.5142C205.508 79.5609 205.537 79.6083 205.566 79.6565C205.594 79.7046 205.621 79.7534 205.647 79.803C205.673 79.8525 205.698 79.9026 205.721 79.9533C205.745 80.004 205.767 80.0552 205.788 80.1071C205.809 80.1589 205.828 80.2112 205.846 80.2641C205.865 80.3169 205.882 80.3701 205.897 80.4238C205.913 80.4774 205.927 80.5314 205.94 80.5857C205.953 80.6401 205.964 80.6948 205.974 80.7497C205.984 80.8046 205.993 80.8597 206.001 80.9151C206.008 80.9704 206.014 81.0259 206.019 81.0816C206.023 81.1373 206.026 81.1931 206.028 81.2488C206.03 81.3047 206.03 81.3605 206.029 81.4164C206.028 81.4722 206.026 81.528 206.022 81.5837C206.018 81.6395 206.013 81.6951 206.006 81.7506C205.914 82.5492 205.525 83.3014 204.886 83.8027C204.189 84.3491 203.229 84.5886 202.353 84.4831C201.514 84.3822 200.777 83.9592 200.196 83.3613C199.856 82.8793 199.611 82.3601 199.515 81.7754C199.345 80.7443 199.776 79.8715 200.366 79.056Z" fill="#1AAEE0"/>
<path d="M202.477 79.5534C202.798 79.5511 203.096 79.5771 203.394 79.7052C203.864 79.9068 204.249 80.2701 204.433 80.7499C204.453 80.8018 204.47 80.8546 204.485 80.9082C204.5 80.9619 204.511 81.0162 204.521 81.0711C204.53 81.1259 204.536 81.1811 204.539 81.2366C204.542 81.2921 204.543 81.3477 204.54 81.4032C204.538 81.4589 204.533 81.5142 204.524 81.5692C204.516 81.6242 204.505 81.6787 204.491 81.7326C204.478 81.7865 204.461 81.8396 204.442 81.8918C204.422 81.944 204.4 81.9951 204.376 82.0451C204.102 82.5932 203.624 82.8326 203.068 83.0089C202.72 83.0246 202.39 83.0276 202.059 82.8947C202.002 82.872 201.946 82.8465 201.892 82.818C201.838 82.7895 201.785 82.7582 201.734 82.7242C201.683 82.6901 201.634 82.6534 201.587 82.6141C201.54 82.5748 201.495 82.5331 201.452 82.4891C201.409 82.4451 201.369 82.3989 201.331 82.3507C201.294 82.3024 201.259 82.2523 201.226 82.2003C201.194 82.1483 201.164 82.0948 201.138 82.0396C201.111 81.9845 201.088 81.9282 201.067 81.8705C201.049 81.817 201.033 81.7626 201.02 81.7075C201.007 81.6524 200.996 81.5968 200.989 81.5408C200.981 81.4846 200.976 81.4283 200.974 81.3717C200.972 81.315 200.973 81.2584 200.977 81.2019C200.98 81.1454 200.987 81.0892 200.996 81.0334C201.005 80.9774 201.017 80.922 201.032 80.8673C201.046 80.8126 201.063 80.7587 201.083 80.7056C201.103 80.6525 201.126 80.6006 201.151 80.5497C201.432 79.9855 201.901 79.7301 202.477 79.5534Z" fill="white"/>
<path d="M190.984 80.6453C191.425 80.5879 191.831 80.5626 192.256 80.7368C192.878 80.9921 193.133 81.5117 193.378 82.0881C193.346 82.3011 193.308 82.514 193.25 82.722C193.075 83.3537 192.704 83.6794 192.156 83.9894C191.84 84.0474 191.509 84.0875 191.191 84.0228C191.13 84.0103 191.069 83.9947 191.01 83.9759C190.95 83.9571 190.892 83.9353 190.835 83.9104C190.777 83.8856 190.722 83.8578 190.667 83.8271C190.613 83.7965 190.56 83.7631 190.51 83.7269C190.459 83.6908 190.41 83.6522 190.363 83.611C190.316 83.5697 190.272 83.5262 190.23 83.4804C190.188 83.4346 190.148 83.3867 190.111 83.3367C190.074 83.2868 190.039 83.235 190.008 83.1815C189.98 83.1336 189.954 83.0843 189.931 83.0338C189.908 82.9833 189.888 82.9318 189.87 82.8792C189.852 82.8267 189.837 82.7734 189.824 82.7193C189.811 82.6653 189.801 82.6107 189.794 82.5556C189.787 82.5006 189.783 82.4454 189.781 82.3899C189.78 82.3343 189.781 82.2789 189.785 82.2235C189.789 82.1682 189.795 82.1131 189.805 82.0584C189.814 82.0037 189.826 81.9496 189.841 81.8961C190.013 81.2696 190.44 80.9381 190.984 80.6453Z" fill="white"/>
</svg>
