<svg width="406" height="306" viewBox="0 0 406 306" fill="none" xmlns="http://www.w3.org/2000/svg">
<path opacity="0.3" d="M103.418 60.1785C69.02 69.486 41.7875 91.2984 37.4941 131.442C33.8807 165.272 40.6812 221.959 98.3941 233.256C154.219 244.198 355.615 265.97 368.861 194.849C376.392 154.391 377.235 85.7565 313.391 63.9137C270.112 49.0338 177.239 40.2236 103.418 60.1785Z" fill="#E6E6E6"/>
<path opacity="0.45" d="M268.336 264.295C323.854 264.295 368.861 259.796 368.861 254.246C368.861 248.697 323.854 244.198 268.336 244.198C212.817 244.198 167.81 248.697 167.81 254.246C167.81 259.796 212.817 264.295 268.336 264.295Z" fill="#E6E6E6"/>
<path opacity="0.45" d="M100.343 264.295C125.171 264.295 145.297 259.796 145.297 254.246C145.297 248.697 125.171 244.198 100.343 244.198C75.5154 244.198 55.3887 248.697 55.3887 254.246C55.3887 259.796 75.5154 264.295 100.343 264.295Z" fill="#E6E6E6"/>
<path d="M112.411 111.913C112.411 111.913 127.941 115.871 128.052 128.731C128.164 141.591 121.171 164.104 131.158 165.941C141.146 167.778 147.175 139.987 147.175 139.987L154.28 142.86C154.28 142.86 146.698 190.332 120.521 182.506C94.3443 174.68 112.411 111.913 112.411 111.913Z" fill="#68E1FD"/>
<path opacity="0.44" d="M112.411 111.913C112.411 111.913 127.941 115.871 128.052 128.731C128.164 141.591 121.171 164.104 131.158 165.941C141.146 167.778 147.175 139.987 147.175 139.987L154.28 142.86C154.28 142.86 146.698 190.332 120.521 182.506C94.3443 174.68 112.411 111.913 112.411 111.913Z" fill="white"/>
<path d="M148.779 140.658C148.779 140.658 149.185 133.786 151.946 131.827C154.706 129.868 154.24 134.872 154.24 134.872C154.24 134.872 157 131.655 159.315 133.147C161.629 134.639 154.24 142.911 154.24 142.911L148.779 140.658Z" fill="#F4A28C"/>
<path d="M77.9925 247.395C77.9925 247.395 77.1704 250.531 74.4502 251.019C71.73 251.506 71.2428 254.246 73.7803 254.723C76.3178 255.2 82.3977 251.455 82.3977 251.455L81.8597 247.507L77.9925 247.395Z" fill="#68E1FD"/>
<path d="M122.206 247.395C122.206 247.395 123.028 250.531 125.748 251.019C128.468 251.506 128.956 254.246 126.418 254.723C123.881 255.2 117.801 251.445 117.801 251.445L118.339 247.497L122.206 247.395Z" fill="#68E1FD"/>
<path d="M131.097 132.994C131.214 126.099 128.757 119.407 124.206 114.226C119.655 109.044 113.337 105.744 106.484 104.97C93.1161 103.397 68.9286 101.468 59.5805 106.696C46.3855 114.085 68.5328 182.658 68.5328 182.658H113.589C113.589 182.658 130.549 155.68 131.097 132.994Z" fill="#68E1FD"/>
<path d="M86.9964 66.0674C87.0138 64.7463 86.9002 63.2187 87.2295 61.9393C87.3597 61.4337 87.4924 61.1969 87.9295 60.9335C88.3508 61.016 88.6107 61.1781 88.9079 61.5045C89.1588 61.78 89.1218 62.0927 89.1071 62.438C88.9996 63.6703 88.972 64.8948 88.9526 66.1307L86.9964 66.0674Z" fill="#25285B"/>
<path d="M76.1721 87.8243C75.5326 87.745 74.7245 87.7165 74.205 87.2933C73.7118 86.8918 73.5841 86.5444 73.5062 85.9286C73.3346 84.5724 73.3675 77.7039 74.0531 76.916C74.6841 76.1905 75.6438 76.2217 76.5192 76.2122C76.3726 80.0755 76.3911 83.9675 76.1721 87.8243Z" fill="#25285B"/>
<path d="M98.7332 76.6002C99.5318 76.6486 100.271 76.6667 100.837 77.3256C101.164 77.7075 101.416 78.1964 101.669 78.6309C101.663 80.6639 102.156 85.9974 100.774 87.4767C100.368 87.9113 99.8969 88.0623 99.316 88.0558C99.0157 88.0506 98.7157 88.0383 98.4161 88.0191C98.448 84.2164 98.6263 80.4025 98.7332 76.6002Z" fill="#25285B"/>
<path d="M81.6978 94.1705C85.4946 95.1736 89.4566 93.8682 93.2383 94.7805L93.2532 96.9004C93.2039 99.4092 93.3724 103.259 92.615 105.354C91.0083 107.245 84.3652 107.011 82.5914 105.877C82.106 105.567 81.8738 105.269 81.6659 104.263C81.2475 102.243 81.5217 99.181 81.606 96.9683L81.6978 94.1705Z" fill="#FFD200"/>
<path d="M87.8572 100.923C83.8519 101.151 82.6813 96.7664 81.6802 94.9585L93.2591 95.418C92.5033 96.962 93.1601 100.621 87.8572 100.923Z" fill="#E5BF0B"/>
<path d="M88.953 66.1304C88.9724 64.8945 89 63.67 89.1075 62.4376L89.0156 66.1148C91.9419 66.6006 95.8834 67.1304 97.7317 69.7461C99.1463 71.7479 98.8064 74.2891 98.7334 76.6C98.6265 80.4023 98.4482 84.2162 98.4163 88.0189C98.3806 89.5978 98.8005 93.2816 97.6513 94.4181C96.6622 95.3966 94.5565 95.3837 93.2207 95.429C89.4273 94.9517 85.4856 95.5 81.6759 94.9804C80.1834 94.8256 77.7636 94.8178 76.701 93.6206C75.6063 92.3876 76.103 89.4129 76.1721 87.8246C76.3911 83.9678 76.3726 80.0758 76.5192 76.2125C77.0236 73.5202 76.1446 71.385 78.2629 69.0995C80.3727 66.8231 84.0464 66.1938 86.9967 66.0671L88.953 66.1304Z" fill="#FFD200"/>
<path d="M76.6555 77.041C76.7175 75.865 76.669 74.9305 76.7429 73.7551C76.8491 72.1492 76.9957 70.8333 77.8399 69.7081C80.4331 66.2522 86.061 65.3117 89.5357 67.9014C89.5357 67.9014 91.6963 69.1955 92.4244 72.4807C93.0147 75.1445 92.1364 78.3078 92.3034 78.9679C91.6088 80.0591 91.0506 81.2665 91.0226 82.8278C91.0067 83.7131 91.1408 84.531 91.3704 85.3125C90.9669 86.1576 90.6219 87.045 90.1871 87.8579C88.7372 90.5685 86.7303 92.3856 84.6628 93.6296C83.1241 94.5553 82.2836 94.7781 80.5306 94.7001C79.1807 94.6401 77.4148 94.9944 76.458 93.3224C75.4047 91.4817 76.1755 88.1242 76.2958 85.8045C76.4249 82.3892 76.5571 80.4556 76.6555 77.041Z" fill="#FFE56E"/>
<path d="M79.7542 78.2311C82.5451 78.1795 85.3777 78.3574 88.1695 78.4331C90.3962 78.4937 92.7344 78.4132 94.9444 78.6809C95.8181 78.7869 96.632 78.9828 97.1809 79.7321C97.8001 80.5774 97.8556 81.7613 97.6753 82.7629C97.4171 84.1966 96.6404 85.0334 95.5049 85.8334C93.5534 86.1404 82.2092 85.8334 80.2722 85.4574C79.3625 85.2807 78.6473 84.8044 78.145 84.014C77.5577 83.0901 77.4604 81.8544 77.7021 80.7984C77.9856 79.5601 78.7149 78.8647 79.7542 78.2311Z" fill="#25285B"/>
<path d="M90.7239 80.5189C92.3965 80.5098 94.0797 80.6008 95.7522 80.6489C95.7353 81.6274 95.7079 82.6057 95.6698 83.5836C94.0535 83.779 92.2523 83.5765 90.6193 83.5207L90.7239 80.5189Z" fill="#FFD200"/>
<path d="M80.1697 80.1781C81.7515 80.2061 83.3338 80.2731 84.915 80.3242C84.907 81.1501 85.0676 82.6972 84.6251 83.3629L79.7342 83.2302C79.7538 82.288 79.6999 81.273 79.8956 80.3508L80.1697 80.1781Z" fill="#FFD200"/>
<path d="M82.006 78.7275C82.7967 78.6962 83.4483 78.7396 84.1351 79.1673C84.8553 79.6157 85.3368 80.3583 85.5098 81.1798C85.5208 81.2313 85.5306 81.2832 85.5391 81.3352C85.5476 81.3873 85.5548 81.4396 85.5607 81.492C85.5667 81.5445 85.5713 81.597 85.5745 81.6496C85.5778 81.7022 85.5798 81.7549 85.5805 81.8076C85.5812 81.8604 85.5806 81.9131 85.5786 81.9658C85.5767 82.0185 85.5734 82.0711 85.5688 82.1238C85.5642 82.1763 85.5583 82.2287 85.5512 82.281C85.544 82.3332 85.5356 82.3852 85.5258 82.4371C85.5161 82.4889 85.505 82.5405 85.4927 82.5919C85.4803 82.6431 85.4668 82.6941 85.452 82.7447C85.4371 82.7954 85.4209 82.8456 85.4036 82.8955C85.3862 82.9453 85.3677 82.9947 85.3479 83.0436C85.3281 83.0926 85.3071 83.141 85.2848 83.1888C85.2626 83.2368 85.2392 83.2841 85.2146 83.3308C85.1901 83.3775 85.1644 83.4236 85.1375 83.4692C85.1106 83.5147 85.0827 83.5595 85.0536 83.6036C84.5134 84.4122 83.7555 84.7871 82.8265 84.9838C82.1299 85.0107 81.4939 84.9101 80.8749 84.5736C80.145 84.1766 79.5649 83.497 79.3423 82.695C79.3287 82.6444 79.3163 82.5934 79.3051 82.5422C79.294 82.491 79.2842 82.4396 79.2757 82.3878C79.2672 82.3361 79.2601 82.2842 79.2542 82.2322C79.2484 82.18 79.2439 82.1278 79.2407 82.0756C79.2374 82.0233 79.2355 81.9709 79.2349 81.9185C79.2344 81.8661 79.2352 81.8137 79.2373 81.7613C79.2394 81.709 79.2428 81.6567 79.2476 81.6045C79.2523 81.5523 79.2583 81.5003 79.2657 81.4484C79.273 81.3965 79.2818 81.3449 79.2918 81.2935C79.3018 81.242 79.3131 81.1908 79.3257 81.1399C79.3383 81.0891 79.3522 81.0385 79.3674 80.9883C79.3825 80.9381 79.3989 80.8884 79.4166 80.839C79.4343 80.7897 79.4532 80.7408 79.4735 80.6923C79.4936 80.6439 79.515 80.5961 79.5376 80.5487C79.5602 80.5014 79.5839 80.4546 79.6089 80.4085C79.6339 80.3624 79.66 80.3169 79.6873 80.272C80.2265 79.3763 81.0228 78.9804 82.006 78.7275Z" fill="#1AAEE0"/>
<path d="M91.354 79.6617C92.1968 79.1117 93.1046 78.787 94.1203 79.0031C94.1711 79.0144 94.2216 79.0269 94.2719 79.0406C94.3221 79.0544 94.3719 79.0695 94.4213 79.0857C94.4707 79.1019 94.5197 79.1194 94.5682 79.1381C94.6168 79.1568 94.6649 79.1767 94.7125 79.1977C94.76 79.2187 94.807 79.2409 94.8535 79.2643C94.8999 79.2878 94.9457 79.3123 94.9909 79.3379C95.0362 79.3636 95.0807 79.3904 95.1245 79.4183C95.1684 79.4462 95.2116 79.4751 95.254 79.5051C95.2964 79.5351 95.3381 79.5662 95.3789 79.5983C95.4197 79.6304 95.4597 79.6635 95.4989 79.6976C95.5381 79.7316 95.5764 79.7666 95.6138 79.8026C95.6513 79.8387 95.6878 79.8755 95.7234 79.9133C95.7589 79.9511 95.7935 79.9898 95.8272 80.0293C95.8608 80.0688 95.8934 80.1091 95.925 80.1503C95.9566 80.1914 95.9872 80.2332 96.0167 80.2758C96.0462 80.3185 96.0746 80.3619 96.1019 80.406C96.1312 80.4521 96.1594 80.499 96.1863 80.5465C96.2133 80.5941 96.2391 80.6423 96.2636 80.6912C96.2881 80.7401 96.3115 80.7895 96.3336 80.8395C96.3556 80.8894 96.3764 80.9399 96.396 80.9911C96.4156 81.0421 96.4338 81.0936 96.4507 81.1455C96.4677 81.1974 96.4833 81.2497 96.4977 81.3024C96.512 81.3551 96.525 81.4081 96.5366 81.4615C96.5483 81.5148 96.5587 81.5684 96.5677 81.6223C96.5767 81.6762 96.5843 81.7302 96.5906 81.7844C96.5969 81.8387 96.6018 81.8931 96.6052 81.9476C96.6088 82.002 96.611 82.0566 96.6118 82.1112C96.6126 82.1657 96.6121 82.2203 96.6102 82.2748C96.6083 82.3295 96.605 82.384 96.6002 82.4383C96.5956 82.4927 96.5896 82.547 96.5823 82.6011C96.5749 82.6552 96.5662 82.7091 96.5561 82.7627C96.546 82.8164 96.5346 82.8698 96.5218 82.9229C96.3405 83.6876 95.8772 84.3734 95.1995 84.787C94.4605 85.2377 93.501 85.3604 92.6621 85.1577C91.8594 84.9639 91.1924 84.469 90.6968 83.822C90.4214 83.3152 90.2432 82.783 90.2166 82.2044C90.1699 81.184 90.6886 80.386 91.354 79.6617Z" fill="#1AAEE0"/>
<path d="M93.3468 80.3864C93.6589 80.4209 93.9448 80.4802 94.2199 80.6387C94.6529 80.8881 94.9851 81.2849 95.1083 81.7717C95.1219 81.8244 95.1328 81.8776 95.1409 81.9313C95.149 81.9851 95.1544 82.0392 95.1569 82.0935C95.1594 82.1478 95.1591 82.202 95.156 82.2563C95.1528 82.3106 95.1469 82.3646 95.1382 82.4183C95.1295 82.472 95.118 82.5251 95.1037 82.5776C95.0895 82.6301 95.0726 82.6817 95.053 82.7325C95.0334 82.7832 95.0112 82.8328 94.9864 82.8813C94.9617 82.9298 94.9345 82.9768 94.9048 83.0225C94.5769 83.5234 94.0855 83.7011 93.5254 83.8087C93.1853 83.7841 92.8646 83.7493 92.559 83.5824C92.5062 83.5539 92.4549 83.5227 92.4054 83.4889C92.3558 83.4549 92.3082 83.4185 92.2625 83.3797C92.2169 83.3407 92.1734 83.2995 92.1321 83.2559C92.0909 83.2124 92.0521 83.1668 92.0157 83.1192C91.9793 83.0716 91.9456 83.0222 91.9146 82.9711C91.8835 82.9199 91.8552 82.8672 91.8297 82.813C91.8042 82.7589 91.7817 82.7035 91.7622 82.6469C91.7426 82.5903 91.7262 82.5329 91.7128 82.4747C91.701 82.4205 91.6919 82.366 91.6855 82.311C91.6791 82.256 91.6754 82.2008 91.6745 82.1456C91.6735 82.0902 91.6753 82.0349 91.6799 81.9798C91.6844 81.9245 91.6916 81.8697 91.7016 81.8152C91.7116 81.7608 91.7242 81.7069 91.7394 81.6538C91.7547 81.6005 91.7726 81.5481 91.7931 81.4966C91.8135 81.4452 91.8364 81.3948 91.8618 81.3456C91.8873 81.2963 91.9151 81.2485 91.9453 81.2019C92.2825 80.6864 92.7674 80.4921 93.3468 80.3864Z" fill="white"/>
<path d="M82.0646 80.1321C82.4992 80.1269 82.8964 80.1488 83.2883 80.3664C83.8629 80.6854 84.051 81.219 84.2232 81.8066C84.1676 82.0098 84.1068 82.2122 84.0268 82.4074C83.7843 83.0007 83.3869 83.2744 82.8198 83.5128C82.5064 83.5329 82.1805 83.5339 81.8789 83.4348C81.8209 83.4156 81.7641 83.3935 81.7084 83.3685C81.6528 83.3434 81.5986 83.3156 81.5458 83.2848C81.493 83.2542 81.442 83.2209 81.3928 83.1849C81.3436 83.1489 81.2963 83.1104 81.2512 83.0695C81.2059 83.0287 81.163 82.9856 81.1223 82.9403C81.0816 82.8949 81.0435 82.8475 81.0079 82.7983C80.9722 82.7489 80.9391 82.6979 80.9088 82.6452C80.8785 82.5924 80.851 82.5383 80.8264 82.4827C80.8047 82.4329 80.7855 82.3822 80.7689 82.3305C80.7523 82.2788 80.7383 82.2264 80.7269 82.1734C80.7155 82.1203 80.7068 82.0669 80.7008 82.0129C80.6947 81.959 80.6914 81.9049 80.6907 81.8506C80.6901 81.7964 80.6921 81.7423 80.6969 81.6882C80.7017 81.6341 80.7092 81.5804 80.7193 81.5271C80.7295 81.4738 80.7422 81.4211 80.7576 81.3691C80.773 81.3171 80.791 81.2659 80.8115 81.2157C81.0502 80.6272 81.503 80.3542 82.0646 80.1321Z" fill="white"/>
<path opacity="0.08" d="M72.136 112.633C72.136 112.633 82.2859 115.435 79.5556 131.441H92.7506L92.9637 148.94C93.0513 155.869 95.0009 162.646 98.6081 168.562C102.215 174.479 107.348 179.316 113.467 182.567L113.589 182.628H68.5327L66.7666 176.903L72.136 112.633Z" fill="black"/>
<path d="M73.7804 120.063C73.9826 117.907 73.6062 115.736 72.6901 113.774C71.7741 111.811 70.3514 110.129 68.5687 108.899C66.786 107.67 64.7078 106.938 62.5481 106.779C60.3884 106.62 58.2254 107.04 56.2818 107.995C46.9641 112.633 37.1592 121.88 34.7232 140.302C30.379 173.076 39.4024 182.13 56.3224 172.508C67.4164 166.195 71.9636 138.435 73.7804 120.063Z" fill="#68E1FD"/>
<path opacity="0.46" d="M73.7804 120.063C73.9826 117.907 73.6062 115.736 72.6901 113.774C71.7741 111.811 70.3514 110.129 68.5687 108.899C66.786 107.67 64.7078 106.938 62.5481 106.779C60.3884 106.62 58.2254 107.04 56.2818 107.995C46.9641 112.633 37.1592 121.88 34.7232 140.302C30.379 173.076 39.4024 182.13 56.3224 172.508C67.4164 166.195 71.9636 138.435 73.7804 120.063Z" fill="white"/>
<path d="M84.174 126.173H43.3101V176.923H84.174V126.173Z" fill="#FFD200"/>
<path d="M56.3223 126.174C56.3223 126.174 59.1846 119.81 64.9092 122.205C70.6338 124.6 66.7362 132.162 56.3223 126.174Z" fill="#F4A28C"/>
<path opacity="0.58" d="M75.8509 134.76H50.0801V153.497H75.8509V134.76Z" fill="white"/>
<path d="M75.8509 159.577H50.0801V166.165H75.8509V159.577Z" fill="white"/>
<path d="M68.5327 182.658L75.8407 247.618H84.1739C84.1739 247.618 81.9916 198.533 94.537 190.555C107.082 182.577 113.589 182.618 113.589 182.618L68.5327 182.658Z" fill="#24285B"/>
<path d="M113.589 182.658L124.754 247.618H116.948C116.948 247.618 107.316 199.335 84.1536 191.793C84.1739 191.763 97.9677 184.221 113.589 182.658Z" fill="#24285B"/>
<path d="M362.426 236.504H314.021V251.901H362.426V236.504Z" fill="#E6E6E6"/>
<path opacity="0.43" d="M351.84 221.441H303.434V236.839H351.84V221.441Z" fill="#E6E6E6"/>
<path opacity="0.58" d="M338.898 209.201C338.898 209.201 329.236 206.562 327.135 197.569C327.135 197.569 342.106 194.524 342.532 209.992L338.898 209.201Z" fill="#68E1FD"/>
<path opacity="0.73" d="M340.076 208.237C340.076 208.237 333.326 197.569 339.274 187.602C339.274 187.602 350.652 194.828 345.597 208.267L340.076 208.237Z" fill="#68E1FD"/>
<path d="M341.822 208.247C341.822 208.247 345.384 196.98 356.163 194.849C356.163 194.849 358.193 202.167 349.18 208.277L341.822 208.247Z" fill="#68E1FD"/>
<path d="M334.818 207.993L336.767 221.391L349.099 221.441L350.916 208.064L334.818 207.993Z" fill="#24285B"/>
<path d="M323.328 41.7051H182.365V252.338H323.328V41.7051Z" fill="#CCCCCC"/>
<path d="M310.712 65.71H194.027V213.951H310.712V65.71Z" fill="white"/>
<path opacity="0.12" d="M280.444 49.937H240.92V54.738H280.444V49.937Z" fill="black"/>
<path d="M228.273 58.067C231.155 58.067 233.491 55.7312 233.491 52.8499C233.491 49.9686 231.155 47.6328 228.273 47.6328C225.392 47.6328 223.056 49.9686 223.056 52.8499C223.056 55.7312 225.392 58.067 228.273 58.067Z" fill="#E6E6E6"/>
<path d="M231.288 131.147L222.508 140.282C221.809 141.012 220.951 141.571 220 141.914C219.049 142.257 218.031 142.376 217.027 142.261C216.023 142.146 215.059 141.801 214.21 141.251C213.361 140.702 212.651 139.964 212.135 139.095L200.767 119.739C200.454 119.204 200.222 118.626 200.077 118.023C199.579 115.993 198.219 110.918 196.707 110.319C194.799 109.609 194.322 114.298 194.322 114.298C194.322 114.298 188.831 110.634 186.456 114.298C185.035 116.47 188.486 119.373 191.531 121.403C194.082 123.059 195.98 125.548 196.9 128.447C199.813 137.653 206.928 157.192 215.292 158.806C226.264 160.917 245.63 144.393 245.63 144.393L231.288 131.147Z" fill="#F4A28C"/>
<path d="M252.593 100.799C252.593 100.799 217.647 106.452 221.94 130.599C225.046 148.088 234.12 146.839 233.694 160.176L233.491 168.651L270.66 167.525C270.66 167.525 268.295 150.798 272.944 138.902C277.592 127.006 290.351 97.6218 252.593 100.799Z" fill="#68E1FD"/>
<path d="M260.682 79.9302L262.306 101.002L250.624 101.062L254.136 85.7055L260.682 79.9302Z" fill="#F4A28C"/>
<path opacity="0.09" d="M263.058 105.295C263.058 105.295 244.899 110.735 250.624 126.376C256.348 142.018 265.463 151.934 256.287 156.928C247.112 161.922 233.45 168.651 233.45 168.651H264.915L272.385 160.531L278.851 137.004L263.058 105.295Z" fill="black"/>
<path opacity="0.31" d="M253.222 89.0549C254.699 88.8072 256.071 88.1334 257.17 87.1162C257.17 87.1162 256.693 90.9529 252.095 94.4141L253.222 89.0549Z" fill="#CE8172"/>
<path d="M248.959 78.1539C248.959 78.1539 248.249 84.5687 249.223 88.8723C249.319 89.288 249.496 89.6808 249.744 90.028C249.991 90.3752 250.306 90.67 250.668 90.8954C251.03 91.1208 251.433 91.2724 251.854 91.3416C252.275 91.4107 252.706 91.3959 253.121 91.2981C255.283 90.7703 258.044 89.4407 258.845 86.0506L260.875 80.4681C261.174 79.3062 261.103 78.0803 260.674 76.9602C260.245 75.84 259.478 74.8809 258.48 74.2157C254.938 71.5158 249.193 74.236 248.959 78.1539Z" fill="#F4A28C"/>
<path d="M233.491 168.651L226.416 213.951H276.151L270.67 167.524L233.491 168.651Z" fill="#24285B"/>
<path d="M255.678 83.8378C255.678 83.8378 255.79 81.3612 257.648 81.5946C259.505 81.8281 259.373 85.4212 256.836 85.6546L255.678 83.8378Z" fill="#F4A28C"/>
<path d="M248.675 82.2241L246.817 84.6601C246.707 84.7972 246.635 84.9605 246.607 85.1341C246.579 85.3076 246.596 85.4855 246.658 85.6502C246.719 85.815 246.822 85.9609 246.957 86.0738C247.092 86.1867 247.253 86.2627 247.426 86.2943L249.883 86.8221L248.675 82.2241Z" fill="#F4A28C"/>
<path d="M257.648 81.5948C257.648 81.5948 249.893 100.626 256.105 104.28C262.317 107.934 273.36 107.132 274.852 99.0223C276.344 90.9125 268.366 88.8723 268.295 77.5348C268.224 66.1972 246.422 66.9889 246.188 73.4748C245.955 79.9606 257.648 81.5948 257.648 81.5948Z" fill="#24285B"/>
<path d="M263.057 105.295C264.07 104.458 265.248 103.845 266.515 103.498C267.782 103.15 269.108 103.075 270.406 103.277C271.704 103.479 272.944 103.955 274.044 104.672C275.145 105.389 276.081 106.331 276.79 107.437C282.644 116.328 285.49 126.862 284.91 137.491C283.642 160.054 288.483 173.726 264.874 168.651C247.619 164.947 226.71 136.699 226.71 136.699C226.71 136.699 219.717 132.061 225.127 125.23C230.537 118.399 234.658 134.608 234.658 134.608C234.658 134.608 262.966 158.217 268.691 151.346C273.705 145.316 248.381 117.719 263.057 105.295Z" fill="#F4A28C"/>
<path d="M295.294 89.7755C300.177 89.7755 304.135 85.8174 304.135 80.9349C304.135 76.0523 300.177 72.0942 295.294 72.0942C290.411 72.0942 286.453 76.0523 286.453 80.9349C286.453 85.8174 290.411 89.7755 295.294 89.7755Z" fill="#68E1FD"/>
<path opacity="0.32" d="M283.845 89.7755C288.727 89.7755 292.685 85.8174 292.685 80.9349C292.685 76.0523 288.727 72.0942 283.845 72.0942C278.962 72.0942 275.004 76.0523 275.004 80.9349C275.004 85.8174 278.962 89.7755 283.845 89.7755Z" fill="#68E1FD"/>
<path d="M252.897 207.343C261.407 207.343 268.305 200.445 268.305 191.936C268.305 183.426 261.407 176.528 252.897 176.528C244.388 176.528 237.49 183.426 237.49 191.936C237.49 200.445 244.388 207.343 252.897 207.343Z" fill="#68E1FD"/>
<path d="M252.035 193.042C250.955 192.008 250.242 190.65 250.005 189.175C249.994 189.086 250.005 188.995 250.035 188.911C250.064 188.827 250.113 188.75 250.177 188.687L251.476 187.388C251.572 187.296 251.632 187.174 251.647 187.042C251.662 186.911 251.63 186.778 251.558 186.668L249.528 183.44C249.45 183.319 249.331 183.23 249.192 183.191C249.054 183.152 248.906 183.164 248.776 183.227L245.437 184.8C245.331 184.852 245.244 184.935 245.187 185.039C245.131 185.143 245.108 185.261 245.122 185.378C245.671 189.068 247.391 192.485 250.027 195.123C252.664 197.762 256.079 199.484 259.769 200.035C259.887 200.048 260.007 200.024 260.111 199.966C260.214 199.908 260.297 199.818 260.347 199.71L261.921 196.381C261.985 196.252 261.999 196.103 261.96 195.964C261.921 195.825 261.83 195.706 261.708 195.63L258.419 193.6C258.308 193.529 258.175 193.499 258.044 193.514C257.913 193.528 257.791 193.588 257.698 193.681L256.389 194.991C256.325 195.052 256.248 195.099 256.164 195.127C256.079 195.155 255.99 195.164 255.902 195.153C254.425 194.918 253.066 194.205 252.035 193.123V193.042Z" fill="white"/>
<path opacity="0.09" d="M324.161 109.781H288.686V164.165H324.161V109.781Z" fill="#CCCCCC"/>
<path d="M361.979 105.396H292.685V159.78H361.979V105.396Z" fill="#E6E6E6"/>
<path d="M361.979 99.6011H292.685V105.397H361.979V99.6011Z" fill="#B3B3B3"/>
<path d="M318.436 106.98L301.455 120.52C301.455 120.52 285.519 136.506 295.517 146.961C305.515 157.415 320.09 142.109 320.09 142.109L318.436 106.98Z" fill="#68E1FD"/>
<path opacity="0.08" d="M318.436 106.98L301.455 120.52C301.455 120.52 285.519 136.506 295.517 146.961C305.515 157.415 320.09 142.109 320.09 142.109L318.436 106.98Z" fill="black"/>
<path d="M299.828 111.913L298.287 113.123L306.12 123.091L307.66 121.881L299.828 111.913Z" fill="#24285B"/>
<path d="M301.455 120.52C301.455 120.52 304.094 117.404 306.469 118.429C308.844 119.454 308.225 124.184 304.084 124.265C299.943 124.347 301.455 120.52 301.455 120.52Z" fill="#F4A28C"/>
<path d="M326.434 86.0607C326.234 88.3044 326.34 90.5648 326.749 92.78C326.814 93.0397 326.93 93.284 327.09 93.4988C327.25 93.7135 327.451 93.8945 327.681 94.0313C327.911 94.1681 328.166 94.258 328.431 94.2959C328.696 94.3337 328.966 94.3187 329.225 94.2518C330.075 94.0862 330.859 93.6793 331.484 93.0799C332.108 92.4805 332.547 91.7139 332.747 90.8718L333.965 87.3396C334.134 86.6064 334.071 85.8391 333.785 85.1431C333.5 84.4471 333.006 83.8564 332.372 83.4522C330.088 81.8079 326.525 83.5943 326.434 86.0607Z" fill="#F4A28C"/>
<path d="M333.742 87.979L335.792 101.093L328.495 101.712L329.936 91.9172L333.742 87.979Z" fill="#F4A28C"/>
<path d="M326.333 88.6084L325.206 90.1715C325.143 90.2601 325.103 90.3632 325.09 90.4712C325.077 90.5793 325.092 90.6888 325.132 90.7899C325.172 90.8909 325.237 90.9802 325.321 91.0495C325.405 91.1188 325.505 91.1659 325.612 91.1865L327.155 91.4809L326.333 88.6084Z" fill="#F4A28C"/>
<path opacity="0.31" d="M329.53 94.0486C330.441 93.8229 331.267 93.3361 331.905 92.6479C331.625 94.5475 330.63 96.2685 329.124 97.459L329.53 94.0486Z" fill="#CE8172"/>
<path d="M312.691 159.648H340.685C349.576 145.651 369.653 108.391 336.889 101.093L327.754 101.864C327.754 101.864 309.727 107.162 310.448 124.113C311.077 137.775 312.255 153.913 312.691 159.648Z" fill="#68E1FD"/>
<path opacity="0.08" d="M312.701 159.648H340.38C344.217 151.742 356.052 124.123 340.715 111.943C338.147 113.37 336.035 115.496 334.625 118.074C333.215 120.651 332.564 123.576 332.747 126.509C333.346 136.811 331.651 140.505 321.024 139.318C310.397 138.13 311.514 142.738 311.514 142.738L312.701 159.648Z" fill="black"/>
<path d="M326.333 80.874C326.333 80.874 324.049 86.4768 328.495 86.964C332.94 87.4512 330.129 90.4556 332.747 90.9022C335.366 91.3488 338.35 84.9949 335.792 81.7672C333.235 78.5395 327.611 78.2959 326.333 80.874Z" fill="#24285B"/>
<path d="M337.792 115.272C337.633 113.904 337.899 112.52 338.555 111.309C339.211 110.097 340.224 109.118 341.457 108.503C342.689 107.888 344.082 107.668 345.444 107.874C346.806 108.079 348.072 108.699 349.069 109.649C355.308 115.591 359.206 123.577 360.051 132.152C362.7 154.269 354.915 176.02 320.689 140.881L324.171 136.821C324.171 136.821 341.182 148.564 346.206 146.555C350.053 145.052 339.335 129.147 337.792 115.272Z" fill="#68E1FD"/>
<path opacity="0.46" d="M337.792 115.272C337.633 113.904 337.899 112.52 338.555 111.309C339.211 110.097 340.224 109.118 341.457 108.503C342.689 107.888 344.082 107.668 345.444 107.874C346.806 108.079 348.072 108.699 349.069 109.649C355.308 115.591 359.206 123.577 360.051 132.152C362.7 154.269 354.915 176.02 320.689 140.881L324.171 136.821C324.171 136.821 341.182 148.564 346.206 146.555C350.053 145.052 339.335 129.147 337.792 115.272Z" fill="white"/>
<path d="M319.463 119.929L301.448 122.208L304.775 148.51L322.79 146.231L319.463 119.929Z" fill="#FFD200"/>
<path d="M321.593 139.805C321.593 139.805 314.548 136.405 316.264 133.847C317.979 131.289 324.171 136.821 324.171 136.821L321.593 139.805Z" fill="#F4A28C"/>
<path opacity="0.09" d="M227.066 179.024H182.548V225.826H227.066V179.024Z" fill="#CCCCCC"/>
<path d="M221.778 173.442H162.136V220.244H221.778V173.442Z" fill="#E6E6E6"/>
<path d="M221.778 167.474H162.136V173.452H221.778V167.474Z" fill="#B3B3B3"/>
<path d="M173.565 220.254L171.636 197.244C171.636 197.244 181.076 195.985 181.918 196.229C182.436 196.361 182.558 209.911 182.568 220.274L173.565 220.254Z" fill="#F4A28C"/>
<path d="M190.049 163.201C190.049 163.201 193.662 160.409 196.301 162.592C198.94 164.774 196.717 173.016 202.767 171.371C202.767 171.371 196.047 176.446 191.906 167.474L190.049 163.201Z" fill="#24285B"/>
<path d="M192.566 169.037C192.566 169.037 194.951 168.803 194.119 165.535C193.287 162.267 190.597 162.267 189.795 163.079L192.566 169.037Z" fill="#68E1FD"/>
<path d="M185.573 166.966C185.665 168.536 185.969 170.086 186.476 171.574C186.547 171.747 186.652 171.904 186.784 172.036C186.916 172.168 187.073 172.272 187.246 172.343C187.418 172.414 187.603 172.45 187.79 172.448C187.977 172.447 188.162 172.409 188.333 172.336C188.903 172.134 189.402 171.774 189.773 171.297C190.143 170.82 190.369 170.247 190.424 169.646L190.901 167.088C190.943 166.563 190.821 166.039 190.552 165.586C190.283 165.133 189.88 164.775 189.399 164.561C188.991 164.376 188.544 164.296 188.097 164.326C187.651 164.357 187.218 164.497 186.839 164.736C186.46 164.974 186.146 165.302 185.925 165.692C185.704 166.081 185.583 166.519 185.573 166.966Z" fill="#F4A28C"/>
<path d="M191.419 168.55L192.84 177.695L187.745 178.121L188.729 171.463L191.419 168.55Z" fill="#F4A28C"/>
<path d="M185.745 168.743L185.126 169.93C185.09 169.997 185.071 170.072 185.072 170.148C185.072 170.224 185.092 170.299 185.13 170.365C185.168 170.431 185.221 170.486 185.286 170.526C185.351 170.565 185.425 170.587 185.501 170.59H186.608L185.745 168.743Z" fill="#F4A28C"/>
<path opacity="0.31" d="M188.699 171.655C189.305 171.495 189.856 171.172 190.292 170.722C190.405 171.346 190.273 171.99 189.923 172.519C189.573 173.048 189.033 173.422 188.415 173.564L188.699 171.655Z" fill="#CE8172"/>
<path d="M191.226 168.591C191.226 168.591 191.084 167.505 191.906 167.474C192.728 167.444 192.921 168.997 191.906 169.301L191.226 168.591Z" fill="#F4A28C"/>
<path d="M186.141 166.753C187.045 166.842 187.958 166.777 188.841 166.56C188.841 166.56 189.632 169.605 192.17 170.265C192.17 170.265 194.2 165.434 191.155 163.82C188.628 162.47 186.74 161.252 184.872 163.19C184.599 163.473 184.41 163.827 184.327 164.211C184.244 164.595 184.27 164.995 184.402 165.365C184.534 165.735 184.767 166.061 185.074 166.307C185.381 166.552 185.751 166.707 186.141 166.753Z" fill="#24285B"/>
<path d="M188.912 168.225C188.912 168.225 188.912 166.967 189.927 167.088C190.942 167.21 191.033 168.682 189.815 169.342L188.912 168.225Z" fill="#F4A28C"/>
<path d="M177.219 220.254L176.782 214.854C176.608 212.826 175.846 210.893 174.59 209.292C159.73 190.007 187.785 178.121 187.785 178.121L192.86 177.695C220.387 183.876 210.115 208.145 202.919 220.254H177.219Z" fill="#68E1FD"/>
<path opacity="0.08" d="M177.219 220.254L176.925 216.123C176.925 216.123 178.721 208.805 187.46 214.875C196.199 220.944 201.102 213.941 193.55 205.323C191.426 203.045 190.135 200.115 189.888 197.009C189.641 193.904 190.452 190.806 192.19 188.221L212.805 209.312L207.598 220.254H177.219Z" fill="black"/>
<path d="M215.555 220.254H187.592C185.07 218.47 182.647 216.549 180.335 214.499C177.747 213.798 176.539 209.424 178.711 208.815C180.883 208.206 182.152 211.687 182.152 211.687C182.152 211.687 199.458 223.624 204.553 216.864C206.126 214.773 204.259 211.433 202.858 208.744C200.32 203.963 192.261 195.64 192.21 188.19C192.21 182.1 199.387 178.801 204.157 182.597C210.612 187.672 219.687 196.351 216.144 217.544C215.999 218.457 215.803 219.362 215.555 220.254Z" fill="#F4A28C"/>
<path d="M194.809 178.182C194.809 178.182 195.611 176.03 191.591 175.391C187.572 174.751 184.263 176.325 185.501 179.238C185.461 179.238 188.394 181.806 194.809 178.182Z" fill="#68E1FD"/>
<path opacity="0.46" d="M194.809 178.182C194.809 178.182 195.611 176.03 191.591 175.391C187.572 174.751 184.263 176.325 185.501 179.238C185.461 179.238 188.394 181.806 194.809 178.182Z" fill="white"/>
<path opacity="0.09" d="M252.847 243.507C258.508 243.507 263.098 238.918 263.098 233.256C263.098 227.594 258.508 223.004 252.847 223.004C247.185 223.004 242.595 227.594 242.595 233.256C242.595 238.918 247.185 243.507 252.847 243.507Z" fill="black"/>
</svg>
