<svg width="406" height="306" viewBox="0 0 406 306" fill="none" xmlns="http://www.w3.org/2000/svg">
<path opacity="0.3" d="M108.828 61.9038C74.3893 71.2113 47.1975 93.0237 42.9041 133.167C39.2907 166.997 44.3961 226.73 102.393 236.514C215.251 255.515 307.545 261.757 349.058 209.698C374.718 177.533 382.645 87.4818 318.811 65.5679C275.522 50.7591 182.7 41.9489 108.828 61.9038Z" fill="#E6E6E6"/>
<path d="M322.719 77.9712H78.9163V206.815H322.719V77.9712Z" fill="#E6E6E6"/>
<g opacity="0.12">
<path d="M297.557 153.487H310.032V131.188H297.557V153.487Z" fill="black"/>
<path d="M277.227 153.487H289.701V123.037H277.227V153.487Z" fill="black"/>
<path d="M256.897 153.487H269.371V109.964H256.897V153.487Z" fill="black"/>
<path d="M236.566 153.487H249.041V98.0886H236.566V153.487Z" fill="black"/>
</g>
<path opacity="0.08" d="M106.382 180.75V161.12C106.382 161.12 116.075 173.077 120.359 172.173C124.642 171.27 131.412 155.933 136.142 154.807C140.872 153.68 141.329 162.927 145.622 161.577C149.915 160.227 165.465 133.837 171.779 133.38C178.092 132.923 182.832 148.037 188.912 145.56C194.992 143.083 212.368 111.283 220.935 106.777V180.74L106.382 180.75Z" fill="black"/>
<g opacity="0.08">
<path d="M228.832 187.632H100.404V89.5322H102.434V185.602H228.832V187.632Z" fill="black"/>
</g>
<path opacity="0.08" d="M322.77 141.338V206.795H285.733C284.646 197.203 271.665 194.524 253.07 192.991C232.049 191.245 232.293 153.893 229.43 143.926C226.568 133.959 235.206 134.974 235.206 134.974C235.206 134.974 241.296 163.83 254.734 170.854C268.173 177.878 266.194 162.734 270.254 141.926C274.314 121.119 304.764 128.082 304.764 128.082L306.124 115.902C306.124 115.902 299.007 106.902 298.946 100.203C298.885 93.5037 303.8 98.0378 303.8 98.0378L311.717 101.611L313.513 114.643L322.77 141.338Z" fill="black"/>
<path d="M239.713 140.921C239.713 140.921 240.21 132.74 234.962 130.69C229.715 128.64 234.962 143.52 234.962 143.52L239.713 140.921Z" fill="#F4A28C"/>
<path d="M300.318 130.396C299.375 129.308 298.211 128.433 296.904 127.829C295.596 127.225 294.176 126.906 292.736 126.893C291.295 126.881 289.869 127.175 288.552 127.756C287.234 128.337 286.055 129.192 285.093 130.264C278.528 137.501 274.829 146.884 274.689 156.654C274.009 179.299 258.013 177.056 241.387 139.988L233.338 144.383C233.338 144.383 255.364 217.605 289.011 176.081C309.575 150.818 306.114 137.197 300.318 130.396Z" fill="#68E1FD"/>
<path opacity="0.08" d="M296.837 127.188C295.505 126.205 293.874 125.711 292.22 125.793C290.566 125.874 288.991 126.525 287.763 127.635C283.711 131.319 280.462 135.797 278.216 140.792C275.971 145.786 274.777 151.189 274.71 156.664C274.03 179.309 258.033 177.065 241.408 139.998L233.359 144.393C233.359 144.393 255.384 217.615 289.031 176.091C313.483 145.895 303.901 132.355 296.837 127.188Z" fill="black"/>
<path d="M298.704 122.641C298.704 122.641 334.544 114.613 347.424 121.819C360.305 129.026 335.062 196.848 335.062 196.848L295.477 195.589C295.477 195.589 260.855 129.533 298.704 122.641Z" fill="#68E1FD"/>
<path opacity="0.08" d="M329.875 128.102C329.875 128.102 318.558 135.441 324.313 152.198C330.068 168.956 331.022 180.963 317.421 176.761C303.82 172.559 304.815 153.802 304.815 153.802L290.899 155.943L289.559 182.567L295.446 195.589L329.875 193.427L343.882 189.855L349.058 172.285L339.548 142.535L329.875 128.102Z" fill="black"/>
<path d="M310.468 230.211C310.651 218.985 312.123 208.358 316.761 205.851C322.019 202.948 325.206 216.113 327.084 230.211H336.564V193.011L295.446 195.63L300.846 230.252L310.468 230.211Z" fill="#24285B"/>
<path d="M336.807 119.677C336.807 119.677 359.137 115.932 359.137 151.011C359.137 186.089 353.778 217.331 302.297 186.028L306.215 180.06C306.215 180.06 333.925 192.24 339.822 181.542C345.719 170.844 316.68 125.595 336.807 119.677Z" fill="#68E1FD"/>
<path opacity="0.46" d="M336.807 119.677C336.807 119.677 359.137 115.932 359.137 151.011C359.137 186.089 353.778 217.331 302.297 186.028L306.215 180.06C306.215 180.06 333.925 192.24 339.822 181.542C345.719 170.844 316.68 125.595 336.807 119.677Z" fill="white"/>
<path d="M296.05 150.901L277.17 155.65L284.279 183.911L303.159 179.161L296.05 150.901Z" fill="#FFD200"/>
<path d="M306.205 180.06C306.205 180.06 296.918 172.701 295.446 178.324C293.974 183.947 303.627 183.988 303.627 183.988L306.205 180.06Z" fill="#F4A28C"/>
<path opacity="0.08" d="M189.531 98.0986H166.927V101.905H189.531V98.0986Z" fill="black"/>
<path opacity="0.08" d="M189.531 108.137H166.927V111.943H189.531V108.137Z" fill="black"/>
<path opacity="0.46" d="M159.893 98.0986H153.224V101.905H159.893V98.0986Z" fill="white"/>
<path d="M159.893 108.137H153.224V111.943H159.893V108.137Z" fill="#FFD200"/>
<path opacity="0.46" d="M145.074 106.787C145.085 110.557 143.647 114.188 141.057 116.929C138.468 119.67 134.925 121.312 131.16 121.515C127.395 121.718 123.695 120.468 120.826 118.022C117.956 115.576 116.136 112.121 115.74 108.371C115.345 104.621 116.405 100.863 118.701 97.8722C120.997 94.8815 124.355 92.887 128.079 92.3006C131.804 91.7142 135.612 92.5808 138.716 94.7213C141.82 96.8619 143.983 100.113 144.759 103.803C144.84 104.188 144.901 104.594 144.962 104.99C145.036 105.586 145.073 106.186 145.074 106.787Z" fill="white"/>
<path d="M130.407 92.0999V106.767L144.769 103.783C144.769 103.783 142.76 92.0289 130.407 92.0999Z" fill="#FFD200"/>
<path opacity="0.1" d="M145.074 106.787C145.072 109.442 144.348 112.046 142.982 114.323C141.615 116.599 139.656 118.462 137.314 119.712C134.972 120.962 132.334 121.553 129.682 121.422C127.031 121.291 124.464 120.442 122.257 118.967L130.377 106.787L144.729 103.803C144.81 104.188 144.871 104.594 144.932 104.99C145.016 105.586 145.063 106.186 145.074 106.787Z" fill="black"/>
<path opacity="0.08" d="M131.189 130.873C131.625 130.873 131.757 131.015 131.757 131.452V132.385C132.523 132.46 133.254 132.742 133.871 133.202C134.489 133.662 134.968 134.281 135.259 134.994C135.492 135.451 135.401 135.694 134.883 135.928L133.96 136.354C133.523 136.557 133.32 136.466 133.067 136.019C132.869 135.548 132.526 135.153 132.088 134.892C131.649 134.631 131.138 134.517 130.631 134.568C129.017 134.568 128.286 135.065 128.296 136.141C128.333 136.471 128.484 136.777 128.723 137.007C128.963 137.237 129.275 137.376 129.605 137.4C130.056 137.502 130.514 137.57 130.976 137.603C131.836 137.642 132.687 137.802 133.503 138.08C133.909 138.207 134.288 138.411 134.62 138.678C134.957 139.03 135.221 139.445 135.395 139.9C135.57 140.355 135.651 140.841 135.635 141.328C135.635 143.358 134.274 144.799 131.828 145.174V146.189C131.828 146.616 131.696 146.778 131.26 146.778H130.245C129.808 146.778 129.656 146.636 129.656 146.2V145.235C128.808 145.181 127.994 144.877 127.317 144.363C126.64 143.848 126.13 143.146 125.85 142.343C125.81 142.258 125.789 142.165 125.789 142.071C125.789 141.976 125.811 141.884 125.852 141.799C125.893 141.714 125.952 141.64 126.025 141.581C126.099 141.522 126.185 141.481 126.276 141.46L127.21 141.114C127.677 140.942 127.89 141.053 128.103 141.531C128.299 142.039 128.656 142.468 129.121 142.752C129.585 143.037 130.13 143.16 130.671 143.104C132.417 143.104 133.28 142.535 133.28 141.419C133.291 141.159 133.215 140.904 133.064 140.692C132.913 140.481 132.696 140.326 132.447 140.252C131.844 140.036 131.21 139.917 130.57 139.896C129.701 139.855 128.845 139.677 128.032 139.369C127.63 139.228 127.256 139.018 126.926 138.749C126.588 138.415 126.323 138.014 126.149 137.572C125.974 137.13 125.893 136.656 125.911 136.181C125.911 134.151 127.169 132.761 129.595 132.416V131.492C129.595 131.056 129.737 130.903 130.174 130.903L131.189 130.873Z" fill="black"/>
<path d="M351.86 219.898H48.8215V230.891H351.86V219.898Z" fill="#E6E6E6"/>
<path d="M351.86 230.384H48.8215V255.292H351.86V230.384Z" fill="#C9C9C9"/>
<path opacity="0.08" d="M92.7406 220.233C92.7406 220.233 82.5906 246.329 58.5757 255.281H214.338L211.222 240.96L109.559 219.898L92.7406 220.233Z" fill="black"/>
<path d="M122.642 173.412C122.642 173.412 138.882 185.592 145.805 202.674C146.675 204.787 147.013 207.08 146.791 209.354C146.568 211.628 145.791 213.813 144.528 215.716C143.264 217.62 141.553 219.185 139.544 220.273C137.535 221.361 135.29 221.94 133.006 221.959L113.964 222.091L122.642 173.412Z" fill="#F4A28C"/>
<path d="M103.753 156.979L102.282 165.485L94.6284 166.043L99.2873 152.432L103.753 156.979Z" fill="#F4A28C"/>
<path d="M101.074 144.403C101.739 143.866 102.53 143.505 103.372 143.355C104.214 143.205 105.08 143.27 105.89 143.545C106.7 143.819 107.428 144.294 108.006 144.925C108.583 145.556 108.992 146.322 109.194 147.154C110.209 151.051 110.95 156.756 106.423 157.222C99.5106 157.933 98.3027 149.011 98.3027 149.011C98.754 147.236 99.7177 145.634 101.074 144.403Z" fill="#F4A28C"/>
<path d="M102.403 150.828C102.403 150.828 101.693 149.041 100.272 150.269C98.8509 151.498 100.749 153.477 101.855 153.061C102.962 152.645 102.403 150.828 102.403 150.828Z" fill="#F4A28C"/>
<path d="M74.2473 170.164C74.2473 170.164 92.7 159.922 109.113 166.043C138.994 177.208 137.35 197.214 116.37 254.612L88.8532 254.764L74.2473 170.164Z" fill="#68E1FD"/>
<path opacity="0.08" d="M102.515 164.399C102.515 164.399 100.739 168.773 103.794 181.481C106.849 194.189 122.683 236.788 122.683 236.788L116.41 254.612H106.392L75.5872 169.484C75.5872 169.484 89.5028 162.267 102.515 164.399Z" fill="black"/>
<path d="M108.757 254.764C108.757 254.764 114.411 176.223 80.8853 170.164C47.3598 164.104 36.2253 192.91 55.8148 254.764H108.757Z" fill="#FFD200"/>
<path d="M100.566 254.764C100.566 254.764 106.23 176.223 72.7044 170.164C39.179 164.104 28.0444 192.91 47.6238 254.764H100.566Z" fill="#FFD200"/>
<path opacity="0.08" d="M100.566 254.764C100.566 254.764 106.23 176.223 72.7044 170.164C39.179 164.104 28.0444 192.91 47.6238 254.764H100.566Z" fill="black"/>
<path d="M92.8927 161.12C94.007 159.674 94.7497 157.977 95.0558 156.177C95.362 154.378 95.2222 152.53 94.6487 150.797C93.8062 148.138 93.8671 144.707 96.8817 141.155C103.571 133.228 113.122 138.82 109.955 143.327C106.788 147.834 105.052 149.874 105.052 149.874C105.052 149.874 116.593 162.054 110.574 169.402C105.225 175.949 83.3619 173.168 92.8927 161.12Z" fill="#24285B"/>
<path d="M197.062 156.979L195.591 165.485L187.938 166.043L192.596 152.432L197.062 156.979Z" fill="#F4A28C"/>
<path d="M194.383 144.403C195.048 143.866 195.839 143.505 196.681 143.355C197.523 143.205 198.389 143.27 199.199 143.545C200.01 143.819 200.737 144.294 201.315 144.925C201.892 145.556 202.301 146.322 202.503 147.154C203.518 151.051 204.249 156.756 199.732 157.222C192.82 157.933 191.612 149.011 191.612 149.011C192.063 147.236 193.027 145.634 194.383 144.403Z" fill="#F4A28C"/>
<path d="M195.712 150.828C195.712 150.828 195.002 149.041 193.581 150.269C192.16 151.498 194.058 153.477 195.164 153.061C196.271 152.645 195.712 150.828 195.712 150.828Z" fill="#F4A28C"/>
<path d="M197.438 149.336C197.438 149.336 195.986 158.471 191.551 155.497C187.115 152.523 191.459 150.554 190.972 145.865C190.485 141.175 193.002 139.521 198.138 138.414C200.513 137.907 201.965 137.856 203.01 137.481C203.461 137.302 203.95 137.241 204.43 137.303C204.911 137.366 205.368 137.549 205.759 137.836C206.149 138.123 206.46 138.505 206.663 138.945C206.866 139.385 206.954 139.87 206.918 140.353C206.542 143.966 204.421 147.925 197.438 149.336Z" fill="#24285B"/>
<path d="M167.556 170.164C167.556 170.164 186.009 159.922 202.421 166.043C232.303 177.208 230.557 197.914 209.526 255.363L182.7 255.15L167.556 170.164Z" fill="#68E1FD"/>
<path opacity="0.08" d="M195.895 164.794C195.895 164.794 194.129 169.159 197.184 181.866C200.239 194.574 216.063 237.174 216.063 237.174L209.79 255.007H199.782L169.008 169.869C169.008 169.869 182.883 162.653 195.895 164.794Z" fill="black"/>
<path d="M202.422 255.312C202.422 255.312 207.71 176.223 174.194 170.164C140.679 164.104 129.534 192.91 149.114 254.764L202.422 255.312Z" fill="#FFD200"/>
<path d="M193.865 254.764C193.865 254.764 199.519 176.223 165.993 170.164C132.468 164.104 122.135 193.844 141.735 255.708L193.865 254.764Z" fill="#FFD200"/>
<path opacity="0.08" d="M193.865 255.221C193.865 255.221 199.569 176.223 166.044 170.164C132.518 164.104 122.186 193.844 141.785 255.708L193.865 255.221Z" fill="black"/>
<path d="M199.711 185.978C200.28 175.198 213.972 170.834 220.742 179.248C225.98 185.744 229.583 195.316 229.167 209.424C228.916 217.93 230.423 226.395 233.595 234.291C236.767 242.187 241.534 249.344 247.599 255.312H228.05C228.05 255.312 211.445 235.682 202.421 204.694C200.148 196.879 199.458 190.758 199.711 185.978Z" fill="#68E1FD"/>
<path d="M307.57 86.1974C307.405 85.0664 307.101 83.7768 307.208 82.639C307.251 82.1894 307.332 81.969 307.669 81.6845C308.041 81.6977 308.285 81.801 308.583 82.0394C308.835 82.2406 308.846 82.5128 308.88 82.8098C308.956 83.8772 309.099 84.9271 309.25 85.9856L307.57 86.1974Z" fill="#25285B"/>
<path d="M301.28 106.257C300.723 106.276 300.028 106.361 299.527 106.071C299.051 105.795 298.895 105.515 298.745 105C298.414 103.864 297.508 97.992 297.987 97.2256C298.427 96.5201 299.251 96.4162 299.998 96.2892C300.398 99.6096 300.943 102.932 301.28 106.257Z" fill="#25285B"/>
<path d="M319.029 93.6009C319.718 93.5337 320.352 93.4486 320.925 93.9347C321.256 94.2164 321.538 94.5999 321.813 94.9367C322.085 96.6744 323.23 101.164 322.251 102.615C321.964 103.042 321.581 103.235 321.084 103.308C320.827 103.345 320.569 103.375 320.31 103.399C319.821 100.146 319.455 96.8638 319.029 93.6009Z" fill="#25285B"/>
<path d="M306.863 110.928C310.243 111.269 313.45 109.615 316.805 109.88L317.106 111.689C317.405 113.839 318.072 117.106 317.71 118.999C316.594 120.833 310.887 121.535 309.218 120.808C308.761 120.609 308.522 120.386 308.208 119.555C307.576 117.886 307.394 115.232 307.165 113.331L306.863 110.928Z" fill="#FFD200"/>
<path d="M313.043 115.859C309.652 116.598 308.056 113.011 306.955 111.603L316.91 110.422C316.474 111.843 317.533 114.88 313.043 115.859Z" fill="#E5BF0B"/>
<path d="M309.25 85.9851C309.098 84.9266 308.956 83.8768 308.88 82.8093L309.301 85.9633C311.867 85.9805 315.307 85.8974 317.241 87.8809C318.722 89.3987 318.777 91.616 319.029 93.6002C319.454 96.8631 319.82 100.146 320.31 103.399C320.494 104.752 321.353 107.843 320.526 108.97C319.814 109.94 318.013 110.215 316.878 110.436C313.573 110.543 310.28 111.548 306.954 111.622C305.658 111.692 303.59 112.014 302.519 111.136C301.417 110.231 301.437 107.623 301.28 106.256C300.943 102.932 300.398 99.609 299.998 96.2886C300.063 93.92 299.022 92.2152 300.521 89.9748C302.014 87.7433 305.067 86.7063 307.57 86.1969L309.25 85.9851Z" fill="#FFD200"/>
<path d="M300.227 96.9784C300.12 95.9652 299.951 95.1734 299.855 94.1592C299.727 92.7729 299.674 91.6287 300.242 90.5527C301.988 87.2477 306.668 85.6793 309.988 87.4194C309.988 87.4194 312.01 88.2313 313.079 90.939C313.945 93.1345 313.625 95.9563 313.857 96.4975C313.412 97.5242 313.099 98.6316 313.288 99.9693C313.394 100.728 313.62 101.408 313.922 102.045C313.693 102.822 313.518 103.627 313.257 104.38C312.387 106.893 310.92 108.718 309.322 110.062C308.134 111.062 307.446 111.367 305.938 111.538C304.776 111.67 303.316 112.213 302.271 110.915C301.121 109.485 301.323 106.512 301.111 104.514C300.757 101.579 300.607 99.9089 300.227 96.9784Z" fill="#FFE56E"/>
<path d="M303.036 97.5737C305.413 97.1502 307.857 96.9172 310.253 96.6024C312.163 96.3515 314.15 95.9649 316.074 95.8932C316.835 95.865 317.557 95.9217 318.128 96.4873C318.772 97.1253 318.98 98.1292 318.962 99.0094C318.937 100.269 318.387 101.09 317.525 101.928C315.9 102.455 306.167 103.735 304.461 103.677C303.66 103.65 302.984 103.34 302.447 102.733C301.82 102.023 301.569 100.981 301.632 100.046C301.706 98.9495 302.234 98.2562 303.036 97.5737Z" fill="#25285B"/>
<path d="M312.719 98.0377C314.147 97.8026 315.597 97.6515 317.032 97.4653C317.151 98.3035 317.261 99.143 317.361 99.9837C316.007 100.37 314.44 100.442 313.038 100.616L312.719 98.0377Z" fill="#FFD200"/>
<path d="M303.656 99.1809C305.011 98.9897 306.372 98.8319 307.729 98.6606C307.835 99.3673 308.182 100.667 307.895 101.296L303.698 101.848C303.587 101.04 303.403 100.18 303.445 99.3657L303.656 99.1809Z" fill="#FFD200"/>
<path d="M305.027 97.6915C305.698 97.5573 306.261 97.5057 306.906 97.7777C307.582 98.0629 308.094 98.6319 308.354 99.3102C308.37 99.3528 308.386 99.3957 308.4 99.4391C308.414 99.4824 308.428 99.5261 308.44 99.5701C308.452 99.6141 308.463 99.6583 308.473 99.7028C308.483 99.7473 308.492 99.7921 308.5 99.837C308.507 99.882 308.514 99.9271 308.519 99.9724C308.525 100.018 308.529 100.063 308.533 100.109C308.536 100.154 308.538 100.2 308.539 100.245C308.54 100.291 308.54 100.337 308.538 100.382C308.537 100.428 308.535 100.473 308.531 100.519C308.528 100.564 308.523 100.61 308.517 100.655C308.511 100.7 308.504 100.745 308.496 100.79C308.488 100.835 308.479 100.88 308.469 100.925C308.459 100.969 308.447 101.013 308.435 101.057C308.422 101.101 308.409 101.145 308.394 101.188C308.379 101.231 308.364 101.274 308.347 101.317C308.33 101.359 308.312 101.401 308.294 101.443C307.942 102.207 307.345 102.63 306.578 102.925C305.987 103.043 305.43 103.043 304.855 102.84C304.178 102.6 303.59 102.098 303.291 101.443C303.272 101.402 303.255 101.36 303.238 101.318C303.222 101.275 303.206 101.233 303.192 101.19C303.178 101.147 303.165 101.103 303.153 101.06C303.14 101.016 303.13 100.972 303.12 100.928C303.11 100.883 303.101 100.839 303.093 100.794C303.086 100.75 303.079 100.705 303.074 100.66C303.069 100.615 303.065 100.57 303.062 100.524C303.059 100.479 303.057 100.434 303.056 100.388C303.055 100.343 303.055 100.298 303.057 100.253C303.059 100.207 303.061 100.162 303.065 100.117C303.069 100.072 303.074 100.027 303.08 99.9815C303.086 99.9366 303.094 99.8919 303.102 99.8474C303.11 99.8028 303.12 99.7584 303.131 99.7143C303.141 99.6702 303.153 99.6264 303.166 99.5829C303.179 99.5394 303.193 99.4962 303.208 99.4534C303.223 99.4106 303.239 99.3682 303.256 99.3261C303.595 98.4876 304.221 98.0412 305.027 97.6915Z" fill="#1AAEE0"/>
<path d="M313.141 97.2199C313.786 96.6354 314.517 96.2347 315.415 96.2812C315.459 96.284 315.504 96.2878 315.549 96.2927C315.594 96.2977 315.638 96.3037 315.683 96.3109C315.727 96.318 315.771 96.3262 315.816 96.3356C315.86 96.345 315.903 96.3555 315.947 96.367C315.99 96.3785 316.033 96.391 316.076 96.4047C316.119 96.4184 316.162 96.4332 316.204 96.4489C316.246 96.4647 316.288 96.4816 316.329 96.4994C316.37 96.5173 316.411 96.5362 316.451 96.556C316.492 96.5759 316.531 96.5967 316.571 96.6186C316.61 96.6405 316.649 96.6633 316.687 96.6872C316.725 96.7109 316.762 96.7356 316.799 96.7612C316.836 96.7869 316.872 96.8135 316.908 96.8409C316.943 96.8684 316.978 96.8967 317.012 96.9259C317.046 96.955 317.08 96.9851 317.112 97.016C317.145 97.0468 317.177 97.0784 317.208 97.1108C317.239 97.1432 317.269 97.1764 317.298 97.2103C317.329 97.2458 317.36 97.282 317.389 97.319C317.419 97.3559 317.447 97.3937 317.475 97.4321C317.503 97.4705 317.529 97.5095 317.555 97.5493C317.581 97.5889 317.605 97.6292 317.629 97.6702C317.653 97.7112 317.675 97.7527 317.697 97.7947C317.718 97.8368 317.739 97.8793 317.758 97.9224C317.778 97.9655 317.796 98.009 317.813 98.053C317.83 98.097 317.846 98.1414 317.861 98.1862C317.876 98.231 317.89 98.2761 317.903 98.3216C317.916 98.3671 317.927 98.4129 317.938 98.459C317.948 98.505 317.957 98.5513 317.966 98.5979C317.974 98.6443 317.981 98.691 317.986 98.7379C317.992 98.7848 317.997 98.8318 318 98.8789C318.004 98.926 318.006 98.9732 318.007 99.0204C318.008 99.0676 318.008 99.1148 318.006 99.162C318.005 99.2093 318.003 99.2565 317.999 99.3035C317.948 99.9815 317.645 100.63 317.123 101.076C316.553 101.561 315.75 101.797 315.005 101.737C314.293 101.681 313.656 101.349 313.145 100.863C312.841 100.468 312.616 100.038 312.515 99.5468C312.336 98.6814 312.671 97.9291 313.141 97.2199Z" fill="#1AAEE0"/>
<path d="M314.942 97.5682C315.213 97.5553 315.466 97.5671 315.722 97.6651C316.126 97.8193 316.464 98.1131 316.635 98.5123C316.654 98.5555 316.67 98.5994 316.685 98.6442C316.699 98.6891 316.711 98.7346 316.72 98.7806C316.73 98.8266 316.737 98.873 316.742 98.9198C316.746 98.9666 316.749 99.0136 316.749 99.0606C316.748 99.1077 316.746 99.1546 316.741 99.2014C316.736 99.2481 316.728 99.2946 316.718 99.3406C316.709 99.3866 316.696 99.432 316.682 99.4768C316.667 99.5216 316.65 99.5655 316.631 99.6086C316.419 100.081 316.024 100.3 315.56 100.468C315.266 100.493 314.987 100.507 314.703 100.406C314.654 100.389 314.606 100.369 314.559 100.347C314.512 100.324 314.467 100.3 314.422 100.273C314.378 100.246 314.335 100.216 314.294 100.185C314.253 100.153 314.214 100.12 314.176 100.084C314.139 100.048 314.103 100.01 314.07 99.971C314.036 99.9315 314.005 99.8904 313.976 99.8475C313.946 99.8048 313.92 99.7605 313.895 99.7148C313.871 99.6692 313.849 99.6224 313.83 99.5744C313.812 99.5297 313.797 99.4844 313.784 99.4383C313.771 99.3921 313.761 99.3455 313.752 99.2984C313.744 99.2513 313.738 99.2038 313.734 99.1561C313.731 99.1083 313.729 99.0604 313.731 99.0125C313.732 98.9647 313.735 98.917 313.741 98.8694C313.747 98.8219 313.755 98.7747 313.765 98.7279C313.776 98.6812 313.789 98.6351 313.804 98.5895C313.819 98.544 313.836 98.4993 313.855 98.4555C314.073 97.9692 314.461 97.7373 314.942 97.5682Z" fill="white"/>
<path d="M305.268 98.8841C305.639 98.8205 305.981 98.7852 306.346 98.9179C306.88 99.1123 307.113 99.5426 307.34 100.021C307.32 100.202 307.296 100.384 307.254 100.561C307.128 101.101 306.825 101.389 306.373 101.67C306.108 101.729 305.83 101.775 305.559 101.731C305.507 101.722 305.455 101.711 305.404 101.697C305.353 101.684 305.303 101.667 305.254 101.648C305.205 101.629 305.156 101.607 305.109 101.583C305.063 101.559 305.017 101.533 304.973 101.504C304.929 101.475 304.886 101.444 304.845 101.411C304.804 101.378 304.765 101.343 304.728 101.305C304.691 101.268 304.656 101.229 304.623 101.188C304.59 101.147 304.559 101.105 304.53 101.061C304.505 101.021 304.482 100.98 304.46 100.938C304.439 100.896 304.42 100.854 304.403 100.81C304.386 100.766 304.371 100.722 304.359 100.676C304.346 100.631 304.336 100.585 304.328 100.539C304.32 100.493 304.315 100.446 304.312 100.399C304.308 100.352 304.307 100.306 304.309 100.259C304.31 100.212 304.314 100.165 304.32 100.119C304.326 100.072 304.334 100.026 304.345 99.9801C304.469 99.4449 304.819 99.1501 305.268 98.8841Z" fill="white"/>
</svg>
