<svg width="406" height="306" viewBox="0 0 406 306" fill="none" xmlns="http://www.w3.org/2000/svg">
<path d="M354.418 49.3687H50.547V270.172H354.418V49.3687Z" fill="#F2F2F2"/>
<path d="M354.641 49.2466H50.6587V92.3435H354.641V49.2466Z" fill="#E6E6E6"/>
<path d="M77.9216 76.8042C80.9655 76.8042 83.4331 74.3366 83.4331 71.2927C83.4331 68.2488 80.9655 65.7812 77.9216 65.7812C74.8777 65.7812 72.4102 68.2488 72.4102 71.2927C72.4102 74.3366 74.8777 76.8042 77.9216 76.8042Z" fill="#24285B"/>
<path d="M94.3037 76.7631C97.3476 76.7631 99.8151 74.2956 99.8151 71.2517C99.8151 68.2078 97.3476 65.7402 94.3037 65.7402C91.2598 65.7402 88.7922 68.2078 88.7922 71.2517C88.7922 74.2956 91.2598 76.7631 94.3037 76.7631Z" fill="#68E1FD"/>
<path d="M109.752 76.7226C112.796 76.7226 115.263 74.255 115.263 71.2112C115.263 68.1673 112.796 65.6997 109.752 65.6997C106.708 65.6997 104.24 68.1673 104.24 71.2112C104.24 74.255 106.708 76.7226 109.752 76.7226Z" fill="#FFD200"/>
<path d="M202.767 62.8071H197.854V78.0017H202.767V62.8071Z" fill="#FFD200"/>
<path d="M184.616 35.8755L218.179 37.1296L217.308 60.4584C217.245 62.1235 216.524 63.6958 215.303 64.8292C214.081 65.9626 212.46 66.5644 210.794 66.5022L189.799 65.7177C188.133 65.6554 186.561 64.9343 185.428 63.7128C184.294 62.4914 183.693 60.8697 183.755 59.2046L184.626 35.8759L184.616 35.8755Z" fill="#FFD200"/>
<path d="M209.608 74.1343H191.906V87.5018H209.608V74.1343Z" fill="#24285B"/>
<path opacity="0.13" d="M205.507 77.2305H196.017V84.3964H205.507V77.2305Z" fill="white"/>
<path d="M198.493 58.7266H182.324C179.864 58.7266 177.504 57.7492 175.765 56.0094C174.025 54.2696 173.047 51.9099 173.047 49.4495C173.047 46.989 174.025 44.6294 175.765 42.8896C177.504 41.1498 179.864 40.1724 182.324 40.1724H198.493V58.7266ZM182.324 42.3648C180.454 42.3648 178.659 43.108 177.336 44.4309C176.013 45.7538 175.27 47.5481 175.27 49.419C175.27 51.2899 176.013 53.0842 177.336 54.4071C178.659 55.73 180.454 56.4733 182.324 56.4733H196.271V42.3648H182.324Z" fill="#FFD200"/>
<path d="M221.382 58.7266H205.223V40.1724H221.382C223.842 40.1724 226.202 41.1498 227.942 42.8896C229.681 44.6294 230.659 46.989 230.659 49.4495C230.659 51.9099 229.681 54.2696 227.942 56.0094C226.202 57.7492 223.842 58.7266 221.382 58.7266ZM207.436 56.5037H221.382C222.379 56.6236 223.391 56.5306 224.349 56.2308C225.308 55.931 226.193 55.4314 226.944 54.7647C227.696 54.0981 228.297 53.2797 228.709 52.3634C229.121 51.4472 229.334 50.4541 229.334 49.4495C229.334 48.4449 229.121 47.4517 228.709 46.5355C228.297 45.6193 227.696 44.8008 226.944 44.1342C226.193 43.4676 225.308 42.9679 224.349 42.6681C223.391 42.3684 222.379 42.2754 221.382 42.3952H207.436V56.5037Z" fill="#FFD200"/>
<path opacity="0.43" d="M188.15 41.9896C187.491 46.8718 187.044 57.3364 194.372 61.4878C194.565 61.6555 194.815 61.7443 195.07 61.7363C195.326 61.7282 195.569 61.6241 195.751 61.4445C195.933 61.265 196.041 61.0234 196.052 60.768C196.064 60.5125 195.979 60.2621 195.814 60.0668C193.946 56.9 191.754 50.9318 193.378 42.0911C193.439 41.7623 193.427 41.424 193.342 41.1003C193.258 40.7767 193.103 40.4757 192.889 40.2188C192.674 39.9619 192.406 39.7554 192.103 39.6142C191.8 39.4729 191.469 39.4002 191.135 39.4014C190.411 39.4077 189.713 39.6716 189.166 40.146C188.619 40.6203 188.259 41.2739 188.15 41.9896Z" fill="white"/>
<path d="M184.872 81.9502L188.648 90.7096C185.867 91.0344 148.647 112.806 149.976 132C151.306 151.193 192.241 159.405 176.955 186.678C161.669 213.951 131.026 165.809 128.702 150.524C126.378 135.238 120.409 102.413 184.872 81.9502Z" fill="#68E1FD"/>
<path d="M188.648 90.6788C191.439 90.3439 196.159 85.0253 191.764 78.3466C187.369 71.6679 184.872 81.9499 184.872 81.9499C184.872 81.9499 187.907 90.7702 188.648 90.6788Z" fill="#F4A28C"/>
<path d="M215.353 83.584L211.577 92.3333C214.358 92.6682 251.578 114.43 250.248 133.623C248.919 152.817 209.019 157.841 224.305 185.084C239.591 212.327 269.188 167.433 271.523 152.147C273.857 136.861 279.815 104.067 215.353 83.584Z" fill="#68E1FD"/>
<path opacity="0.46" d="M184.872 81.9502L188.648 90.7096C185.867 91.0344 148.647 112.806 149.976 132C151.306 151.193 192.241 159.405 176.955 186.678C161.669 213.951 131.026 165.809 128.702 150.524C126.378 135.238 120.409 102.413 184.872 81.9502Z" fill="white"/>
<path opacity="0.46" d="M215.353 83.584L211.577 92.3333C214.358 92.6682 251.578 114.43 250.248 133.623C248.919 152.817 209.019 157.841 224.305 185.084C239.591 212.327 269.188 167.433 271.523 152.147C273.857 136.861 279.815 104.067 215.353 83.584Z" fill="white"/>
<path d="M215.353 83.584C215.353 83.584 212.856 73.3223 208.461 80.001C204.066 86.6797 208.786 91.9983 211.577 92.3333L215.353 83.584Z" fill="#F4A28C"/>
<path d="M187.653 151.62H200.97C200.97 151.62 247.731 152.838 244.209 190.058C240.687 227.278 220.752 258.519 220.752 258.519L172.753 255.779C172.753 255.779 120.653 153.091 187.653 151.62Z" fill="#68E1FD"/>
<path d="M188.304 145.73C188.304 145.73 177.219 150.483 181.543 164.439C185.867 178.395 195.956 191.407 195.956 191.407L200.26 189.905C200.26 189.905 180.437 162.168 188.059 151.551L188.304 145.73Z" fill="#24285B"/>
<path d="M199.529 145.509C199.529 145.509 208.664 147.042 206.634 164.439C205.563 173.353 203.441 182.11 200.31 190.525L195.844 190.301C195.844 190.301 204.455 166.773 199.529 151.633V145.509Z" fill="#24285B"/>
<path opacity="0.09" d="M190.485 202.349L187.491 225.451L191.419 220.518C191.419 220.518 195.763 228.455 195.641 227.917C195.519 227.379 198.067 204.288 198.067 204.288L190.485 202.349Z" fill="black"/>
<path opacity="0.09" d="M204.665 202.349L207.71 225.451L203.792 220.518C203.792 220.518 199.437 228.455 199.569 227.917C199.701 227.379 197.133 204.288 197.133 204.288L204.665 202.349Z" fill="black"/>
<path d="M197.407 208.653C204.145 208.653 209.608 203.19 209.608 196.452C209.608 189.714 204.145 184.252 197.407 184.252C190.669 184.252 185.207 189.714 185.207 196.452C185.207 203.19 190.669 208.653 197.407 208.653Z" fill="#FFD200"/>
<path d="M223.381 270.111L220.752 258.489L172.753 255.749L171.444 270.111H223.381Z" fill="#24285B"/>
<path opacity="0.08" d="M133.249 218.924H51.2271V249.527H133.249V218.924Z" fill="#666666"/>
<path d="M121.851 213.474H43.1172V244.076H121.851V213.474Z" fill="#E6E6E6"/>
<path d="M128.286 213.413H36.6923V244.015H128.286V213.413Z" fill="#CCCCCC"/>
<path d="M53.2773 221.137L55.3276 225.278L59.8951 225.938L56.5862 229.165L57.3678 233.723L53.2773 231.571L49.1869 233.723L49.9684 229.165L46.6595 225.938L51.2372 225.278L53.2773 221.137Z" fill="white"/>
<path d="M67.8832 221.137L69.9233 225.278L74.501 225.938L71.1921 229.165L71.9736 233.723L67.8832 231.571L63.7927 233.723L64.5743 229.165L61.2654 225.938L65.8329 225.278L67.8832 221.137Z" fill="white"/>
<path d="M82.489 221.137L84.5292 225.278L89.1068 225.938L85.7979 229.165L86.5795 233.723L82.489 231.571L78.3986 233.723L79.1801 229.165L75.8712 225.938L80.4387 225.278L82.489 221.137Z" fill="white"/>
<path d="M97.0847 221.137L99.135 225.278L103.703 225.938L100.404 229.165L101.175 233.723L97.0847 231.571L93.0044 233.723L93.7758 229.165L90.4669 225.938L95.0446 225.278L97.0847 221.137Z" fill="white"/>
<path d="M111.691 221.137L113.741 225.278L118.308 225.938L114.999 229.165L115.781 233.723L111.691 231.571L107.6 233.723L108.382 229.165L105.073 225.938L109.65 225.278L111.691 221.137Z" fill="white"/>
<path d="M308.073 198.979H261.687V204.633H308.073V198.979Z" fill="#CCCCCC"/>
<path d="M338.787 198.979H315.462V204.633H338.787V198.979Z" fill="#CCCCCC"/>
<path opacity="0.8" d="M274.253 214.001H247.305V219.655H274.253V214.001Z" fill="#CCCCCC"/>
<path opacity="0.8" d="M338.787 214.001H282.292V219.655H338.787V214.001Z" fill="#CCCCCC"/>
<path opacity="0.5" d="M338.787 229.013H247.305V234.667H338.787V229.013Z" fill="#CCCCCC"/>
<path opacity="0.2" d="M310.925 244.035H247.305V249.689H310.925V244.035Z" fill="#CCCCCC"/>
<path d="M79.5049 156.502H66.1678V190.525H79.5049V156.502Z" fill="#E6E6E6"/>
<path d="M98.9118 140.932H85.5747V190.525H98.9118V140.932Z" fill="#E6E6E6"/>
<path d="M118.319 122.489H104.981V190.535H118.319V122.489Z" fill="#CCCCCC"/>
<path d="M337.376 111.111V187.368H316.304V137.399C313.204 139.793 309.891 141.9 306.408 143.692C302.548 145.556 298.538 147.094 294.421 148.29V131.208C301.506 128.927 307.01 126.184 310.935 122.976C314.862 119.769 318.01 115.712 320.141 111.111H337.376Z" fill="#E6E6E6"/>
<path d="M298.268 179.157L298.897 176.01H295.852V172.579H299.567L300.46 168.134H303.992L303.089 172.579H305.819L306.713 168.134H310.225L309.342 172.579H311.057V176.01H308.651L308.022 179.157H311.067V182.587H307.352L306.479 186.952H302.947L303.82 182.587H301.079L300.196 186.952H296.695L297.568 182.587H295.872V179.157H298.268ZM301.79 179.157H304.5L305.129 176.01H302.47L301.79 179.157Z" fill="#E6E6E6"/>
<path d="M111.65 104.879L113.832 109.314L118.725 110.025L115.182 113.476L116.025 118.348L111.65 116.044L107.265 118.348L108.108 113.476L104.565 110.025L109.458 109.314L111.65 104.879Z" fill="#FFD200"/>
<path opacity="0.5" d="M85.5746 103.783H69.4463V107.193H85.5746V103.783Z" fill="#CCCCCC"/>
<path opacity="0.2" d="M85.5746 114.247H69.4463V117.657H85.5746V114.247Z" fill="#CCCCCC"/>
<path opacity="0.5" d="M92.9842 103.783H88.8024V107.193H92.9842V103.783Z" fill="#CCCCCC"/>
<path opacity="0.2" d="M92.9842 114.247H88.8024V117.657H92.9842V114.247Z" fill="#CCCCCC"/>
<path d="M188.849 144.689C191.504 144.942 197.219 144.977 199.876 144.732L199.873 146.273L199.849 152.108C199.813 153.066 200.168 155.239 199.294 155.964C198.117 156.939 192.195 156.665 190.377 156.58C190.058 156.565 189.856 156.529 189.576 156.409C189.314 156.285 189.035 156.156 188.822 155.978C187.659 155.005 188.146 150.143 188.151 148.58C188.157 147.686 187.751 145.666 188.27 144.904C188.391 144.726 188.617 144.737 188.849 144.689Z" fill="#FFD200"/>
<path d="M194.828 107.169C194.42 106.853 194.059 106.614 193.969 106.068C193.927 105.813 193.98 105.559 194.141 105.354C194.475 104.931 195.067 104.764 195.584 104.743C196.054 104.723 196.678 104.815 197.017 105.174C197.197 105.365 197.303 105.57 197.299 105.84C197.291 106.452 196.857 106.875 196.433 107.249L196.43 110.002C196.44 110.435 196.5 110.841 196.267 111.223C195.829 111.495 195.384 111.424 194.884 111.357C194.844 110.933 194.848 110.5 194.835 110.074L194.828 107.169Z" fill="#25285B"/>
<path d="M212.968 124.228C213.822 124.192 214.691 124.119 215.545 124.168C216.282 124.596 216.77 124.969 217.265 125.682C217.332 127.801 217.308 129.927 217.308 132.047C217.308 133.234 217.4 134.515 217.244 135.689C217.169 136.249 217.014 136.943 216.624 137.37C215.753 138.323 214.042 138.135 212.872 138.166C212.819 135.682 212.86 133.188 212.859 130.703C212.858 128.553 212.791 126.373 212.968 124.228Z" fill="#25285B"/>
<path d="M177.237 124.347C177.85 123.542 177.978 122.081 178.273 121.104C178.935 118.913 180.465 116.567 182.054 114.963C185.588 111.396 189.938 110.091 194.835 110.074C194.848 110.5 194.844 110.933 194.884 111.357C194.685 111.086 194.588 110.855 194.227 110.798C192.416 110.517 189.239 112.778 187.931 113.888C184.4 116.883 182.437 120.827 182.067 125.455C181.694 130.115 181.445 137.836 184.572 141.581C186.063 143.366 187.666 143.792 189.523 144.876C189.688 144.972 189.756 145.093 189.816 145.27C189.628 145.318 189.445 145.307 189.347 145.485C188.926 146.247 189.255 148.267 189.25 149.161L189.15 149.203C189.074 147.918 189.127 146.603 189.127 145.315C187.196 145.277 184.901 145.6 183.028 145.21C180.71 144.726 179.216 142.669 178.403 140.577C178.148 139.921 177.925 138.932 177.514 138.373C177.347 138.146 176.828 138.147 176.549 138.104C176.271 138.052 176.014 138.001 175.793 137.812C175.28 137.376 174.97 136.672 174.912 136.008C174.761 134.285 174.682 127.24 174.939 125.725C174.985 125.453 175.069 125.243 175.259 125.038C175.809 124.447 176.479 124.374 177.237 124.347Z" fill="#FFD200"/>
<path d="M177.237 124.347C178.006 124.37 178.656 124.349 179.219 124.96C179.601 125.374 179.815 125.891 179.9 126.444C180.164 128.166 179.871 131.085 179.855 132.916C179.845 133.974 179.995 135.08 179.904 136.128C179.855 136.702 179.729 137.265 179.257 137.637C178.537 138.205 177.418 138.097 176.549 138.104C176.271 138.052 176.014 138.001 175.793 137.813C175.28 137.376 174.97 136.672 174.912 136.008C174.761 134.285 174.682 127.24 174.939 125.725C174.985 125.453 175.069 125.243 175.259 125.038C175.809 124.447 176.479 124.374 177.237 124.347Z" fill="#25285B"/>
<path d="M196.43 110.002C200.847 110.239 204.907 112.058 207.885 115.361C209.58 117.24 210.969 119.666 211.702 122.091C211.851 122.582 212.146 124.17 212.523 124.335L212.968 124.228C212.791 126.373 212.858 128.552 212.859 130.703C212.86 133.188 212.819 135.682 212.872 138.166C212.56 140.429 211.966 142.394 210.059 143.847C206.77 146.352 199.978 144.456 198.752 145.313C196.599 145.558 191.967 145.523 189.816 145.27C189.756 145.093 189.688 144.972 189.523 144.876C187.666 143.792 186.063 143.366 184.572 141.581C181.445 137.836 181.694 130.115 182.067 125.455C182.437 120.827 184.4 116.883 187.931 113.888C189.239 112.778 192.416 110.517 194.227 110.798C194.588 110.855 194.685 111.086 194.884 111.357C195.384 111.424 195.829 111.495 196.268 111.223C196.501 110.841 196.44 110.435 196.43 110.002Z" fill="#FFE56E"/>
<path d="M186.947 125.12C191.402 124.916 195.938 125.1 200.401 125.096C202.221 125.095 205.82 124.868 207.412 125.134C208.614 125.334 209.5 126.363 210.16 127.306C210.485 129.043 210.678 135.052 210.016 136.562C209.588 137.537 208.934 138.048 207.959 138.421C204.984 138.568 201.942 138.429 198.961 138.429C196.614 138.428 188.075 138.769 186.347 138.185C185.663 137.954 185.078 137.209 184.806 136.563C184.282 135.316 184.248 128.422 184.754 127.157C185.184 126.084 185.933 125.561 186.947 125.12Z" fill="#25285B"/>
<path d="M191.023 128.417C191.869 128.368 192.567 128.401 193.311 128.845C194.092 129.31 194.622 130.095 194.824 130.971C194.837 131.026 194.849 131.082 194.859 131.137C194.869 131.193 194.878 131.249 194.885 131.305C194.892 131.361 194.898 131.417 194.903 131.473C194.908 131.529 194.911 131.586 194.913 131.642C194.914 131.699 194.915 131.755 194.914 131.812C194.913 131.868 194.91 131.924 194.906 131.981C194.903 132.037 194.897 132.093 194.891 132.149C194.884 132.205 194.876 132.261 194.867 132.317C194.857 132.373 194.847 132.428 194.835 132.483C194.822 132.539 194.809 132.593 194.794 132.648C194.779 132.702 194.763 132.757 194.745 132.81C194.728 132.864 194.709 132.917 194.689 132.97C194.669 133.023 194.647 133.075 194.624 133.127C194.601 133.179 194.577 133.23 194.552 133.28C194.527 133.331 194.5 133.381 194.472 133.43C194.444 133.479 194.415 133.528 194.385 133.575C193.823 134.452 193.019 134.869 192.029 135.098C191.284 135.141 190.601 135.047 189.931 134.699C189.142 134.289 188.507 133.573 188.252 132.719C188.237 132.665 188.222 132.611 188.209 132.556C188.197 132.502 188.185 132.447 188.175 132.392C188.165 132.336 188.156 132.281 188.149 132.225C188.141 132.17 188.135 132.114 188.131 132.058C188.126 132.002 188.123 131.946 188.122 131.89C188.12 131.834 188.12 131.778 188.121 131.722C188.122 131.666 188.125 131.61 188.129 131.554C188.133 131.498 188.138 131.442 188.145 131.386C188.152 131.33 188.16 131.275 188.17 131.22C188.179 131.164 188.19 131.109 188.203 131.055C188.215 131 188.229 130.946 188.244 130.891C188.26 130.837 188.276 130.784 188.294 130.731C188.312 130.677 188.331 130.625 188.352 130.572C188.373 130.52 188.394 130.469 188.418 130.417C188.441 130.366 188.465 130.316 188.491 130.266C188.517 130.216 188.544 130.167 188.572 130.118C189.131 129.148 189.976 128.708 191.023 128.417Z" fill="#1AAEE0"/>
<path d="M201.05 129.228C201.941 128.622 202.907 128.256 203.998 128.466C204.053 128.477 204.107 128.49 204.161 128.503C204.215 128.517 204.269 128.532 204.322 128.549C204.376 128.565 204.428 128.583 204.481 128.602C204.533 128.621 204.585 128.641 204.636 128.663C204.688 128.684 204.738 128.707 204.789 128.731C204.839 128.755 204.888 128.78 204.937 128.807C204.986 128.834 205.034 128.861 205.082 128.89C205.129 128.919 205.176 128.949 205.222 128.981C205.268 129.012 205.314 129.044 205.358 129.078C205.402 129.111 205.446 129.146 205.488 129.182C205.531 129.217 205.573 129.254 205.614 129.292C205.654 129.33 205.694 129.368 205.733 129.408C205.772 129.448 205.81 129.488 205.847 129.53C205.883 129.572 205.919 129.614 205.954 129.658C205.988 129.701 206.022 129.745 206.055 129.79C206.087 129.835 206.118 129.881 206.148 129.928C206.181 129.977 206.212 130.026 206.242 130.076C206.271 130.127 206.3 130.178 206.327 130.23C206.355 130.282 206.381 130.334 206.405 130.387C206.43 130.44 206.453 130.494 206.475 130.548C206.497 130.602 206.518 130.657 206.537 130.712C206.556 130.768 206.574 130.823 206.59 130.879C206.607 130.935 206.622 130.992 206.635 131.049C206.649 131.106 206.661 131.163 206.672 131.22C206.683 131.278 206.692 131.336 206.7 131.394C206.707 131.451 206.714 131.51 206.719 131.568C206.724 131.626 206.727 131.684 206.729 131.743C206.731 131.801 206.732 131.86 206.731 131.918C206.73 131.977 206.727 132.035 206.723 132.093C206.719 132.152 206.714 132.21 206.707 132.268C206.701 132.326 206.692 132.384 206.683 132.441C206.673 132.499 206.662 132.557 206.649 132.614C206.471 133.436 205.989 134.18 205.272 134.636C204.49 135.134 203.465 135.285 202.563 135.085C201.699 134.894 200.975 134.377 200.431 133.695C200.126 133.158 199.925 132.592 199.885 131.973C199.814 130.881 200.353 130.017 201.05 129.228Z" fill="#1AAEE0"/>
<path d="M203.199 129.963C203.533 129.994 203.841 130.051 204.138 130.216C204.607 130.474 204.971 130.892 205.113 131.41C205.128 131.467 205.141 131.523 205.151 131.581C205.161 131.638 205.167 131.696 205.171 131.754C205.175 131.812 205.176 131.87 205.173 131.928C205.171 131.986 205.166 132.044 205.158 132.102C205.15 132.16 205.138 132.217 205.124 132.273C205.11 132.33 205.093 132.385 205.073 132.44C205.053 132.495 205.03 132.548 205.005 132.601C204.979 132.653 204.951 132.704 204.92 132.754C204.579 133.296 204.057 133.497 203.459 133.623C203.095 133.604 202.751 133.573 202.42 133.401C202.363 133.371 202.308 133.339 202.254 133.304C202.2 133.268 202.148 133.23 202.099 133.19C202.049 133.149 202.002 133.106 201.957 133.06C201.912 133.014 201.869 132.966 201.829 132.916C201.789 132.866 201.752 132.813 201.718 132.759C201.684 132.705 201.652 132.649 201.624 132.592C201.595 132.534 201.57 132.476 201.548 132.415C201.526 132.355 201.507 132.294 201.492 132.232C201.478 132.174 201.467 132.116 201.459 132.057C201.451 131.999 201.446 131.94 201.444 131.881C201.442 131.821 201.443 131.762 201.446 131.703C201.45 131.644 201.457 131.585 201.466 131.526C201.476 131.468 201.488 131.41 201.504 131.353C201.519 131.295 201.537 131.239 201.558 131.183C201.579 131.128 201.602 131.074 201.628 131.02C201.655 130.967 201.683 130.915 201.715 130.865C202.065 130.306 202.58 130.088 203.199 129.963Z" fill="white"/>
<path d="M191.115 129.92C191.58 129.906 192.005 129.921 192.429 130.146C193.051 130.476 193.263 131.044 193.46 131.669C193.404 131.888 193.343 132.106 193.262 132.316C193.014 132.956 192.594 133.257 191.992 133.524C191.657 133.552 191.308 133.56 190.983 133.46C190.921 133.441 190.859 133.418 190.799 133.392C190.739 133.367 190.681 133.338 190.623 133.306C190.566 133.274 190.511 133.24 190.458 133.202C190.404 133.165 190.353 133.124 190.304 133.082C190.254 133.039 190.208 132.994 190.163 132.946C190.119 132.898 190.077 132.848 190.038 132.796C189.998 132.744 189.962 132.69 189.929 132.634C189.895 132.578 189.864 132.521 189.837 132.462C189.813 132.409 189.791 132.355 189.772 132.3C189.753 132.245 189.737 132.189 189.724 132.133C189.711 132.076 189.701 132.019 189.693 131.962C189.685 131.904 189.681 131.846 189.679 131.788C189.677 131.73 189.678 131.672 189.682 131.614C189.686 131.556 189.693 131.498 189.703 131.441C189.713 131.384 189.725 131.327 189.741 131.271C189.756 131.215 189.774 131.16 189.795 131.106C190.039 130.471 190.518 130.17 191.115 129.92Z" fill="white"/>
</svg>
