<svg width="406" height="306" viewBox="0 0 406 306" fill="none" xmlns="http://www.w3.org/2000/svg">
<path opacity="0.3" d="M111.132 62.7158C75.4754 71.2418 47.1062 91.9782 42.1124 130.792C37.8697 163.485 42.2342 221.401 101.896 231.693C217.992 251.729 304.713 251.851 348.338 202.025C375.246 171.27 374.789 77.89 309.758 63.9135C263.758 53.9969 187.572 44.4458 111.132 62.7158Z" fill="#E6E6E6"/>
<path d="M302.297 60.3712V248.633H151.387C147.78 248.633 144.321 247.2 141.77 244.65C139.219 242.099 137.786 238.64 137.786 235.032V61.6501C137.786 58.1505 136.396 54.7943 133.922 52.3198C131.447 49.8453 128.091 48.4551 124.591 48.4551H290.402C291.965 48.4564 293.513 48.7657 294.957 49.3652C296.401 49.9648 297.713 50.8429 298.818 51.9494C299.922 53.0559 300.798 54.3692 301.395 55.8142C301.992 57.2592 302.299 58.8077 302.297 60.3712Z" fill="#68E1FD"/>
<path d="M137.786 61.6501V206.064H111.396V61.6501C111.396 58.1505 112.786 54.7943 115.261 52.3198C117.736 49.8453 121.092 48.4551 124.591 48.4551C128.091 48.4551 131.447 49.8453 133.922 52.3198C136.396 54.7943 137.786 58.1505 137.786 61.6501Z" fill="#24285B"/>
<path d="M137.786 61.6501V206.064H111.396V61.6501C111.396 58.1505 112.786 54.7943 115.261 52.3198C117.736 49.8453 121.092 48.4551 124.591 48.4551C128.091 48.4551 131.447 49.8453 133.922 52.3198C136.396 54.7943 137.786 58.1505 137.786 61.6501Z" fill="#24285B"/>
<path d="M164.998 230.465V237.367C164.998 241.518 158.787 248.034 152.625 248.532V248.582H310.965C313.352 248.582 315.716 248.112 317.921 247.198C320.126 246.285 322.129 244.946 323.816 243.257C325.503 241.569 326.841 239.565 327.754 237.36C328.666 235.154 329.135 232.791 329.134 230.404H164.998V230.465Z" fill="#68E1FD"/>
<path opacity="0.5" d="M164.998 230.465V237.367C164.998 241.518 158.787 248.034 152.625 248.532V248.582H310.965C313.352 248.582 315.716 248.112 317.921 247.198C320.126 246.285 322.129 244.946 323.816 243.257C325.503 241.569 326.841 239.565 327.754 237.36C328.666 235.154 329.135 232.791 329.134 230.404H164.998V230.465Z" fill="white"/>
<g opacity="0.12">
<path d="M180.031 180.192H160.096V215.169H180.031V180.192Z" fill="black"/>
<path d="M212.531 167.403H192.596V215.169H212.531V167.403Z" fill="black"/>
<path d="M245.031 146.91H225.097V215.169H245.031V146.91Z" fill="black"/>
<path d="M277.532 128.265H257.597V215.169H277.532V128.265Z" fill="black"/>
</g>
<path opacity="0.46" d="M211.333 135.105H179.432V140.475H211.333V135.105Z" fill="white"/>
<path opacity="0.46" d="M211.333 149.265H179.432V154.634H211.333V149.265Z" fill="white"/>
<path opacity="0.1" d="M169.505 135.105H160.096V140.475H169.505V135.105Z" fill="black"/>
<path d="M169.505 149.265H160.096V154.634H169.505V149.265Z" fill="#FFD200"/>
<path opacity="0.46" d="M201.244 94.1805C201.243 100.038 198.993 105.671 194.958 109.916C190.923 114.162 185.411 116.695 179.562 116.994C173.713 117.293 167.972 115.334 163.525 111.522C159.079 107.71 156.266 102.335 155.668 96.5087C155.07 90.6823 156.733 84.8487 160.312 80.2128C163.892 75.5769 169.115 72.4927 174.903 71.5973C180.692 70.7018 186.603 72.0635 191.416 75.401C196.229 78.7386 199.576 83.7971 200.767 89.5318C200.879 90.1408 200.99 90.7701 201.072 91.3791C201.191 92.3081 201.249 93.244 201.244 94.1805Z" fill="white"/>
<path d="M178.396 71.333V94.1806L200.726 89.5319C200.726 89.5319 197.651 71.1807 178.396 71.333Z" fill="#FFD200"/>
<path opacity="0.1" d="M201.244 94.1809C201.241 98.3153 200.116 102.371 197.989 105.917C195.863 109.462 192.814 112.364 189.168 114.313C185.522 116.262 181.415 117.185 177.285 116.984C173.156 116.783 169.159 115.466 165.719 113.172L178.417 94.1809L200.747 89.5322C200.858 90.1412 200.97 90.7705 201.051 91.3795C201.177 92.308 201.242 93.2439 201.244 94.1809Z" fill="black"/>
<path opacity="0.46" d="M210.998 77.3115L289.6 77.3115V71.9422L210.998 71.9422V77.3115Z" fill="white"/>
<path opacity="0.46" d="M210.998 89.0347L289.6 89.0347V83.6653L210.998 83.6653V89.0347Z" fill="white"/>
<path opacity="0.46" d="M210.998 100.758L289.6 100.758V95.3885L210.998 95.3885V100.758Z" fill="white"/>
<path opacity="0.46" d="M210.998 112.481H256.135V107.112H210.998V112.481Z" fill="white"/>
<path opacity="0.1" d="M302.074 128.265H248.025V194.473H302.074V128.265Z" fill="black"/>
<path d="M327.236 129.828H253.435V187.033H327.236V129.828Z" fill="#24285B"/>
<path d="M327.236 122.235H253.435V129.817H327.236V122.235Z" fill="#FFD200"/>
<path opacity="0.46" d="M312.315 157.517C312.328 153.054 310.967 148.695 308.418 145.032L307.778 144.19C305.732 141.492 303.088 139.307 300.053 137.806C297.018 136.305 293.676 135.53 290.29 135.542C288.804 135.538 287.321 135.685 285.864 135.979C285.045 136.149 284.235 136.362 283.439 136.618L282.84 136.821C278.862 138.249 275.385 140.802 272.832 144.17L272.182 145.012C269.65 148.685 268.294 153.041 268.294 157.502C268.294 161.963 269.65 166.318 272.182 169.991L272.832 170.834C274.874 173.528 277.513 175.71 280.543 177.209C283.573 178.708 286.91 179.483 290.29 179.471C291.569 179.472 292.846 179.363 294.106 179.147C294.522 179.075 294.939 178.984 295.345 178.893C295.954 178.751 296.563 178.578 297.151 178.385C297.496 178.274 297.831 178.152 298.166 178.02L298.562 177.868C299.411 177.523 300.238 177.127 301.039 176.68L301.201 176.589C302.819 175.666 304.31 174.537 305.637 173.229C305.873 172.999 306.107 172.755 306.337 172.498C306.824 171.981 307.291 171.422 307.738 170.844L308.377 170.001C310.937 166.341 312.312 161.983 312.315 157.517ZM305.515 170.499C305.292 170.742 305.078 170.996 304.845 171.23L304.764 171.321C304.54 171.554 304.317 171.778 304.084 172.001L303.982 172.092C303.759 172.305 303.525 172.519 303.282 172.722L303.17 172.813L302.439 173.402L302.328 173.493L301.556 174.041L301.455 174.102C301.191 174.285 300.917 174.457 300.643 174.62H300.572C300.288 174.782 299.993 174.955 299.699 175.107C299.405 175.269 299.1 175.421 298.796 175.564C298.491 175.706 298.187 175.827 297.882 175.959H297.801C297.496 176.081 297.202 176.183 296.898 176.284H296.776C298.809 173.967 300.297 171.224 301.13 168.256C302.704 168.761 304.216 169.442 305.637 170.286L305.515 170.499ZM283.885 176.345C283.581 176.244 283.276 176.142 282.982 176.02H282.901C282.586 175.888 282.282 175.767 281.987 175.624C281.683 175.482 281.378 175.33 281.074 175.168C280.779 175.015 280.495 174.843 280.211 174.681H280.13C279.856 174.518 279.592 174.346 279.318 174.163L279.216 174.102C278.962 173.919 278.699 173.737 278.455 173.544L278.343 173.463L277.602 172.874L277.501 172.782C277.257 172.579 277.024 172.366 276.79 172.153L276.699 172.062C276.466 171.839 276.232 171.615 276.009 171.382L275.938 171.301C275.704 171.057 275.481 170.803 275.258 170.549C276.683 169.707 278.198 169.027 279.774 168.519C280.604 171.487 282.089 174.23 284.119 176.548L283.885 176.345ZM275.207 144.505C275.42 144.251 275.643 144.007 275.867 143.764C275.891 143.734 275.918 143.707 275.948 143.682C276.171 143.449 276.395 143.216 276.628 143.002L276.729 142.901C276.963 142.688 277.196 142.475 277.44 142.272L277.552 142.18C277.785 141.977 278.029 141.784 278.282 141.592L278.394 141.51C278.651 141.321 278.905 141.138 279.155 140.962L279.267 140.891C279.531 140.708 279.795 140.536 280.069 140.374H280.15L281.013 139.876C281.317 139.714 281.622 139.572 281.926 139.43C282.221 139.298 282.525 139.166 282.84 139.044H282.921L283.824 138.719H283.946C281.916 141.037 280.432 143.78 279.602 146.748C278.025 146.242 276.51 145.561 275.085 144.718L275.207 144.505ZM296.786 138.607L297.689 138.932H297.77L298.684 139.318C298.988 139.46 299.293 139.602 299.587 139.765C299.882 139.927 300.176 140.089 300.46 140.262H300.531C300.805 140.424 301.079 140.597 301.343 140.78L301.445 140.851C301.709 141.023 301.962 141.206 302.216 141.399L302.328 141.48L303.059 142.069L303.17 142.16C303.414 142.363 303.647 142.576 303.871 142.789C303.907 142.82 303.941 142.854 303.972 142.891C304.206 143.104 304.429 143.337 304.652 143.571C304.684 143.592 304.712 143.62 304.733 143.652C304.967 143.896 305.19 144.139 305.403 144.393C303.982 145.237 302.47 145.918 300.897 146.423C300.063 143.455 298.575 140.711 296.542 138.394L296.786 138.607ZM302.47 156.492C302.417 153.827 302.077 151.176 301.455 148.585C303.287 148 305.043 147.196 306.682 146.189C308.795 149.226 310.009 152.797 310.184 156.492H302.47ZM291.305 137.694C294.482 138.354 297.273 142.038 298.907 147.204C296.418 147.823 293.869 148.163 291.305 148.219V137.694ZM289.275 137.694V148.23C286.711 148.173 284.161 147.832 281.673 147.215C283.337 142.038 286.139 138.354 289.275 137.694ZM281.155 149.174C283.813 149.84 286.536 150.211 289.275 150.28V156.492H280.14C280.221 154.024 280.562 151.571 281.155 149.174ZM289.275 158.542V164.764C286.536 164.825 283.812 165.192 281.155 165.86C280.582 163.461 280.262 161.008 280.201 158.542H289.275ZM289.275 166.814V177.36C286.108 176.7 283.307 173.026 281.673 167.86C284.159 167.227 286.71 166.876 289.275 166.814ZM291.305 166.814C293.869 166.865 296.419 167.206 298.907 167.829C297.273 172.996 294.482 176.67 291.305 177.33V166.814ZM299.425 165.86C296.768 165.191 294.044 164.824 291.305 164.764V158.542H300.44C300.386 161.007 300.073 163.46 299.506 165.86H299.425ZM291.305 156.492V150.28C294.044 150.217 296.768 149.846 299.425 149.174C299.998 151.573 300.317 154.026 300.379 156.492H291.305ZM279.125 148.585C278.513 151.178 278.173 153.828 278.11 156.492H270.386C270.568 152.797 271.785 149.227 273.898 146.189C275.537 147.196 277.292 148.001 279.125 148.585ZM278.11 158.542C278.173 161.206 278.513 163.856 279.125 166.449C277.297 167.038 275.546 167.842 273.908 168.844C271.794 165.808 270.577 162.238 270.396 158.542H278.11ZM301.455 166.449C302.077 163.858 302.417 161.207 302.47 158.542H310.194C310.021 162.237 308.807 165.809 306.692 168.844C305.063 167.845 303.322 167.041 301.506 166.449H301.455Z" fill="white"/>
<path d="M132.001 165.87C135.483 174.425 135.656 183.97 132.488 192.646C127.2 207.384 138.72 214.834 116.4 216.803C94.0803 218.772 132.001 165.87 132.001 165.87Z" fill="#68E1FD"/>
<path opacity="0.46" d="M132.001 165.87C135.483 174.425 135.656 183.97 132.488 192.646C127.2 207.384 138.72 214.834 116.4 216.803C94.0803 218.772 132.001 165.87 132.001 165.87Z" fill="white"/>
<path d="M84.1638 248.917H127.616V217.869H84.1638V248.917Z" fill="#E6E6E6"/>
<path opacity="0.08" d="M116.146 248.917L118.237 221.573L126.946 222.903L129.544 233.388L127.616 248.917H116.146Z" fill="black"/>
<path d="M117.233 245.365C117.233 245.365 118.166 247.953 120.511 248.146C122.856 248.339 123.454 250.633 121.353 251.191C119.252 251.75 113.832 249.08 113.832 249.08L113.985 245.71L117.233 245.365Z" fill="#68E1FD"/>
<path d="M116.969 151.874L110.28 150.727C110.28 150.727 88.031 150.727 84.1334 158.38C80.2358 166.033 81.0884 194.361 93.9281 217.646L120.318 218.407C120.318 218.407 118.857 201.304 123.769 192.017C128.682 182.73 143.907 162.896 116.969 151.874Z" fill="#68E1FD"/>
<path d="M93.9281 217.645L106.819 215.707C108.676 215.427 110.573 215.575 112.365 216.14C114.157 216.705 115.796 217.671 117.157 218.965C118.519 220.259 119.567 221.847 120.222 223.608C120.877 225.369 121.122 227.256 120.937 229.125L119.252 245.507H112.929L113.467 230.17C113.499 229.313 113.34 228.459 113.002 227.67C112.664 226.881 112.156 226.177 111.513 225.608C110.871 225.039 110.11 224.62 109.286 224.38C108.462 224.141 107.595 224.087 106.748 224.223C101.267 225.146 94.4661 224.771 93.9281 217.645Z" fill="#24285B"/>
<path d="M130.356 245.365C130.356 245.365 131.29 247.953 133.625 248.146C135.959 248.339 136.578 250.633 134.477 251.191C132.376 251.75 126.946 249.08 126.946 249.08L127.098 245.71L130.356 245.365Z" fill="#68E1FD"/>
<path opacity="0.08" d="M96.1915 161.12C96.1915 161.12 103.489 167.525 102.028 174.599C101.784 175.736 101.541 177.117 101.297 178.659C100.344 184.525 100.699 190.53 102.336 196.243C103.973 201.956 106.852 207.237 110.767 211.708L115.375 216.965L93.9281 217.686L92.0909 214.093L82.083 197.457L96.1915 161.12Z" fill="black"/>
<path d="M107.052 217.646L119.942 215.707C121.8 215.427 123.696 215.575 125.488 216.14C127.279 216.705 128.918 217.671 130.279 218.966C131.639 220.26 132.687 221.848 133.341 223.609C133.994 225.37 134.237 227.256 134.051 229.125L132.366 245.507H126.043L126.591 230.171C126.623 229.313 126.464 228.459 126.126 227.67C125.788 226.881 125.28 226.177 124.637 225.608C123.995 225.04 123.234 224.62 122.41 224.381C121.586 224.141 120.719 224.087 119.871 224.223C114.39 225.146 107.59 224.771 107.052 217.646Z" fill="#24285B"/>
<path d="M83.7578 159.09C78.8756 165.961 74.5416 181.136 78.3072 202.512C78.8721 205.669 80.4787 208.547 82.8704 210.685C85.2621 212.822 88.3011 214.097 91.5022 214.306L111.65 215.564V208.997L96.3641 206.795C95.5275 206.672 94.7273 206.37 94.0181 205.91C93.3089 205.45 92.7073 204.842 92.2544 204.128C91.8016 203.414 91.5081 202.611 91.394 201.773C91.28 200.935 91.348 200.083 91.5936 199.274C94.2833 190.392 98.455 174.315 97.44 162.845C97.3187 161.299 96.7233 159.827 95.7351 158.631C94.7468 157.435 93.4138 156.573 91.9178 156.163C90.4217 155.752 88.8354 155.813 87.3751 156.336C85.9148 156.86 84.6516 157.822 83.7578 159.09Z" fill="#68E1FD"/>
<path opacity="0.46" d="M83.7578 159.09C78.8756 165.961 74.5416 181.136 78.3072 202.512C78.8721 205.669 80.4787 208.547 82.8704 210.685C85.2621 212.822 88.3011 214.097 91.5022 214.306L111.65 215.564V208.997L96.3641 206.795C95.5275 206.672 94.7273 206.37 94.0181 205.91C93.3089 205.45 92.7073 204.842 92.2544 204.128C91.8016 203.414 91.5081 202.611 91.394 201.773C91.28 200.935 91.348 200.083 91.5936 199.274C94.2833 190.392 98.455 174.315 97.44 162.845C97.3187 161.299 96.7233 159.827 95.7351 158.631C94.7468 157.435 93.4138 156.573 91.9178 156.163C90.4217 155.752 88.8354 155.813 87.3751 156.336C85.9148 156.86 84.6516 157.822 83.7578 159.09Z" fill="white"/>
<path d="M111.65 210.591C111.65 210.591 119.77 210.378 118.664 214.651C117.557 218.924 111.65 215.575 111.65 215.575V210.591Z" fill="#F4A28C"/>
<path d="M138.862 217.097L142.161 198.441H118.765L116.735 214.346L106.007 214.499V217.097H138.862Z" fill="#FFD200"/>
<path d="M129.544 209.728C130.839 209.728 131.889 208.679 131.889 207.384C131.889 206.089 130.839 205.039 129.544 205.039C128.25 205.039 127.2 206.089 127.2 207.384C127.2 208.679 128.25 209.728 129.544 209.728Z" fill="white"/>
<path d="M104.545 150.97C104.545 150.97 101.723 147.996 109.366 147.671C117.009 147.347 124.652 148.27 122.845 154.776C121.039 161.282 104.545 150.97 104.545 150.97Z" fill="#68E1FD"/>
<path opacity="0.46" d="M104.545 150.97C104.545 150.97 101.723 147.996 109.366 147.671C117.009 147.347 124.652 148.27 122.845 154.776C121.039 161.282 104.545 150.97 104.545 150.97Z" fill="white"/>
<path d="M109.219 121.972C109.101 120.996 108.866 119.881 108.981 118.905C109.027 118.519 109.102 118.332 109.398 118.094C109.717 118.113 109.924 118.207 110.176 118.418C110.388 118.596 110.392 118.83 110.415 119.086C110.458 120.006 110.559 120.911 110.668 121.824L109.219 121.972Z" fill="#25285B"/>
<path d="M108.099 143.223C110.999 143.586 113.791 142.23 116.67 142.528L116.892 144.09C117.104 145.945 117.61 148.767 117.26 150.387C116.263 151.941 111.34 152.427 109.92 151.767C109.531 151.587 109.33 151.39 109.077 150.669C108.568 149.221 108.467 146.935 108.309 145.295L108.099 143.223Z" fill="#E7B606"/>
<path d="M110.668 121.826C110.56 120.912 110.459 120.007 110.416 119.087L110.713 121.808C112.919 121.876 115.878 121.875 117.5 123.621C118.742 124.957 118.744 126.865 118.919 128.576C119.218 131.391 119.464 134.221 119.818 137.028C119.949 138.196 120.624 140.871 119.889 141.823C119.257 142.643 117.702 142.842 116.722 143.008C113.877 143.033 111.025 143.828 108.164 143.823C107.048 143.857 105.263 144.091 104.36 143.314C103.431 142.513 103.502 140.27 103.395 139.092C103.174 136.226 102.774 133.358 102.499 130.494C102.604 128.459 101.744 126.971 103.079 125.076C104.409 123.188 107.056 122.359 109.219 121.973L110.668 121.826Z" fill="#FFE56E"/>
<path d="M102.691 131.09C102.619 130.217 102.482 129.533 102.42 128.659C102.34 127.464 102.323 126.479 102.894 125.561C104.65 122.741 109.144 121.458 112.248 123.002C112.248 123.002 114.145 123.729 115.081 126.074C115.839 127.976 115.452 130.4 115.657 130.869C115.204 131.746 114.874 132.694 115.013 133.848C115.093 134.502 118.163 135.668 118.163 135.668C118.163 135.668 119.441 137.375 119.171 138.019C119.799 141.041 117.405 141.942 117.405 141.942C114.163 142.141 110.841 143.423 107.689 143.7C106.581 143.797 105.35 144.09 104.396 142.958C103.345 141.712 103.452 139.31 103.309 137.587C103.059 135.056 102.966 133.617 102.691 131.09Z" fill="#FFD200"/>
<path d="M107.931 131.209C109.648 130.938 111.412 130.818 113.141 130.633C114.52 130.486 115.956 130.234 117.343 130.227C117.892 130.225 118.411 130.288 118.816 130.745C119.274 131.261 119.413 132.053 119.391 132.742C119.359 133.727 118.955 134.356 118.325 134.99C117.148 135.361 110.122 136.113 108.893 136.024C108.316 135.982 107.833 135.722 107.453 135.233C107.008 134.662 106.838 133.839 106.893 133.108C106.958 132.252 107.346 131.723 107.931 131.209Z" fill="#25285B"/>
<path d="M105.992 138.56C105.147 138.604 104.087 138.713 103.36 138.485C102.669 138.269 102.462 138.033 102.29 137.593C101.91 136.622 101.167 131.563 101.973 130.874C102.715 130.239 103.973 130.108 105.116 129.96C105.367 132.826 105.836 135.687 105.992 138.56Z" fill="#25285B"/>
<path d="M109.586 131.373C110.114 131.28 110.556 131.25 111.057 131.476C111.581 131.712 111.972 132.167 112.162 132.704C112.175 132.738 112.186 132.771 112.196 132.806C112.207 132.84 112.216 132.874 112.225 132.909C112.234 132.944 112.242 132.979 112.248 133.014C112.255 133.049 112.262 133.084 112.267 133.119C112.272 133.155 112.276 133.19 112.28 133.226C112.283 133.262 112.286 133.297 112.287 133.333C112.289 133.369 112.29 133.404 112.29 133.44C112.29 133.476 112.289 133.512 112.287 133.547C112.285 133.583 112.282 133.619 112.279 133.654C112.275 133.69 112.27 133.726 112.265 133.761C112.26 133.796 112.253 133.832 112.246 133.867C112.239 133.902 112.231 133.937 112.222 133.971C112.213 134.006 112.204 134.04 112.193 134.075C112.182 134.109 112.171 134.143 112.159 134.176C112.146 134.21 112.133 134.243 112.119 134.276C112.105 134.309 112.091 134.342 112.075 134.374C111.785 134.967 111.31 135.287 110.703 135.503C110.237 135.584 109.801 135.574 109.354 135.404C108.828 135.203 108.376 134.799 108.154 134.28C108.141 134.247 108.128 134.214 108.115 134.181C108.103 134.147 108.092 134.114 108.082 134.08C108.071 134.045 108.062 134.011 108.053 133.977C108.045 133.942 108.037 133.908 108.03 133.873C108.023 133.838 108.017 133.803 108.012 133.768C108.007 133.733 108.003 133.697 107.999 133.662C107.996 133.627 107.993 133.591 107.992 133.556C107.99 133.52 107.99 133.485 107.99 133.449C107.99 133.413 107.991 133.378 107.994 133.343C107.996 133.307 107.999 133.272 108.002 133.236C108.006 133.201 108.011 133.166 108.017 133.131C108.022 133.095 108.029 133.061 108.036 133.026C108.044 132.991 108.052 132.956 108.061 132.922C108.07 132.888 108.08 132.854 108.091 132.82C108.102 132.786 108.114 132.752 108.127 132.719C108.139 132.686 108.153 132.653 108.167 132.62C108.448 131.969 108.948 131.631 109.586 131.373Z" fill="#1AAEE0"/>
<path d="M114.857 131.228C115.374 130.782 115.955 130.482 116.657 130.535C116.692 130.538 116.727 130.542 116.762 130.546C116.797 130.551 116.832 130.557 116.867 130.563C116.901 130.57 116.936 130.577 116.97 130.585C117.005 130.593 117.039 130.602 117.073 130.612C117.106 130.622 117.14 130.633 117.173 130.644C117.207 130.656 117.24 130.668 117.272 130.681C117.305 130.694 117.338 130.708 117.369 130.723C117.402 130.738 117.433 130.753 117.464 130.77C117.496 130.786 117.526 130.803 117.557 130.821C117.587 130.839 117.617 130.858 117.646 130.877C117.676 130.896 117.705 130.916 117.733 130.937C117.762 130.958 117.789 130.98 117.817 131.002C117.844 131.024 117.871 131.047 117.897 131.07C117.923 131.094 117.949 131.118 117.974 131.143C117.999 131.168 118.023 131.193 118.047 131.219C118.07 131.245 118.093 131.271 118.116 131.299C118.14 131.327 118.163 131.356 118.185 131.385C118.208 131.415 118.229 131.445 118.25 131.476C118.271 131.506 118.291 131.537 118.311 131.569C118.33 131.601 118.349 131.633 118.366 131.665C118.384 131.698 118.401 131.731 118.417 131.764C118.433 131.797 118.448 131.831 118.463 131.865C118.477 131.899 118.491 131.934 118.503 131.969C118.516 132.004 118.528 132.039 118.539 132.074C118.55 132.109 118.56 132.145 118.569 132.181C118.578 132.217 118.586 132.253 118.593 132.289C118.601 132.326 118.607 132.362 118.613 132.399C118.618 132.435 118.623 132.472 118.626 132.509C118.63 132.546 118.633 132.583 118.634 132.619C118.636 132.656 118.637 132.693 118.637 132.731C118.637 132.768 118.636 132.805 118.634 132.842C118.632 132.879 118.629 132.915 118.625 132.952C118.573 133.483 118.323 133.986 117.905 134.325C117.449 134.695 116.816 134.864 116.233 134.803C115.676 134.746 115.183 134.473 114.792 134.083C114.561 133.768 114.393 133.426 114.323 133.04C114.199 132.358 114.476 131.775 114.857 131.228Z" fill="#1AAEE0"/>
<path d="M116.263 131.535C116.475 131.53 116.673 131.544 116.872 131.625C117.186 131.754 117.445 131.99 117.572 132.306C117.586 132.341 117.598 132.375 117.608 132.411C117.618 132.446 117.627 132.482 117.634 132.518C117.64 132.555 117.645 132.591 117.648 132.628C117.65 132.665 117.651 132.701 117.65 132.738C117.649 132.775 117.646 132.812 117.642 132.849C117.637 132.885 117.63 132.921 117.621 132.957C117.613 132.993 117.602 133.028 117.59 133.063C117.578 133.098 117.564 133.132 117.548 133.166C117.373 133.532 117.059 133.696 116.692 133.819C116.461 133.833 116.243 133.838 116.022 133.754C115.984 133.74 115.947 133.723 115.91 133.705C115.874 133.687 115.839 133.666 115.804 133.644C115.77 133.622 115.737 133.599 115.706 133.573C115.674 133.548 115.644 133.52 115.615 133.492C115.586 133.463 115.559 133.433 115.534 133.401C115.508 133.37 115.484 133.337 115.462 133.303C115.44 133.269 115.42 133.234 115.402 133.197C115.384 133.161 115.367 133.124 115.353 133.086C115.34 133.051 115.329 133.015 115.32 132.978C115.311 132.942 115.303 132.905 115.298 132.868C115.292 132.831 115.288 132.794 115.286 132.756C115.284 132.719 115.284 132.681 115.286 132.644C115.288 132.606 115.291 132.569 115.297 132.532C115.302 132.495 115.31 132.458 115.319 132.421C115.328 132.385 115.339 132.349 115.351 132.314C115.364 132.278 115.378 132.244 115.394 132.21C115.574 131.833 115.883 131.658 116.263 131.535Z" fill="white"/>
<path d="M109.752 132.311C110.044 132.268 110.313 132.246 110.596 132.357C111.011 132.52 111.186 132.861 111.355 133.241C111.336 133.382 111.313 133.524 111.277 133.662C111.168 134.083 110.925 134.303 110.566 134.514C110.357 134.556 110.138 134.586 109.926 134.547C109.886 134.539 109.845 134.53 109.806 134.518C109.766 134.506 109.727 134.492 109.689 134.476C109.651 134.461 109.613 134.443 109.577 134.423C109.541 134.403 109.505 134.382 109.471 134.358C109.437 134.335 109.404 134.31 109.373 134.283C109.342 134.256 109.312 134.228 109.283 134.198C109.255 134.168 109.228 134.137 109.203 134.104C109.178 134.071 109.154 134.037 109.133 134.002C109.114 133.971 109.096 133.938 109.08 133.905C109.064 133.872 109.05 133.838 109.038 133.803C109.025 133.769 109.015 133.734 109.006 133.698C108.997 133.662 108.99 133.626 108.984 133.59C108.979 133.553 108.976 133.517 108.974 133.48C108.972 133.443 108.972 133.406 108.974 133.37C108.976 133.333 108.98 133.296 108.986 133.26C108.991 133.224 108.999 133.188 109.008 133.152C109.115 132.735 109.395 132.511 109.752 132.311Z" fill="white"/>
<path opacity="0.58" d="M313.28 114.115C313.28 114.115 306.875 112.369 305.474 106.401C305.474 106.401 315.401 104.371 315.685 114.643L313.28 114.115Z" fill="#68E1FD"/>
<path opacity="0.73" d="M314.061 113.476C314.061 113.476 309.585 106.371 313.523 99.7837C313.523 99.7837 321.075 104.585 317.725 113.496L314.061 113.476Z" fill="#68E1FD"/>
<path d="M315.218 113.486C315.218 113.486 317.583 106.016 324.729 104.595C324.729 104.595 326.069 109.446 320.1 113.506L315.218 113.486Z" fill="#68E1FD"/>
<path d="M310.57 113.313L311.869 122.205L320.05 122.235L321.258 113.364L310.57 113.313Z" fill="#24285B"/>
</svg>
