<svg width="406" height="306" viewBox="0 0 406 306" fill="none" xmlns="http://www.w3.org/2000/svg">
<path d="M104.778 215.808L300.592 215.808V73.6168L104.778 73.6168L104.778 215.808Z" fill="#E6E6E6"/>
<path opacity="0.05" d="M295.436 111.7C295.436 111.7 291.376 110.553 289.965 116.704C288.554 122.855 289.214 124.184 292.208 125.727C295.203 127.27 293.67 137.258 288.219 137.044C282.769 136.831 278.333 132.426 275.664 137.044C272.994 141.663 270.294 175.614 259.14 168.246C247.985 160.877 245.488 132.812 245.488 132.812L225.553 132.518V154.533L241.062 154.218C241.062 154.218 243.092 181.258 264.864 187.297C265.948 187.586 266.962 188.092 267.844 188.785C268.727 189.478 269.459 190.342 269.997 191.326C270.536 192.311 270.868 193.394 270.975 194.511C271.082 195.627 270.961 196.754 270.619 197.823L264.763 215.798H298.471V192.088C298.471 192.088 300.075 118.49 295.436 111.7Z" fill="black"/>
<path opacity="0.45" d="M296.989 251.638C329.311 251.638 355.514 247.734 355.514 242.919C355.514 238.104 329.311 234.2 296.989 234.2C264.667 234.2 238.464 238.104 238.464 242.919C238.464 247.734 264.667 251.638 296.989 251.638Z" fill="#E6E6E6"/>
<path opacity="0.45" d="M91.9387 251.638C120.163 251.638 143.044 247.734 143.044 242.919C143.044 238.104 120.163 234.2 91.9387 234.2C63.7141 234.2 40.8335 238.104 40.8335 242.919C40.8335 247.734 63.7141 251.638 91.9387 251.638Z" fill="#E6E6E6"/>
<path opacity="0.58" d="M339.782 234.2C339.782 234.2 345.75 232.596 347.069 227.095C347.069 227.095 337.843 225.187 337.538 234.718L339.782 234.2Z" fill="#68E1FD"/>
<path opacity="0.73" d="M339.01 233.622C339.01 233.622 343.202 227.065 339.568 220.894C337.551 222.241 336.057 224.241 335.337 226.557C334.616 228.874 334.713 231.367 335.61 233.622H339.01Z" fill="#68E1FD"/>
<path d="M337.995 233.622C337.995 233.622 335.823 226.669 329.185 225.319C329.185 225.319 327.916 229.825 333.448 233.622H337.995Z" fill="#68E1FD"/>
<path d="M342.309 233.489L341.06 241.741H333.458L332.372 233.489H342.309Z" fill="#24285B"/>
<path d="M294.451 132.822C294.451 132.822 281.774 131.127 279.226 141.723C276.679 152.32 276.324 166.987 266.133 169.92C255.942 172.853 250.319 152.492 250.319 152.492C250.319 152.492 247.954 146.778 245.407 145.996C242.859 145.215 241.042 150.858 245.407 154.309C245.407 154.309 249.091 180.314 268.61 179.4C288.128 178.487 294.451 151.68 294.451 132.822Z" fill="#F4A28C"/>
<path opacity="0.08" d="M294.451 132.822C294.451 132.822 281.774 131.127 279.226 141.723C276.679 152.32 276.324 166.987 266.133 169.92C255.942 172.853 250.319 152.492 250.319 152.492C250.319 152.492 247.954 146.778 245.407 145.996C242.859 145.215 241.042 150.858 245.407 154.309C245.407 154.309 249.091 180.314 268.61 179.4C288.128 178.487 294.451 151.68 294.451 132.822Z" fill="black"/>
<path d="M294.452 132.822C294.452 132.822 280.84 130.132 278.932 141.135C277.894 147.439 276.126 153.6 273.664 159.496L284.058 162.866L294.452 132.822Z" fill="#68E1FD"/>
<path opacity="0.46" d="M294.452 132.822C294.452 132.822 280.84 130.132 278.932 141.135C277.894 147.439 276.126 153.6 273.664 159.496L284.058 162.866L294.452 132.822Z" fill="white"/>
<path d="M295.101 114.948C294.14 117.007 293.457 119.184 293.071 121.424C293.04 121.694 293.064 121.967 293.141 122.228C293.218 122.488 293.346 122.731 293.518 122.941C293.691 123.151 293.903 123.325 294.144 123.451C294.384 123.577 294.648 123.654 294.919 123.677C295.78 123.818 296.663 123.707 297.463 123.358C298.262 123.008 298.944 122.435 299.425 121.708L301.81 118.785C302.227 118.148 302.435 117.398 302.406 116.637C302.377 115.877 302.112 115.145 301.648 114.542C300.044 112.187 296.045 112.634 295.101 114.948Z" fill="#F4A28C"/>
<path d="M300.887 119.454L301.851 132.822H294.451L296.664 123.342L300.887 119.454Z" fill="#F4A28C"/>
<path d="M294.116 117.333L292.503 118.409C292.41 118.469 292.335 118.551 292.282 118.647C292.23 118.744 292.202 118.852 292.202 118.962C292.202 119.072 292.23 119.18 292.282 119.277C292.335 119.373 292.41 119.455 292.503 119.515L293.863 120.337L294.116 117.333Z" fill="#F4A28C"/>
<path opacity="0.31" d="M296.603 123.565C297.494 123.408 298.326 123.012 299.009 122.418C299.009 122.418 299.496 125.311 295.964 126.285L296.603 123.565Z" fill="#CE8172"/>
<path d="M298.471 119.292C298.471 119.292 299.049 117.82 300.115 118.348C301.181 118.875 300.369 120.997 298.786 120.631L298.471 119.292Z" fill="#F4A28C"/>
<path d="M281.074 208.926L274.811 237.387H278.455L290.635 208.926H281.074Z" fill="#F4A28C"/>
<path d="M301.445 205.476L308.124 237.387H311.788L311.229 205.242L301.445 205.476Z" fill="#F4A28C"/>
<path d="M274.811 237.387C274.811 237.387 272.781 239.945 270.203 239.823C267.625 239.701 267.239 243.345 271.401 242.97C272.696 242.862 273.98 242.641 275.238 242.31C276.396 242.046 277.602 242.088 278.739 242.432C278.961 242.486 279.194 242.47 279.407 242.387C279.62 242.303 279.801 242.156 279.927 241.965C281.104 240.574 278.211 237.387 278.211 237.387H274.811Z" fill="#68E1FD"/>
<path d="M311.514 237.387C311.514 237.387 313.544 239.945 316.122 239.823C318.7 239.701 319.086 243.345 314.934 242.97C313.638 242.863 312.355 242.642 311.097 242.31C309.936 242.046 308.726 242.088 307.586 242.432C307.365 242.487 307.133 242.471 306.922 242.388C306.711 242.304 306.531 242.156 306.408 241.965C305.221 240.574 308.124 237.387 308.124 237.387H311.514Z" fill="#68E1FD"/>
<path d="M294.451 132.822H301.851C301.851 132.822 302.358 132.822 303.231 132.822C319.38 133.339 328.758 151.274 320.182 164.967C315.411 172.579 309.717 182.841 309.341 188.972L280.566 187.51C280.566 187.51 282.738 168.844 277.41 158.176C277.41 158.187 267.605 141.388 294.451 132.822Z" fill="#68E1FD"/>
<path opacity="0.08" d="M307.302 142.596C307.302 142.596 303.729 149.996 302.876 163.302C302.024 176.609 281.835 160.886 281.835 160.886L280.901 182.871L310.286 184.465L312.732 175.553C312.732 175.553 320.436 161.719 307.302 142.596Z" fill="black"/>
<path d="M280.377 180.428L299.561 178.182L296.09 148.543L276.905 150.79L280.377 180.428Z" fill="#FFD200"/>
<path d="M282.367 152.667L291.299 151.621L290.79 147.276L281.858 148.322L282.367 152.667Z" fill="#24285B"/>
<path d="M280.901 182.872L310.285 184.425L318.142 214.184L275.664 212.672L280.901 182.872Z" fill="#24285B"/>
<path opacity="0.08" d="M278.069 160.927L298.471 169.068L299.547 178.213L280.363 180.466L278.069 160.927Z" fill="black"/>
<path d="M307.545 144.017C307.496 142.708 307.859 141.417 308.583 140.324C309.307 139.232 310.355 138.395 311.58 137.93C312.805 137.465 314.145 137.396 315.411 137.732C316.678 138.068 317.806 138.793 318.639 139.805C322.811 144.811 325.019 151.165 324.851 157.679C324.607 175.097 322.263 193.955 284.687 173.351L286.717 167.829C286.717 167.829 303.394 175.848 310.357 173.249C315.472 171.321 308.073 155.984 307.545 144.017Z" fill="#F4A28C"/>
<path d="M286.707 167.819C286.707 167.819 280.445 164.845 277.775 167.819C275.106 170.793 279.348 173.462 284.687 173.34L286.707 167.819Z" fill="#F4A28C"/>
<path d="M294.451 112.979L293.162 116.196L298.471 118.226C298.471 118.226 298.775 121.799 296.898 122.449C297.333 122.426 297.759 122.317 298.152 122.127C298.544 121.937 298.894 121.67 299.181 121.342C299.405 121.097 299.715 120.948 300.047 120.927C300.378 120.906 300.705 121.015 300.958 121.231L301.018 121.292C302.542 119.794 303.615 117.898 304.114 115.821C304.723 112.674 301.201 112.187 301.201 112.187C301.201 112.187 296.542 108.919 294.451 112.979Z" fill="#24285B"/>
<path d="M301.201 112.197C301.201 112.197 301.445 109.152 306.905 109.649C312.366 110.146 306.905 117.495 311.392 124.367C311.392 124.367 303.14 122.621 302.906 115.232L301.201 112.197Z" fill="#24285B"/>
<path d="M300.866 111.984C301.28 111.759 301.75 111.66 302.219 111.699C302.688 111.739 303.135 111.916 303.505 112.207C305.048 113.222 305.728 116.744 303.292 117.972C303.292 117.972 305.312 113.141 300.866 111.984Z" fill="#FFD200"/>
<path d="M309.93 162.866H325.937C325.937 162.866 327.693 139.521 314.447 136.476C301.201 133.431 309.93 162.866 309.93 162.866Z" fill="#68E1FD"/>
<path opacity="0.46" d="M309.93 162.866H325.937C325.937 162.866 327.693 139.521 314.447 136.476C301.201 133.431 309.93 162.866 309.93 162.866Z" fill="white"/>
<path d="M233.48 150.808H257.485V130.782H233.48V150.808Z" fill="#24285B"/>
<path opacity="0.62" d="M254.988 147.702L249.264 137.491L245.255 145.052L240.403 138.638L235.541 147.702H254.988Z" fill="white"/>
<path d="M244.371 138.252C245.425 138.252 246.28 137.398 246.28 136.344C246.28 135.29 245.425 134.436 244.371 134.436C243.317 134.436 242.463 135.29 242.463 136.344C242.463 137.398 243.317 138.252 244.371 138.252Z" fill="white"/>
<path opacity="0.05" d="M119.273 142.292L106.544 142.637L102.353 215.808H120.623C121.638 212.327 124.277 194.219 134.203 183.734C143.968 173.412 183.837 146.656 169.231 128.589C162.126 119.789 150.189 153.386 150.189 153.386L131.392 155.619L132.681 154.949L119.273 142.292Z" fill="black"/>
<path d="M78.0128 136.76C78.0128 136.76 57.4489 149.163 54.7389 178.375C54.5052 180.802 55.1531 183.232 56.5639 185.221C57.9748 187.209 60.0544 188.624 62.4224 189.205L86.5287 195.021L78.0128 136.76Z" fill="#68E1FD"/>
<path opacity="0.2" d="M78.0128 136.76C78.0128 136.76 57.4489 149.163 54.7389 178.375C54.5052 180.802 55.1531 183.232 56.5639 185.221C57.9748 187.209 60.0544 188.624 62.4224 189.205L86.5287 195.021L78.0128 136.76Z" fill="white"/>
<path d="M86.6468 172.171L55.0493 186.691L64.5427 207.35L96.1402 192.83L86.6468 172.171Z" fill="#FFD200"/>
<path d="M73.2525 142.85C74.2283 140.682 75.6601 138.75 77.4502 137.186C79.2404 135.622 81.3467 134.462 83.6258 133.786C92.4258 131.147 109.123 125.605 114.076 133.786C120.826 145.042 110.432 189.246 110.432 189.246L80.865 191.57C80.865 191.57 64.6148 162.247 73.2525 142.85Z" fill="#68E1FD"/>
<path d="M84.7897 124.996C88.1146 125.076 91.1218 123.222 94.4164 123.23L94.8454 124.974C95.298 127.05 96.1936 130.189 95.9816 132.063C95.0298 133.937 89.5112 135.05 87.8272 134.465C87.3663 134.305 87.1164 134.104 86.7474 133.317C86.0057 131.735 85.6296 129.159 85.2641 127.319L84.7897 124.996Z" fill="#FFD200"/>
<path d="M91.1909 129.348C87.9363 130.323 86.1101 126.941 84.9299 125.649L94.5587 123.751C94.2396 125.172 95.5 128.057 91.1909 129.348Z" fill="#E5BF0B"/>
<path d="M85.2539 100.471C85.0269 99.4494 84.809 98.4353 84.6553 97.399L85.3024 100.446C87.8086 100.271 91.1596 99.9327 93.1964 101.724C94.7553 103.095 94.9748 105.255 95.3689 107.173C96.0284 110.327 96.6312 113.503 97.3524 116.642C97.6334 117.95 98.7035 120.902 97.9802 122.064C97.3577 123.065 95.6205 123.468 94.5291 123.768C91.3104 124.12 88.4372 124.943 85.1967 125.264C83.9368 125.43 83.1843 124.95 82.0736 124.173C80.9294 123.372 79.2453 122.177 78.99 120.855C78.4122 117.635 77.6319 114.432 76.9932 111.221C76.8794 108.904 75.7356 107.318 77.0314 105.019C78.3219 102.729 81.2245 101.488 83.6299 100.804L85.2539 100.471Z" fill="#FFE56E"/>
<path d="M77.2973 111.872C77.1147 110.892 76.8643 110.136 76.6946 109.153C76.4683 107.809 76.347 106.693 77.0171 105.566C79.0754 102.104 84.9337 99.9775 89.223 101.267C89.223 101.267 91.8231 101.81 93.3035 104.332C94.5037 106.377 94.2292 109.186 94.5489 109.687C94.0327 110.751 93.6879 111.876 93.9889 113.165C94.1596 113.896 94.4773 114.535 94.8901 115.122C94.6351 115.913 94.452 116.724 94.1563 117.496C93.1706 120.071 91.3957 122.046 89.4341 123.565C87.9742 124.696 87.1168 125.081 85.2134 125.439C83.7476 125.714 82.7285 125.111 81.3441 123.969C79.8199 122.711 79.1311 121.088 78.7686 119.154C78.1833 116.319 77.9156 114.699 77.2973 111.872Z" fill="#FFD200"/>
<path d="M83.1465 101.727C82.7225 100.691 82.128 99.5381 81.9609 98.4319C81.8949 97.9946 81.9199 97.7661 82.1734 97.416C82.5291 97.3407 82.7854 97.381 83.1251 97.537C83.412 97.6686 83.4867 97.9246 83.5896 98.1986C83.914 99.1948 84.298 100.158 84.6923 101.128L83.1465 101.727Z" fill="#25285B"/>
<path d="M85.5015 118.56C84.9592 118.62 84.2878 118.755 83.7767 118.509C83.2915 118.275 83.118 118.014 82.9328 117.522C82.5248 116.439 81.2017 110.774 81.6116 109.99C81.9888 109.268 84.9082 108.617 85.621 109.348C87.4987 110.534 84.9238 115.34 85.5015 118.56Z" fill="#25285B"/>
<path d="M91.184 109.546C92.7125 109.271 95.7178 108.656 96.0065 108.961C96.2952 109.265 96.7616 113.116 96.9963 114.759C95.6257 115.436 93.9641 115.813 92.245 115.573C91.7261 115.5 91.2818 115.16 90.9208 114.538C90.4987 113.81 90.3125 112.781 90.3319 111.874C90.3547 110.81 90.6809 110.165 91.184 109.546Z" fill="#25285B"/>
<path d="M93.5655 109.64C94.0149 109.547 94.3928 109.528 94.8327 109.829C95.294 110.145 95.6508 110.727 95.8395 111.402C95.8514 111.445 95.8627 111.488 95.8733 111.531C95.8838 111.574 95.8936 111.617 95.9027 111.66C95.9119 111.704 95.9202 111.748 95.9278 111.792C95.9354 111.835 95.9423 111.88 95.9485 111.924C95.9546 111.968 95.96 112.012 95.9647 112.057C95.9693 112.101 95.9732 112.146 95.9763 112.19C95.9794 112.235 95.9817 112.279 95.9833 112.324C95.9849 112.368 95.9858 112.413 95.9858 112.457C95.9859 112.501 95.9852 112.546 95.9838 112.59C95.9823 112.634 95.9801 112.678 95.9771 112.722C95.9741 112.765 95.9704 112.809 95.9659 112.852C95.9614 112.896 95.9561 112.939 95.9502 112.981C95.9441 113.024 95.9374 113.067 95.9298 113.109C95.9224 113.151 95.9141 113.192 95.9052 113.234C95.8962 113.275 95.8865 113.316 95.8761 113.357C95.8657 113.397 95.8545 113.437 95.8427 113.476C95.6216 114.201 95.2284 114.58 94.7179 114.824C94.3219 114.906 93.9467 114.875 93.5556 114.645C93.0943 114.374 92.6879 113.852 92.473 113.198C92.4596 113.156 92.447 113.115 92.435 113.073C92.4231 113.031 92.4119 112.988 92.4013 112.945C92.3908 112.903 92.3811 112.86 92.372 112.817C92.363 112.773 92.3547 112.73 92.3472 112.686C92.3396 112.643 92.3328 112.599 92.3268 112.555C92.3207 112.511 92.3155 112.467 92.311 112.423C92.3065 112.378 92.3027 112.334 92.2997 112.29C92.2968 112.246 92.2945 112.202 92.2931 112.157C92.2916 112.113 92.291 112.069 92.2911 112.025C92.2913 111.981 92.2921 111.937 92.2938 111.893C92.2955 111.85 92.2979 111.806 92.3011 111.762C92.3043 111.719 92.3083 111.676 92.313 111.633C92.3178 111.59 92.3233 111.547 92.3296 111.505C92.3358 111.463 92.3429 111.421 92.3506 111.379C92.3584 111.337 92.3669 111.296 92.3762 111.255C92.3855 111.214 92.3954 111.174 92.4062 111.134C92.6172 110.336 93.03 109.936 93.5655 109.64Z" fill="#1AAEE0"/>
<path d="M93.7521 110.815C94.0004 110.774 94.2302 110.759 94.4784 110.908C94.8423 111.127 95.0082 111.559 95.1709 112.038C95.1613 112.214 95.1485 112.389 95.124 112.559C95.0498 113.078 94.8521 113.342 94.5534 113.59C94.3761 113.633 94.1896 113.662 94.0061 113.604C93.9708 113.593 93.9358 113.579 93.9012 113.563C93.8666 113.547 93.8325 113.528 93.799 113.507C93.7654 113.485 93.7326 113.462 93.7005 113.436C93.6683 113.41 93.6371 113.381 93.6068 113.351C93.5764 113.32 93.5471 113.288 93.5189 113.253C93.4906 113.218 93.4636 113.182 93.4378 113.144C93.412 113.105 93.3875 113.065 93.3644 113.023C93.3413 112.982 93.3196 112.939 93.2995 112.894C93.2816 112.854 93.2651 112.813 93.25 112.771C93.2348 112.729 93.2211 112.686 93.2088 112.643C93.1965 112.599 93.1857 112.555 93.1763 112.51C93.167 112.465 93.1591 112.42 93.1528 112.375C93.1465 112.329 93.1418 112.284 93.1387 112.238C93.1355 112.192 93.1339 112.146 93.1339 112.101C93.1339 112.055 93.1355 112.01 93.1386 111.965C93.1417 111.92 93.1465 111.875 93.1527 111.831C93.2252 111.317 93.4547 111.049 93.7521 110.815Z" fill="white"/>
<path d="M110.412 189.266L106.524 240.067H100.384L94.8925 200.594L81.3118 191.56L110.412 189.266Z" fill="#24285B"/>
<path d="M81.3117 191.56L72.8364 240.067H79.4238L93.6439 199.771L81.3117 191.56Z" fill="#24285B"/>
<path opacity="0.08" d="M86.1837 132.994C86.1837 132.994 72.3594 177.512 112.269 180.456L110.412 189.266L80.8651 191.57C74.0755 179.598 70.6327 166.019 70.8978 152.259C70.8978 152.259 71.1515 140.911 79.1396 135.887C81.2557 134.434 83.657 133.448 86.1837 132.994Z" fill="black"/>
<path d="M74.0341 240.067L69.9741 243.112C69.8242 243.225 69.7133 243.382 69.6569 243.562C69.6005 243.741 69.6014 243.933 69.6595 244.112C69.7175 244.291 69.8299 244.447 69.9809 244.559C70.1319 244.67 70.314 244.732 70.5019 244.736H77.3531C77.591 244.736 77.8192 244.642 77.9883 244.475C78.1575 244.308 78.2538 244.081 78.2565 243.843V240.108L74.0341 240.067Z" fill="#68E1FD"/>
<path d="M106.352 240.067L110.198 243.112C110.35 243.227 110.462 243.387 110.518 243.569C110.574 243.751 110.57 243.946 110.508 244.126C110.446 244.306 110.329 244.462 110.173 244.572C110.017 244.681 109.831 244.739 109.64 244.736H104.758C104.069 244.736 103.408 244.462 102.921 243.975C102.433 243.488 102.16 242.827 102.16 242.138V240.108L106.352 240.067Z" fill="#68E1FD"/>
<path d="M166.785 129.229L162.4 127.939L142.922 144.88C141.49 146.12 139.757 146.961 137.896 147.318C136.036 147.674 134.114 147.533 132.326 146.91C127.03 145.108 122.526 141.52 119.587 136.76C112.604 125.432 100.739 129.523 100.739 129.523C100.739 129.523 91.7966 138.333 109.508 153.446C120.085 162.47 130.915 163.038 137.928 162.033C138.784 161.93 139.645 161.872 140.506 161.861C141.335 161.832 142.151 161.65 142.912 161.323C143.854 160.919 144.773 160.462 145.663 159.953C152.849 155.801 160.593 147.011 166.785 129.229Z" fill="#68E1FD"/>
<path opacity="0.2" d="M166.785 129.229L162.4 127.939L142.922 144.88C141.49 146.12 139.757 146.961 137.896 147.318C136.036 147.674 134.114 147.533 132.326 146.91C127.03 145.108 122.526 141.52 119.587 136.76C112.604 125.432 100.739 129.523 100.739 129.523C100.739 129.523 91.7966 138.333 109.508 153.446C120.085 162.47 130.915 163.038 137.928 162.033C138.784 161.93 139.645 161.872 140.506 161.861C141.335 161.832 142.151 161.65 142.912 161.323C143.854 160.919 144.773 160.462 145.663 159.953C152.849 155.801 160.593 147.011 166.785 129.229Z" fill="white"/>
<path d="M162.4 127.94C162.4 127.94 164.866 120.835 166.825 120.337C168.784 119.84 166.825 124.134 166.825 124.134C166.825 124.134 172.205 126.773 166.825 129.209L162.4 127.94Z" fill="#F4A28C"/>
<path opacity="0.55" d="M183.786 146.656L179.625 151.873C175.199 157.427 173.109 164.486 173.799 171.554L174.6 179.674L186.78 168.611L183.786 146.656Z" fill="#878787"/>
<path opacity="0.55" d="M213.008 146.656L217.17 151.873C221.599 157.425 223.689 164.486 222.996 171.554L222.204 179.674L210.024 168.611L213.008 146.656Z" fill="#878787"/>
<path opacity="0.55" d="M192.85 170.336C192.85 170.336 196.646 192.666 190.404 194.544C184.162 196.422 181.269 186.343 173.027 192.342C164.785 198.34 175.351 204.948 160.796 203.111C146.241 201.274 140.598 208.45 144.029 215.808H251.446C251.446 215.808 256.836 208.977 250.837 204.329C249.533 203.348 248.033 202.659 246.44 202.309C244.846 201.958 243.196 201.955 241.601 202.299C241.16 202.373 240.709 202.35 240.279 202.231C239.849 202.111 239.45 201.899 239.111 201.608C238.772 201.318 238.501 200.956 238.317 200.549C238.134 200.142 238.042 199.7 238.048 199.254C238.109 197.051 237.733 194.554 236.018 193.032C233.988 191.174 229.674 193.113 226.467 195.062C222.825 197.306 218.539 198.271 214.287 197.802C210.562 197.356 206.745 196.117 205.71 193.052C203.508 186.566 204.847 169.9 204.847 169.9L192.85 170.336Z" fill="white"/>
<path d="M198.412 100.332C198.412 100.332 167.658 117.211 186.791 168.6H210.044C229.177 117.211 198.412 100.332 198.412 100.332Z" fill="#C1C1C1"/>
<path d="M210.044 168.601L209.009 172.539H187.907L186.791 168.134L210.044 168.601Z" fill="#878787"/>
<path d="M198.635 138.374C202.997 138.374 206.532 134.838 206.532 130.477C206.532 126.116 202.997 122.581 198.635 122.581C194.274 122.581 190.739 126.116 190.739 130.477C190.739 134.838 194.274 138.374 198.635 138.374Z" fill="#E6E6E6"/>
<path d="M118.785 93.0746C121.515 93.0746 123.728 90.8615 123.728 88.1315C123.728 85.4016 121.515 83.1885 118.785 83.1885C116.055 83.1885 113.842 85.4016 113.842 88.1315C113.842 90.8615 116.055 93.0746 118.785 93.0746Z" fill="#FFD200"/>
<path d="M132.691 93.0746C135.421 93.0746 137.634 90.8615 137.634 88.1315C137.634 85.4016 135.421 83.1885 132.691 83.1885C129.961 83.1885 127.748 85.4016 127.748 88.1315C127.748 90.8615 129.961 93.0746 132.691 93.0746Z" fill="#68E1FD"/>
<path d="M146.018 93.0746C148.748 93.0746 150.961 90.8615 150.961 88.1315C150.961 85.4016 148.748 83.1885 146.018 83.1885C143.288 83.1885 141.075 85.4016 141.075 88.1315C141.075 90.8615 143.288 93.0746 146.018 93.0746Z" fill="#24285B"/>
<path d="M286.707 58.7676H220.123V104.94H286.707V58.7676Z" fill="#F4F4F4"/>
<path d="M243.367 85.4009H235.876V94.9825H243.367V85.4009Z" fill="#C1C1C1"/>
<path d="M257.364 78.0322H249.873V94.9827H257.364V78.0322Z" fill="#C1C1C1"/>
<path d="M271.096 70.5107H263.606V94.9824H271.096V70.5107Z" fill="#C1C1C1"/>
</svg>
