<svg width="406" height="306" viewBox="0 0 406 306" fill="none" xmlns="http://www.w3.org/2000/svg">
<path opacity="0.45" d="M202.503 268.08C277.652 268.08 338.573 263.604 338.573 258.083C338.573 252.561 277.652 248.085 202.503 248.085C127.353 248.085 66.4316 252.561 66.4316 258.083C66.4316 263.604 127.353 268.08 202.503 268.08Z" fill="#E6E6E6"/>
<path d="M209.445 44.6079L208.146 73.0279C204.36 80.1329 203.264 81.3103 201.914 81.5641V90.0698C205.253 90.8818 208.217 91.0848 209.963 90.0698C216.053 86.4158 220.255 67.8514 220.255 67.8514L209.445 44.6079Z" fill="#68E1FD"/>
<path d="M316.934 75.6327L92.8936 76.1802L93.2913 238.976L317.332 238.428L316.934 75.6327Z" fill="#F2F2F2"/>
<path d="M317.005 75.9004H92.8826V107.954H317.005V75.9004Z" fill="#E6E6E6"/>
<path d="M112.99 96.495C115.232 96.495 117.05 94.6773 117.05 92.435C117.05 90.1927 115.232 88.375 112.99 88.375C110.747 88.375 108.93 90.1927 108.93 92.435C108.93 94.6773 110.747 96.495 112.99 96.495Z" fill="#24285B"/>
<path d="M125.068 96.4647C127.311 96.4647 129.128 94.647 129.128 92.4047C129.128 90.1625 127.311 88.3447 125.068 88.3447C122.826 88.3447 121.008 90.1625 121.008 92.4047C121.008 94.647 122.826 96.4647 125.068 96.4647Z" fill="#68E1FD"/>
<path d="M136.446 96.434C138.689 96.434 140.506 94.6162 140.506 92.374C140.506 90.1317 138.689 88.314 136.446 88.314C134.204 88.314 132.386 90.1317 132.386 92.374C132.386 94.6162 134.204 96.434 136.446 96.434Z" fill="#FFD200"/>
<path d="M291.356 185.186H195.306V191.164H291.356V185.186Z" fill="#E6E6E6"/>
<path d="M291.356 201.02H195.306V206.998H291.356V201.02Z" fill="#E6E6E6"/>
<path d="M262.043 216.854H195.306V222.832H262.043V216.854Z" fill="#E6E6E6"/>
<path d="M288.869 119.292H195.306V175.32H288.869V119.292Z" fill="#E6E6E6"/>
<path opacity="0.17" d="M184.537 118.784H113.152V138.922H184.537V118.784Z" fill="#666666"/>
<path d="M184.537 147.306H113.152V167.443H184.537V147.306Z" fill="#E6E6E6"/>
<path opacity="0.17" d="M125.586 164.713C129.588 164.713 132.833 161.468 132.833 157.466C132.833 153.463 129.588 150.219 125.586 150.219C121.584 150.219 118.339 153.463 118.339 157.466C118.339 161.468 121.584 164.713 125.586 164.713Z" fill="#666666"/>
<path opacity="0.17" d="M167.089 152.959H138.294V156.147H167.089V152.959Z" fill="#666666"/>
<path opacity="0.17" d="M156.34 159.333H138.294V162.521H156.34V159.333Z" fill="#666666"/>
<path d="M184.537 175.837H113.152V195.975H184.537V175.837Z" fill="#E6E6E6"/>
<path opacity="0.17" d="M125.586 193.245C129.588 193.245 132.833 190 132.833 185.998C132.833 181.995 129.588 178.75 125.586 178.75C121.584 178.75 118.339 181.995 118.339 185.998C118.339 190 121.584 193.245 125.586 193.245Z" fill="#666666"/>
<path opacity="0.17" d="M167.089 181.481H138.294V184.668H167.089V181.481Z" fill="#666666"/>
<path opacity="0.17" d="M156.34 187.865H138.294V191.052H156.34V187.865Z" fill="#666666"/>
<path d="M184.537 204.359H113.152V224.496H184.537V204.359Z" fill="#E6E6E6"/>
<path opacity="0.17" d="M125.586 221.766C129.588 221.766 132.833 218.522 132.833 214.519C132.833 210.517 129.588 207.272 125.586 207.272C121.584 207.272 118.339 210.517 118.339 214.519C118.339 218.522 121.584 221.766 125.586 221.766Z" fill="#666666"/>
<path opacity="0.17" d="M167.089 210.013H138.294V213.2H167.089V210.013Z" fill="#666666"/>
<path opacity="0.17" d="M156.34 216.387H138.294V219.574H156.34V216.387Z" fill="#666666"/>
<path opacity="0.08" d="M117.05 238.909C117.395 238.909 109.133 194.036 111.883 187.865C114.634 181.694 121.171 175.685 121.018 170.722C120.866 165.758 140.171 151.102 144.363 138.922L148.119 144.86L187.247 111.811C187.247 111.811 193.916 110.857 196.088 106.016C198.26 101.174 218.59 75.8599 218.59 75.8599H207.71L195.428 91.8969L187.105 88.3748L142.658 121.87L140.111 131.715C140.111 131.715 108.321 154.522 97.8256 166.57C87.3305 178.618 101.327 238.899 101.327 238.899L117.05 238.909Z" fill="black"/>
<path d="M185.01 81.0438L137.104 120.731L148.799 134.847L196.704 95.1598L185.01 81.0438Z" fill="#24285B"/>
<path d="M151.722 127.239C155.366 127.239 158.32 124.286 158.32 120.642C158.32 116.998 155.366 114.044 151.722 114.044C148.079 114.044 145.125 116.998 145.125 120.642C145.125 124.286 148.079 127.239 151.722 127.239Z" fill="#FFD200"/>
<path opacity="0.17" d="M178.195 93.3628L158.013 110.082L159.865 112.317L180.047 95.5982L178.195 93.3628Z" fill="white"/>
<path opacity="0.17" d="M174.362 104.074L161.716 114.551L163.568 116.787L176.214 106.31L174.362 104.074Z" fill="white"/>
<path d="M81.2507 202.887L74.6227 224.05C73.7317 226.918 72.2575 229.57 70.2924 231.841C68.3274 234.112 65.914 235.951 63.204 237.245L53.46 241.873L53.8558 244.756L68.4109 241.609C71.84 240.601 75.0201 238.886 77.747 236.575C80.4739 234.264 82.6873 231.408 84.2449 228.191L94.5269 207.018L81.2507 202.887Z" fill="#F4A28C"/>
<path d="M103.215 208.855L106.321 254.246L103.428 255.251L91.9082 212.794L103.215 208.855Z" fill="#F4A28C"/>
<path d="M106.92 255.028C106.92 255.028 107.59 257.717 109.62 258.56C111.65 259.402 110.635 262.326 107.59 260.539C106.642 259.99 105.742 259.362 104.9 258.661C104.109 258.039 103.167 257.636 102.17 257.494C101.984 257.446 101.816 257.346 101.685 257.206C101.554 257.065 101.465 256.891 101.429 256.702C101.023 255.221 104.393 253.82 104.393 253.82L106.92 255.028Z" fill="#68E1FD"/>
<path d="M53.8558 244.726C53.8558 244.726 51.8258 246.289 51.8258 248.339C51.8258 250.389 48.9838 250.643 49.3391 247.324C49.4466 246.295 49.6367 245.277 49.9075 244.279C50.1395 243.364 50.122 242.404 49.8567 241.498C49.8188 241.32 49.8364 241.136 49.9072 240.968C49.9781 240.801 50.0986 240.66 50.2526 240.564C51.3589 239.651 53.8558 241.985 53.8558 241.985V244.726Z" fill="#68E1FD"/>
<path d="M85.8386 143.073L86.9247 147.438L83.3823 149.305L82.7632 141.835L85.8386 143.073Z" fill="#F4A28C"/>
<path d="M81.9308 137.633C82.139 137.241 82.4419 136.908 82.8118 136.663C83.1817 136.419 83.607 136.27 84.0488 136.232C84.4907 136.194 84.9351 136.267 85.3416 136.444C85.7481 136.621 86.1039 136.897 86.3765 137.247C87.6858 138.891 89.2185 141.459 87.158 142.627C84.0014 144.413 81.5654 140.414 81.5654 140.414C81.4076 139.471 81.5348 138.503 81.9308 137.633Z" fill="#F4A28C"/>
<path d="M67.3961 156.766C67.3961 156.766 52.1711 180.588 55.2161 184.1C64.8992 195.265 86.3969 170.153 86.3969 170.153L67.3961 156.766Z" fill="#F4A28C"/>
<path d="M101.865 153.203C97.4924 150.011 92.2406 148.246 86.8271 148.15C81.4136 148.053 76.1023 149.63 71.6185 152.665C67.6295 155.375 64.5135 159.435 65.9649 165.302C69.2637 179.075 79.8197 188.15 80.1749 200.269L105.154 198.594V182.993C105.148 181.519 105.448 180.06 106.035 178.708C106.622 177.355 107.484 176.14 108.564 175.137C110.737 173.107 112.909 169.849 111.427 165.363C110.077 161.364 106.666 156.725 101.865 153.203Z" fill="#68E1FD"/>
<path d="M83.9101 140.414C83.9101 140.414 83.1996 139.713 82.7733 140.597C82.347 141.48 83.6767 142.028 84.1131 141.612C84.5496 141.195 83.9101 140.414 83.9101 140.414Z" fill="#F4A28C"/>
<path opacity="0.08" d="M89.5027 159.699C89.5027 159.699 84.1029 170.012 90.3655 180.07C96.628 190.129 84.7627 199.954 84.7627 199.954L105.124 198.594V189.703L89.5027 159.699Z" fill="black"/>
<path d="M79.0989 153.518C79.576 151.65 81.7988 148.26 78.6726 142.15C78.2063 141.141 77.9698 140.042 77.9803 138.93C77.9908 137.819 78.2481 136.724 78.7335 135.725C81.7075 130.711 86.4983 132.426 85.9299 135.238C85.3615 138.049 84.9149 139.389 84.9149 139.389C84.9149 139.389 93.989 145.895 92.6593 150.686C91.5327 154.949 77.0791 161.293 79.0989 153.518Z" fill="#24285B"/>
<path d="M79.0482 193.895H105.124L109.275 229.978L70.5933 228.232L79.0482 193.895Z" fill="#24285B"/>
<path d="M87.5538 166.033C87.159 165.147 86.944 164.191 86.9214 163.221C86.8988 162.251 87.069 161.286 87.4222 160.383C87.7753 159.479 88.3043 158.655 88.9786 157.957C89.6528 157.26 90.4588 156.703 91.3499 156.319C93.1199 155.589 94.9418 154.992 96.8005 154.533C107.905 151.691 127.19 143.967 138.517 129.087C138.517 129.087 141.785 123.393 146.383 124.905C150.981 126.417 147.784 131.766 143.156 130.427C143.156 130.427 129.321 165.688 97.6937 171.493C95.6347 171.852 93.5149 171.509 91.6744 170.518C89.8338 169.528 88.3792 167.948 87.5437 166.033H87.5538Z" fill="#F4A28C"/>
<path d="M198.138 35.5239L210.765 40.5786L210.613 49.8963L199.61 40.944L198.138 35.5239Z" fill="#F4A28C"/>
<path opacity="0.31" d="M201.274 42.4159C201.55 41.4956 201.55 40.5146 201.274 39.5942C202.802 40.838 203.8 42.6159 204.066 44.5677L201.274 42.4159Z" fill="#CE8172"/>
<path d="M194.088 40.1523C195.758 41.7512 197.636 43.117 199.671 44.2124C199.918 44.334 200.187 44.4042 200.461 44.4187C200.736 44.4333 201.011 44.3918 201.269 44.2969C201.527 44.202 201.763 44.0555 201.963 43.8665C202.163 43.6775 202.323 43.4498 202.432 43.1974C202.846 42.4138 203.024 41.5271 202.944 40.6445C202.865 39.7619 202.532 38.9212 201.985 38.2238L199.955 34.986C199.478 34.3796 198.824 33.9372 198.083 33.7207C197.342 33.5041 196.553 33.5242 195.824 33.7782C193.013 34.4988 192.17 38.4877 194.088 40.1523Z" fill="#F4A28C"/>
<path d="M196.068 41.8574L196.595 43.7555C196.625 43.8636 196.682 43.9624 196.76 44.043C196.838 44.1235 196.935 44.1832 197.042 44.2166C197.149 44.2499 197.263 44.2558 197.373 44.2338C197.483 44.2117 197.585 44.1624 197.671 44.0904L198.889 43.0754L196.068 41.8574Z" fill="#F4A28C"/>
<path d="M203.487 37.3407L199.63 33.2299C199.63 33.2299 200.848 30.2763 198.615 29.9819C196.382 29.6876 196.859 31.4841 194.839 30.2763C192.82 29.0684 191.388 30.4285 191.794 32.3063C192.2 34.184 190.962 32.6412 189.856 33.9404C188.749 35.2396 189.135 36.0313 190.211 36.752C191.287 37.4726 188.82 38.782 189.866 40.203C190.911 41.624 192.2 42.5273 194.667 39.0865C197.133 35.6456 198.443 40.0304 203.487 37.3407Z" fill="#FFD200"/>
<path d="M199.62 38.9241C199.62 38.9241 198.392 37.9091 199.234 37.0464C200.077 36.1836 201.863 37.6554 201.01 39.0764L199.62 38.9241Z" fill="#F4A28C"/>
<path opacity="0.08" d="M243.773 78.2046C243.773 78.2046 238.424 92.0898 244.493 99.0628C250.563 106.036 264.123 112.775 264.123 112.775C264.123 112.775 265.859 120.895 270.152 113.516L269.32 109.517L256.623 99.8545L248.503 89.5929L253.74 78.4279L243.773 78.2046Z" fill="black"/>
<path d="M261.17 60.9089L253.75 70.4093L248.787 76.8748C245.902 77.3089 242.983 77.4686 240.068 77.3519C231.461 77.0474 218.814 74.3069 213.302 62.0051C211.669 58.1796 210.76 54.0839 210.623 49.9266L210.765 40.619C210.765 40.619 224.67 30.469 237.155 38.9341C249.639 47.3992 261.17 60.9089 261.17 60.9089Z" fill="#68E1FD"/>
<path d="M261.17 60.9092C261.17 60.9092 275.065 70.1863 267.615 76.5706C263.827 79.9461 260.379 83.6858 257.323 87.7356C256.55 88.738 256.167 89.9862 256.243 91.2494C256.32 92.5126 256.851 93.7054 257.739 94.6072L268.072 105.133L266.275 109.954L251.05 100.301C248.652 98.7769 246.835 96.4923 245.889 93.813C244.944 91.1338 244.924 88.2148 245.833 85.5229L248.787 76.8751L261.17 60.9092Z" fill="#24285B"/>
<path opacity="0.08" d="M253.75 70.4094L248.787 76.875C248.787 76.875 245.163 77.1186 240.068 77.352C231.461 77.0475 218.814 74.307 213.302 62.0052C217.768 55.9152 223.645 50.1703 226.406 49.541C226.406 49.541 231.582 64.1469 239.317 66.5727C246.868 68.9478 253.466 70.379 253.78 70.45L253.75 70.4094Z" fill="black"/>
<path d="M226.852 52.1191C227.867 43.5728 216.834 39.2692 211.546 46.0291C209.971 48.0344 208.793 50.3218 208.075 52.7687C205.375 61.9037 188.536 99.1136 188.536 99.1136L194.251 101.905C194.251 101.905 215.657 75.1494 223.99 60.4218C225.484 57.8709 226.457 55.0488 226.852 52.1191Z" fill="#68E1FD"/>
<path opacity="0.36" d="M226.852 52.1191C227.867 43.5728 216.834 39.2692 211.546 46.0291C209.971 48.0344 208.793 50.3218 208.075 52.7687C205.375 61.9037 188.536 99.1136 188.536 99.1136L194.251 101.905C194.251 101.905 215.657 75.1494 223.99 60.4218C225.484 57.8709 226.457 55.0488 226.852 52.1191Z" fill="white"/>
<path d="M189.44 99.5703C189.44 99.5703 183.136 103.123 186.679 105.467C190.221 107.812 194.21 101.905 194.21 101.905L189.44 99.5703Z" fill="#F4A28C"/>
<path d="M266.701 108.756C266.701 108.756 269.635 111.801 268.599 113.77C268.599 113.77 270.629 115.932 272.213 113.09C273.796 110.248 271.035 107 271.035 107L267.757 105.884L266.701 108.756Z" fill="#68E1FD"/>
<path opacity="0.08" d="M293.061 210.175C291.031 215.439 289.201 220.771 287.57 226.171C287.245 227.247 285.855 233.885 284.687 238.28H298.217C299.121 228.048 302.772 218.25 308.783 209.921C308.915 219.726 309.281 230.221 314.812 238.28H320.994C322.261 236.779 323.015 234.912 323.146 232.951C323.215 230.264 322.897 227.58 322.202 224.984C320.527 216.906 319.663 208.681 319.624 200.431C319.624 190.047 320.831 179.644 319.938 169.291C319.4 163.15 317.908 156.613 313.209 152.563C313.012 152.388 312.802 152.228 312.579 152.086C313.046 148.432 313.28 144.738 313.493 141.074L314.143 130.396C314.366 126.772 312.326 120.875 308.144 124.945C304.734 128.254 305.921 132.05 305.099 135.999C303.8 142.17 296.157 141.368 291.336 141.155C276.111 140.475 260.723 140.86 245.437 140.86H209.516V207.313H294.238C293.832 208.267 293.426 209.221 293.061 210.175Z" fill="black"/>
<path d="M289.519 252.034C289.519 252.034 287.275 254.246 284.85 253.201C282.424 252.155 280.658 254.216 282.444 255.972C284.23 257.728 290.99 257.789 290.99 257.789L292.97 253.211L289.519 252.034Z" fill="#68E1FD"/>
<path d="M327.185 251.008C327.185 251.008 328.281 254.053 326.454 256.002C324.627 257.951 325.764 260.468 327.977 259.392C330.19 258.316 332.798 251.739 332.798 251.739L329.52 248.085L327.185 251.008Z" fill="#68E1FD"/>
<path d="M333.184 194.341C333.184 194.341 335.549 204.186 331.438 209.028C327.327 213.869 321.034 236.808 331.438 248.278L327.327 252.338C327.327 252.338 309.311 242.655 314.447 207.739L301.577 194.331L333.184 194.341Z" fill="#24285B"/>
<path d="M301.577 194.341L288.382 252.348L294.989 253.363C294.989 253.363 308.184 213.606 316.924 205.445L301.577 194.341Z" fill="#24285B"/>
<path d="M298.512 143.337C298.512 143.337 284.728 149.214 286.839 170.742L300.298 169.595L298.512 143.337Z" fill="#68E1FD"/>
<path opacity="0.36" d="M298.512 143.337C298.512 143.337 284.728 149.214 286.839 170.742L300.298 169.595L298.512 143.337Z" fill="white"/>
<path d="M316.68 138.374L312.194 139.307C312.194 139.307 291.65 141.52 290.818 153.111C289.986 164.703 301.587 194.341 301.587 194.341H332.717C332.717 194.341 357.635 135.308 316.68 138.374Z" fill="#68E1FD"/>
<path d="M315.364 131.572C312.692 132.362 309.859 131.546 307.196 132.273L307.228 133.751C307.312 135.499 307.268 138.188 307.846 139.63C309.022 140.91 313.726 140.588 314.961 139.755C315.299 139.527 315.457 139.314 315.585 138.608C315.842 137.189 315.587 135.061 315.484 133.52L315.364 131.572Z" fill="#FFD200"/>
<path d="M311.131 136.427C313.975 136.49 314.718 133.405 315.392 132.121L307.195 132.718C307.761 133.776 307.367 136.343 311.131 136.427Z" fill="#E5BF0B"/>
<path d="M309.67 112.195C309.632 111.334 309.588 110.481 309.488 109.625L309.625 112.186C307.561 112.595 304.778 113.058 303.52 114.926C302.556 116.356 302.847 118.119 302.945 119.729C303.095 122.377 303.297 125.032 303.394 127.683C303.45 128.783 303.225 131.361 304.062 132.126C304.782 132.785 306.275 132.725 307.222 132.725C309.901 132.302 312.403 132.327 315.093 131.874C316.147 131.73 316.652 131.185 317.381 130.325C318.133 129.439 319.236 128.121 319.155 127.016C318.924 124.332 318.861 121.618 318.681 118.928C318.27 117.063 318.851 115.553 317.305 114.01C315.765 112.473 313.149 112.122 311.055 112.105L309.67 112.195Z" fill="#FFD200"/>
<path d="M317.126 119.643C317.06 118.859 317.067 118.235 316.995 117.452C316.893 116.383 316.774 115.507 316.245 114.77C314.621 112.503 311.252 111.96 309.248 113.74C309.248 113.74 307.994 114.635 307.64 116.837C307.353 118.623 307.951 120.72 307.867 121.163C308.307 121.88 308.667 122.677 308.722 123.718C308.752 124.308 308.692 124.856 308.574 125.381C308.835 125.938 309.061 126.525 309.339 127.061C310.266 128.847 311.503 130.029 312.762 130.828C313.699 131.422 314.204 131.558 315.245 131.48C316.046 131.419 316.474 130.77 317.003 129.64C317.585 128.397 317.677 127.028 317.55 125.483C317.391 123.207 317.266 121.919 317.126 119.643Z" fill="#FFE56E"/>
<path d="M311.646 112.731C311.765 111.816 311.995 110.771 311.89 109.855C311.849 109.494 311.779 109.318 311.498 109.095C311.194 109.113 310.996 109.201 310.755 109.399C310.552 109.566 310.547 109.786 310.523 110.026C310.477 110.888 310.375 111.737 310.267 112.594L311.646 112.731Z" fill="#25285B"/>
<path d="M314.128 126.134C314.58 126.063 315.152 126.024 315.512 125.717C315.854 125.425 315.937 125.18 315.98 124.748C316.075 123.799 315.917 119.011 315.415 118.478C314.954 117.987 312.452 118.107 312.034 118.843C310.773 120.196 313.897 123.45 314.128 126.134Z" fill="#25285B"/>
<path d="M306.765 120.71C305.366 120.842 302.599 121.043 302.415 121.35C302.23 121.658 302.686 124.819 302.848 126.175C304.199 126.399 305.738 126.317 307.188 125.733C307.626 125.556 307.938 125.184 308.115 124.609C308.321 123.935 308.253 123.076 308.033 122.361C307.774 121.523 307.344 121.086 306.765 120.71Z" fill="#25285B"/>
<path d="M304.938 121.294C304.554 121.319 304.245 121.386 303.954 121.721C303.65 122.073 303.488 122.613 303.481 123.191C303.481 123.227 303.481 123.264 303.482 123.3C303.483 123.337 303.484 123.373 303.486 123.41C303.488 123.446 303.491 123.483 303.494 123.519C303.498 123.556 303.502 123.592 303.506 123.629C303.511 123.665 303.516 123.702 303.522 123.738C303.528 123.774 303.534 123.81 303.542 123.846C303.549 123.882 303.556 123.918 303.565 123.954C303.573 123.99 303.582 124.025 303.592 124.06C303.601 124.096 303.611 124.131 303.622 124.165C303.633 124.2 303.644 124.235 303.656 124.269C303.668 124.303 303.681 124.337 303.694 124.37C303.707 124.403 303.72 124.436 303.734 124.469C303.748 124.502 303.763 124.534 303.778 124.566C303.794 124.598 303.809 124.629 303.825 124.66C303.842 124.691 303.858 124.721 303.876 124.751C303.893 124.781 303.91 124.81 303.929 124.839C304.265 125.366 304.665 125.581 305.13 125.664C305.468 125.642 305.765 125.536 306.031 125.267C306.346 124.951 306.561 124.448 306.593 123.881C306.595 123.845 306.596 123.809 306.596 123.773C306.597 123.737 306.597 123.701 306.596 123.665C306.595 123.629 306.594 123.593 306.592 123.556C306.59 123.52 306.587 123.484 306.584 123.447C306.58 123.411 306.576 123.375 306.572 123.339C306.567 123.302 306.562 123.266 306.556 123.23C306.55 123.194 306.543 123.158 306.536 123.122C306.529 123.087 306.521 123.051 306.513 123.016C306.504 122.98 306.495 122.945 306.486 122.91C306.476 122.875 306.466 122.84 306.455 122.806C306.444 122.772 306.433 122.737 306.421 122.704C306.409 122.67 306.396 122.636 306.383 122.603C306.37 122.57 306.356 122.538 306.342 122.505C306.327 122.473 306.313 122.441 306.297 122.41C306.282 122.378 306.266 122.347 306.25 122.317C306.233 122.287 306.217 122.257 306.199 122.227C305.856 121.64 305.435 121.412 304.938 121.294Z" fill="#1AAEE0"/>
<path d="M305.042 122.268C304.832 122.289 304.643 122.327 304.475 122.5C304.228 122.754 304.188 123.133 304.16 123.549C304.206 123.686 304.254 123.823 304.311 123.953C304.483 124.349 304.7 124.515 304.996 124.647C305.149 124.643 305.306 124.624 305.441 124.538C305.468 124.522 305.493 124.503 305.517 124.483C305.542 124.462 305.565 124.44 305.588 124.416C305.61 124.391 305.632 124.365 305.652 124.338C305.672 124.31 305.692 124.281 305.709 124.25C305.727 124.219 305.744 124.187 305.759 124.153C305.775 124.119 305.789 124.085 305.801 124.048C305.814 124.012 305.825 123.975 305.834 123.937C305.844 123.899 305.852 123.86 305.859 123.82C305.865 123.784 305.869 123.748 305.872 123.712C305.875 123.675 305.877 123.638 305.878 123.601C305.878 123.563 305.877 123.526 305.875 123.488C305.873 123.451 305.87 123.413 305.865 123.375C305.86 123.338 305.854 123.301 305.847 123.264C305.839 123.227 305.831 123.19 305.821 123.154C305.811 123.117 305.8 123.082 305.787 123.047C305.775 123.012 305.762 122.977 305.747 122.944C305.577 122.551 305.333 122.389 305.042 122.268Z" fill="white"/>
<path opacity="0.09" d="M325.815 143.773C325.815 143.773 315.208 149.955 317.695 163.952C320.182 177.948 324.272 182.76 315.492 180.811C306.713 178.862 303.099 174.447 303.099 174.447C303.099 174.447 296.776 179.603 303.099 183.511C309.423 187.418 317.999 187.418 319.339 194.341H332.697C332.697 194.341 333.773 191.296 335.204 187.489C336.635 183.683 325.815 143.773 325.815 143.773Z" fill="black"/>
<path d="M305.769 134.405H215.484V200.522H305.769V134.405Z" fill="#FFD200"/>
<path opacity="0.43" d="M298.319 140.566H222.945V194.361H298.319V140.566Z" fill="white"/>
<path opacity="0.49" d="M223.808 194.361L244.321 156.431L261.738 185.845L277.41 167.464L298.309 194.361H223.808Z" fill="white"/>
<path d="M263.139 163.688C266.48 163.688 269.188 160.98 269.188 157.639C269.188 154.298 266.48 151.589 263.139 151.589C259.798 151.589 257.089 154.298 257.089 157.639C257.089 160.98 259.798 163.688 263.139 163.688Z" fill="white"/>
<path d="M342.278 168.509C342.278 168.509 344.034 186.485 335.173 187.489C328.515 188.241 317.837 184.444 311.311 182.628C308.489 181.816 307.119 181.44 304.947 179.461C302.348 177.086 298.735 175.401 301.536 173.137C306.52 169.077 310.062 175.99 310.062 175.99C314.223 177.201 318.512 177.917 322.841 178.121C323.654 178.144 324.46 177.977 325.197 177.633C325.933 177.289 326.579 176.777 327.083 176.14C327.587 175.502 327.935 174.755 328.099 173.959C328.263 173.163 328.238 172.339 328.028 171.554L326.383 165.362C326.383 165.362 338.086 154.4 342.278 168.509Z" fill="#F4A28C"/>
<path d="M333.113 142.373C337.67 145.895 344.603 153.67 344.471 168.367L325.612 169.575C325.612 169.575 320.162 153.437 325.856 143.774C326.209 143.169 326.687 142.648 327.258 142.243C327.829 141.838 328.48 141.561 329.167 141.428C329.854 141.295 330.561 141.311 331.242 141.474C331.923 141.637 332.56 141.944 333.113 142.373Z" fill="#68E1FD"/>
<path opacity="0.36" d="M333.113 142.373C337.67 145.895 344.603 153.67 344.471 168.367L325.612 169.575C325.612 169.575 320.162 153.437 325.856 143.774C326.209 143.169 326.687 142.648 327.258 142.243C327.829 141.838 328.48 141.561 329.167 141.428C329.854 141.295 330.561 141.311 331.242 141.474C331.923 141.637 332.56 141.944 333.113 142.373Z" fill="white"/>
<path d="M147.591 75.8804H176.011V71.3839H147.591V75.8804Z" fill="#C9C9C9"/>
<path d="M147.591 71.3638H169.089V66.8673H147.591V71.3638Z" fill="#E6E6E6"/>
<path opacity="0.58" d="M150.007 65.8317C150.007 65.8317 157.944 63.6596 159.68 56.2602C159.68 56.2602 147.368 53.7735 147.013 66.4813L150.007 65.8317Z" fill="#68E1FD"/>
<path opacity="0.73" d="M149.032 65.04C149.032 65.04 154.574 56.2603 149.692 48.0591C149.692 48.0591 140.334 54.007 144.495 65.0603L149.032 65.04Z" fill="#68E1FD"/>
<path d="M147.601 65.0502C147.601 65.0502 144.668 55.7833 135.797 54.0273C135.797 54.0273 134.142 60.0361 141.542 65.0705L147.601 65.0502Z" fill="#68E1FD"/>
<path d="M153.356 64.8369L151.753 75.8598L141.603 75.9004L140.111 64.8877L153.356 64.8369Z" fill="#24285B"/>
</svg>
