<svg width="406" height="306" viewBox="0 0 406 306" fill="none" xmlns="http://www.w3.org/2000/svg">
<path d="M182.314 49.3481H47.3193V169.108H182.314V49.3481Z" fill="#F2F2F2"/>
<path d="M182.314 150.503H47.3193V169.108H182.314V150.503Z" fill="#E6E6E6"/>
<path d="M58.6264 164.835C61.7263 164.835 64.2393 162.322 64.2393 159.222C64.2393 156.122 61.7263 153.609 58.6264 153.609C55.5264 153.609 53.0134 156.122 53.0134 159.222C53.0134 162.322 55.5264 164.835 58.6264 164.835Z" fill="#68E1FD"/>
<path d="M72.1564 164.835C75.2564 164.835 77.7694 162.322 77.7694 159.222C77.7694 156.122 75.2564 153.609 72.1564 153.609C69.0565 153.609 66.5435 156.122 66.5435 159.222C66.5435 162.322 69.0565 164.835 72.1564 164.835Z" fill="#FFD200"/>
<path d="M74.7649 160.643C74.5294 160.391 74.2553 160.179 73.9529 160.014C73.8831 159.973 73.825 159.916 73.7841 159.846C73.7431 159.777 73.7209 159.698 73.7194 159.618L73.6281 158.826C72.9124 158.557 72.1284 158.528 71.395 158.745L71.2631 159.516C71.2586 159.6 71.2318 159.681 71.1854 159.75C71.1389 159.82 71.0746 159.876 70.9992 159.912C70.6842 160.055 70.3959 160.251 70.1466 160.491C70.105 160.533 70.0553 160.567 70.0004 160.59C69.9455 160.614 69.8865 160.626 69.8269 160.626C69.7673 160.626 69.7083 160.614 69.6534 160.59C69.5985 160.567 69.5488 160.533 69.5072 160.491L68.7967 159.729C68.7123 159.642 68.6652 159.526 68.6652 159.405C68.6652 159.283 68.7123 159.167 68.7967 159.08C69.8091 158.14 71.1526 157.639 72.5335 157.686C73.9143 157.734 75.2202 158.326 76.1656 159.334C76.2082 159.375 76.2421 159.425 76.2653 159.48C76.2884 159.535 76.3003 159.594 76.3003 159.653C76.3003 159.713 76.2884 159.772 76.2653 159.827C76.2421 159.882 76.2082 159.931 76.1656 159.973L75.4043 160.684C75.36 160.724 75.3082 160.755 75.2518 160.774C75.1954 160.794 75.1356 160.802 75.076 160.798C75.0164 160.795 74.9581 160.779 74.9047 160.752C74.8512 160.726 74.8037 160.688 74.7649 160.643Z" fill="white"/>
<path d="M85.6964 164.835C88.7964 164.835 91.3094 162.322 91.3094 159.222C91.3094 156.122 88.7964 153.609 85.6964 153.609C82.5965 153.609 80.0835 156.122 80.0835 159.222C80.0835 162.322 82.5965 164.835 85.6964 164.835Z" fill="#68E1FD"/>
<path d="M59.8951 157.222H55.1348V161.221H59.8951V157.222Z" fill="white"/>
<path d="M62.1078 160.826L60.5244 160.298V158.288L62.1078 157.76V160.826Z" fill="white"/>
<path d="M85.6964 155.345H85.6863C84.7893 155.345 84.0623 156.072 84.0623 156.969V159.445C84.0623 160.342 84.7893 161.069 85.6863 161.069H85.6964C86.5933 161.069 87.3204 160.342 87.3204 159.445V156.969C87.3204 156.072 86.5933 155.345 85.6964 155.345Z" fill="white"/>
<path d="M86.0415 160.531H85.3513V162.46H86.0415V160.531Z" fill="white"/>
<path d="M87.1276 162.277H84.2653V163.089H87.1276V162.277Z" fill="white"/>
<path d="M365.512 49.3481H207.172V218.244H365.512V49.3481Z" fill="#F2F2F2"/>
<path d="M365.512 196.412H207.172V218.234H365.512V196.412Z" fill="#E6E6E6"/>
<path d="M220.428 213.22C224.06 213.22 227.005 210.275 227.005 206.643C227.005 203.01 224.06 200.065 220.428 200.065C216.795 200.065 213.85 203.01 213.85 206.643C213.85 210.275 216.795 213.22 220.428 213.22Z" fill="#68E1FD"/>
<path d="M236.312 213.22C239.945 213.22 242.89 210.275 242.89 206.643C242.89 203.01 239.945 200.065 236.312 200.065C232.68 200.065 229.735 203.01 229.735 206.643C229.735 210.275 232.68 213.22 236.312 213.22Z" fill="#FFD200"/>
<path d="M239.368 208.307C239.092 208.01 238.77 207.76 238.413 207.566C238.331 207.521 238.263 207.455 238.215 207.375C238.166 207.295 238.14 207.203 238.139 207.11L238.038 206.176C237.194 205.862 236.272 205.83 235.409 206.085L235.257 206.988C235.251 207.086 235.22 207.18 235.167 207.262C235.114 207.344 235.039 207.411 234.952 207.455C234.581 207.623 234.238 207.849 233.937 208.125C233.888 208.174 233.83 208.214 233.765 208.241C233.701 208.268 233.632 208.282 233.562 208.282C233.492 208.282 233.423 208.268 233.358 208.241C233.294 208.214 233.235 208.174 233.186 208.125L232.354 207.232C232.304 207.182 232.264 207.122 232.237 207.057C232.21 206.992 232.196 206.922 232.196 206.851C232.196 206.78 232.21 206.71 232.237 206.645C232.264 206.58 232.304 206.52 232.354 206.47C232.939 205.918 233.628 205.488 234.381 205.204C235.133 204.919 235.935 204.787 236.739 204.815C237.543 204.842 238.334 205.028 239.066 205.363C239.797 205.698 240.455 206.174 241.002 206.765C241.053 206.813 241.093 206.871 241.121 206.936C241.149 207 241.163 207.07 241.163 207.14C241.163 207.21 241.149 207.28 241.121 207.345C241.093 207.409 241.053 207.467 241.002 207.516L240.119 208.348C240.067 208.395 240.006 208.432 239.94 208.455C239.874 208.479 239.804 208.489 239.735 208.485C239.665 208.481 239.596 208.464 239.533 208.433C239.47 208.403 239.414 208.36 239.368 208.307Z" fill="white"/>
<path d="M252.187 213.22C255.819 213.22 258.764 210.275 258.764 206.643C258.764 203.01 255.819 200.065 252.187 200.065C248.554 200.065 245.61 203.01 245.61 206.643C245.61 210.275 248.554 213.22 252.187 213.22Z" fill="#68E1FD"/>
<path d="M221.93 204.298H216.347V208.987H221.93V204.298Z" fill="white"/>
<path d="M224.518 208.52L222.671 207.901V205.546L224.518 204.927V208.52Z" fill="white"/>
<path d="M252.43 202.096H251.943C251.024 202.096 250.279 202.841 250.279 203.76V207.15C250.279 208.07 251.024 208.815 251.943 208.815H252.43C253.35 208.815 254.095 208.07 254.095 207.15V203.76C254.095 202.841 253.35 202.096 252.43 202.096Z" fill="white"/>
<path d="M252.593 208.175H251.781V210.439H252.593V208.175Z" fill="white"/>
<path d="M253.862 210.226H250.502V211.18H253.862V210.226Z" fill="white"/>
<path d="M193.023 195.803H99.9775V264.346H193.023V195.803Z" fill="#F2F2F2"/>
<path d="M193.023 182.973H99.9775V195.803H193.023V182.973Z" fill="#E6E6E6"/>
<path d="M107.773 193.255C109.908 193.255 111.64 191.523 111.64 189.388C111.64 187.252 109.908 185.521 107.773 185.521C105.637 185.521 103.906 187.252 103.906 189.388C103.906 191.523 105.637 193.255 107.773 193.255Z" fill="#68E1FD"/>
<path d="M117.101 193.255C119.236 193.255 120.968 191.523 120.968 189.388C120.968 187.252 119.236 185.521 117.101 185.521C114.965 185.521 113.233 187.252 113.233 189.388C113.233 191.523 114.965 193.255 117.101 193.255Z" fill="#FFD200"/>
<path d="M118.897 190.372C118.737 190.196 118.549 190.048 118.339 189.936C118.289 189.91 118.248 189.87 118.219 189.822C118.19 189.773 118.176 189.718 118.176 189.662L118.116 189.114C117.62 188.93 117.079 188.912 116.573 189.063L116.481 189.591C116.482 189.649 116.465 189.707 116.432 189.756C116.399 189.804 116.353 189.842 116.299 189.865C116.086 189.966 115.891 190.099 115.72 190.261C115.691 190.29 115.656 190.313 115.618 190.329C115.579 190.345 115.538 190.353 115.497 190.353C115.455 190.353 115.414 190.345 115.376 190.329C115.338 190.313 115.303 190.29 115.274 190.261L114.786 189.733C114.757 189.704 114.734 189.67 114.718 189.633C114.702 189.595 114.694 189.555 114.694 189.515C114.694 189.474 114.702 189.434 114.718 189.396C114.734 189.359 114.757 189.325 114.786 189.296C115.481 188.645 116.406 188.297 117.357 188.328C118.309 188.358 119.21 188.765 119.861 189.459C119.891 189.488 119.914 189.523 119.93 189.561C119.946 189.599 119.954 189.64 119.954 189.682C119.954 189.723 119.946 189.765 119.93 189.803C119.914 189.841 119.891 189.876 119.861 189.905L119.344 190.392C119.313 190.421 119.277 190.442 119.238 190.457C119.199 190.471 119.158 190.477 119.116 190.475C119.075 190.474 119.034 190.463 118.996 190.446C118.959 190.428 118.925 190.403 118.897 190.372Z" fill="white"/>
<path d="M126.428 193.255C128.564 193.255 130.296 191.523 130.296 189.388C130.296 187.252 128.564 185.521 126.428 185.521C124.293 185.521 122.561 187.252 122.561 189.388C122.561 191.523 124.293 193.255 126.428 193.255Z" fill="#68E1FD"/>
<path d="M108.646 188.007H105.367V190.768H108.646V188.007Z" fill="white"/>
<path d="M110.178 190.494L109.082 190.139V188.748L110.178 188.383V190.494Z" fill="white"/>
<path d="M127.555 187.845C127.555 187.223 127.053 186.718 126.433 186.718C125.814 186.718 125.312 187.223 125.312 187.845V189.54C125.312 190.162 125.814 190.667 126.433 190.667C127.053 190.667 127.555 190.162 127.555 189.54V187.845Z" fill="white"/>
<path d="M126.672 190.291H126.195V191.621H126.672V190.291Z" fill="white"/>
<path d="M127.413 191.499H125.444V192.057H127.413V191.499Z" fill="white"/>
<path d="M240.423 231.866H207.172V264.173H240.423V231.866Z" fill="#F2F2F2"/>
<path d="M365.502 235.418H253.862V240.493H365.502V235.418Z" fill="#F2F2F2"/>
<path d="M365.502 245.487H253.862V250.562H365.502V245.487Z" fill="#F2F2F2"/>
<path d="M345.212 255.556H253.862V260.631H345.212V255.556Z" fill="#F2F2F2"/>
<path opacity="0.58" d="M64.3611 244.594C64.3611 244.594 49.735 240.605 46.5885 227.014C46.5885 227.014 69.2128 222.436 69.8523 245.791L64.3611 244.594Z" fill="#68E1FD"/>
<path opacity="0.73" d="M66.1577 243.142C66.1577 243.142 55.9468 227.014 64.96 211.931C64.96 211.931 82.215 222.852 74.5213 243.172L66.1577 243.142Z" fill="#68E1FD"/>
<path d="M68.7865 243.153C68.7865 243.153 74.1762 226.121 90.4669 222.853C90.4669 222.853 93.5119 233.916 79.9211 243.153H68.7865Z" fill="#68E1FD"/>
<path d="M58.1899 242.767L61.1537 263.016L79.7993 263.097L82.5398 242.868L58.1899 242.767Z" fill="#24285B"/>
<path d="M139.38 81.9501C139.38 81.9501 165.212 86.8323 180.771 81.3208C196.331 75.8094 185.999 55.7327 170.418 45.1564L177.229 39.4927C177.229 39.4927 218.996 66.9992 196.342 97.8856C173.687 128.772 118.187 123.047 139.38 81.9501Z" fill="#68E1FD"/>
<path opacity="0.46" d="M139.38 81.9501C139.38 81.9501 165.212 86.8323 180.771 81.3208C196.331 75.8094 185.999 55.7327 170.418 45.1564L177.229 39.4927C177.229 39.4927 218.996 66.9992 196.342 97.8856C173.687 128.772 118.187 123.047 139.38 81.9501Z" fill="white"/>
<path d="M82.9052 150.503H150.91C157.081 136.05 177.554 80.5697 128.438 80.722C124.433 80.7735 120.437 81.1127 116.481 81.737C114.827 81.9806 113.112 82.2749 111.325 82.62C111.325 82.62 64.7367 81.8689 69.1012 106.706C72.4101 125.412 79.5861 143.002 82.9052 150.503Z" fill="#68E1FD"/>
<path opacity="0.08" d="M122.815 95.4494C115.03 99.347 113.741 91.562 113.741 91.562C112.381 89.5929 114.147 85.2588 116.441 81.6962C120.397 81.0718 124.393 80.7326 128.397 80.6812C128.59 85.543 127.89 92.9119 122.815 95.4494Z" fill="black"/>
<path d="M112.157 82.7618C112.494 83.8511 112.765 84.9594 112.969 86.0809C113.233 87.6135 114.056 89.8465 116.563 89.9582C120.43 90.1206 120.623 84.0306 120.623 84.0306C120.623 84.0306 122.206 78.1131 118.014 77.9406C114.218 77.7477 110.696 77.7376 112.157 82.7618Z" fill="#F4A28C"/>
<path d="M120.389 84.3049C120.389 84.3049 120.389 82.4576 121.932 82.2749C123.475 82.0922 123.373 85.6346 120.389 84.3049Z" fill="#F4A28C"/>
<path d="M113.304 84.2744C113.304 84.2744 113.609 82.4575 112.066 82.082C110.523 81.7064 110.148 85.1473 113.304 84.2744Z" fill="#F4A28C"/>
<path opacity="0.08" d="M87.899 150.503H138.304C138.304 150.503 86.5389 141.886 93.8367 127.97C101.135 114.055 93.8367 98.5859 93.8367 98.5859L70.1974 114.044L73.963 139.419L87.899 150.503Z" fill="black"/>
<path d="M112.158 82.7618C112.158 82.7618 105.936 82.7618 108.037 77.8695C110.138 72.9772 111.203 76.2759 112.005 72.6219C112.807 68.9679 113.873 68.1255 115.974 69.3536C118.075 70.5818 116.674 73.9313 119.405 72.6625C122.135 71.3938 123.972 70.2976 124.855 72.5813C125.738 74.8651 125.353 76.0831 123.617 77.1488C121.881 78.2146 125.231 81.0058 120.795 82.9546C116.36 84.9034 113.233 80.1837 113.233 80.1837L112.158 82.7618Z" fill="#24285B"/>
<path d="M64.8382 150.503H116.167L115.466 147.559C115.466 147.559 71.1515 141.835 76.2773 127.899C80.5403 116.277 100.8 110.146 92.6594 96.0989C91.7732 94.615 90.6024 93.3209 89.2143 92.291C87.8262 91.2612 86.2482 90.5159 84.571 90.098C82.8939 89.6801 81.1507 89.5979 79.4417 89.8561C77.7327 90.1143 76.0915 90.7078 74.6127 91.6024C62.524 98.7988 43.7364 113.608 48.8317 134.111C50.882 142.352 57.0329 147.448 64.8382 150.503Z" fill="#68E1FD"/>
<path opacity="0.46" d="M64.8382 150.503H116.167L115.466 147.559C115.466 147.559 71.1515 141.835 76.2773 127.899C80.5403 116.277 100.8 110.146 92.6594 96.0989C91.7732 94.615 90.6024 93.3209 89.2143 92.291C87.8262 91.2612 86.2482 90.5159 84.571 90.098C82.8939 89.6801 81.1507 89.5979 79.4417 89.8561C77.7327 90.1143 76.0915 90.7078 74.6127 91.6024C62.524 98.7988 43.7364 113.608 48.8317 134.111C50.882 142.352 57.0329 147.448 64.8382 150.503Z" fill="white"/>
<path d="M172.144 43.7354C171.423 44.3241 169.749 41.5734 169.576 41.1776C168.764 39.3289 168.102 37.4179 167.597 35.4631C168.539 35.8338 169.314 36.5334 169.779 37.4322C169.921 35.8184 169.19 34.1335 169.718 32.6008C169.793 32.279 169.979 31.9935 170.242 31.7934C170.505 31.5933 170.829 31.4912 171.159 31.5046C172.915 31.4539 174.286 33.0271 175.047 34.6105C175.717 35.8304 176.317 37.0877 176.843 38.3762C177.249 39.5637 176.63 39.9799 175.747 40.731C174.58 41.746 173.342 42.7305 172.144 43.7354Z" fill="#F4A28C"/>
<path d="M125.677 150.503C125.769 150.438 125.847 150.355 125.907 150.259C125.966 150.163 126.006 150.056 126.024 149.945C126.042 149.833 126.038 149.72 126.011 149.61C125.985 149.5 125.937 149.397 125.87 149.306C124.195 146.799 115.466 147.56 115.466 147.56L116.167 150.503H125.677Z" fill="#F4A28C"/>
<path d="M92.9334 182.973H47.3193V206.633H92.9334V182.973Z" fill="#F2F2F2"/>
<path d="M175.382 217.96C175.382 217.96 188.323 224.608 192.759 221.563C197.194 218.518 198.463 201.72 198.463 201.72L204.553 203.06C204.553 203.06 206.888 236.464 196.616 239.925C186.344 243.386 168.378 234.525 168.378 234.525L175.382 217.96Z" fill="#F4A28C"/>
<path d="M140.07 217.96C144.333 226.435 153.681 237.803 173.514 239.894L177.757 218.579C177.757 218.579 162.674 209.048 146.718 207.871C145.493 207.792 144.27 208.038 143.171 208.584C142.072 209.131 141.137 209.959 140.462 210.984C139.787 212.008 139.395 213.194 139.326 214.419C139.257 215.644 139.514 216.866 140.07 217.96Z" fill="#68E1FD"/>
<path opacity="0.46" d="M140.07 217.96C144.333 226.435 153.681 237.803 173.514 239.894L177.757 218.579C177.757 218.579 162.674 209.048 146.718 207.871C145.493 207.792 144.27 208.038 143.171 208.584C142.072 209.131 141.137 209.959 140.462 210.984C139.787 212.008 139.395 213.194 139.326 214.419C139.257 215.644 139.514 216.866 140.07 217.96Z" fill="white"/>
<path d="M198.757 201.72C198.463 201.649 198.158 195.194 198.94 195.793C199.448 196.279 199.801 196.903 199.955 197.589C199.955 197.589 199.955 193.022 202.31 193.529C204.665 194.037 205.466 199.294 204.533 202.989L198.757 201.923" fill="#F4A28C"/>
<path d="M161.273 264.345C163.922 258.692 169.596 244.299 168.165 227.156C166.318 204.978 141.958 205.079 141.958 205.079L138.487 204.968C133.945 204.782 129.46 206.036 125.674 208.552C121.888 211.068 118.994 214.716 117.405 218.975C111.873 234.301 121.039 255.789 125.271 264.386L161.273 264.345Z" fill="#68E1FD"/>
<path d="M133.848 199.244C136.432 199.397 138.822 198.037 141.385 198.133L141.671 199.501C141.966 201.129 142.577 203.595 142.361 205.048C141.57 206.479 137.246 207.194 135.952 206.693C135.598 206.556 135.409 206.393 135.143 205.771C134.61 204.52 134.387 202.505 134.153 201.064L133.848 199.244Z" fill="#FFD200"/>
<path d="M138.709 202.804C136.15 203.474 134.822 200.793 133.939 199.755L141.482 198.542C141.195 199.639 142.096 201.917 138.709 202.804Z" fill="#E5BF0B"/>
<path d="M134.879 180.178C134.731 179.377 134.589 178.582 134.497 177.772L134.918 180.16C136.872 180.092 139.488 179.92 141.024 181.37C142.199 182.479 142.311 184.165 142.565 185.668C142.992 188.139 143.374 190.627 143.849 193.089C144.032 194.114 144.784 196.44 144.189 197.324C143.678 198.085 142.315 198.351 141.458 198.555C138.944 198.741 136.687 199.303 134.157 199.464C133.172 199.558 132.6 199.165 131.757 198.53C130.889 197.875 129.612 196.9 129.449 195.864C129.088 193.343 128.568 190.831 128.159 188.315C128.134 186.509 127.287 185.244 128.358 183.491C129.425 181.745 131.717 180.859 133.607 180.392L134.879 180.178Z" fill="#FFE56E"/>
<path d="M128.378 188.829C128.263 188.062 128.089 187.467 127.983 186.698C127.844 185.646 127.78 184.775 128.332 183.916C130.028 181.279 134.644 179.785 137.945 180.905C137.945 180.905 139.953 181.398 141.036 183.401C141.914 185.025 141.623 187.202 141.858 187.601C141.428 188.414 141.129 189.281 141.328 190.291C141.44 190.864 141.67 191.37 141.975 191.838C141.755 192.446 141.591 193.073 141.34 193.665C140.502 195.641 139.068 197.129 137.5 198.257C136.334 199.097 135.656 199.373 134.165 199.6C133.018 199.774 132.241 199.277 131.196 198.35C130.044 197.33 129.553 196.049 129.324 194.535C128.946 192.313 128.782 191.046 128.378 188.829Z" fill="#FFD200"/>
<path d="M133.206 181.098C132.904 180.281 132.473 179.367 132.373 178.502C132.334 178.16 132.36 177.983 132.566 177.717C132.845 177.668 133.043 177.707 133.304 177.837C133.523 177.948 133.574 178.149 133.647 178.365C133.872 179.149 134.145 179.909 134.425 180.674L133.206 181.098Z" fill="#25285B"/>
<path d="M134.578 194.256C134.154 194.288 133.628 194.375 133.237 194.17C132.866 193.975 132.738 193.767 132.608 193.379C132.32 192.525 131.445 188.082 131.786 187.483C132.099 186.932 134.388 186.505 134.922 187.093C136.351 188.068 134.216 191.735 134.578 194.256Z" fill="#25285B"/>
<path d="M139.245 187.4C140.442 187.227 142.797 186.831 143.013 187.076C143.229 187.32 143.487 190.33 143.625 191.615C142.54 192.104 141.237 192.352 139.906 192.118C139.504 192.047 139.167 191.77 138.903 191.276C138.595 190.699 138.478 189.893 138.518 189.187C138.565 188.36 138.836 187.868 139.245 187.4Z" fill="#25285B"/>
<path d="M141.095 187.538C141.447 187.477 141.742 187.473 142.076 187.719C142.426 187.977 142.688 188.44 142.816 188.971C142.824 189.004 142.832 189.038 142.839 189.071C142.846 189.105 142.852 189.139 142.858 189.173C142.864 189.207 142.87 189.242 142.874 189.276C142.879 189.31 142.883 189.345 142.887 189.379C142.89 189.414 142.893 189.449 142.896 189.483C142.898 189.518 142.9 189.553 142.901 189.588C142.902 189.622 142.903 189.657 142.903 189.692C142.903 189.726 142.902 189.761 142.901 189.795C142.9 189.83 142.898 189.864 142.896 189.899C142.894 189.933 142.891 189.967 142.887 190.001C142.884 190.035 142.88 190.069 142.875 190.102C142.87 190.136 142.865 190.169 142.859 190.202C142.853 190.236 142.847 190.268 142.84 190.301C142.833 190.333 142.825 190.366 142.817 190.398C142.809 190.43 142.8 190.461 142.791 190.492C142.782 190.524 142.772 190.554 142.762 190.585C142.57 191.143 142.254 191.427 141.85 191.603C141.54 191.656 141.248 191.621 140.95 191.432C140.599 191.208 140.297 190.791 140.148 190.276C140.138 190.243 140.13 190.21 140.121 190.177C140.113 190.144 140.106 190.111 140.099 190.078C140.092 190.044 140.085 190.01 140.079 189.976C140.074 189.942 140.068 189.908 140.064 189.874C140.059 189.84 140.055 189.806 140.051 189.772C140.048 189.737 140.045 189.703 140.043 189.668C140.04 189.634 140.039 189.599 140.038 189.565C140.036 189.53 140.036 189.496 140.036 189.461C140.036 189.427 140.037 189.393 140.038 189.358C140.039 189.324 140.041 189.29 140.044 189.256C140.046 189.222 140.049 189.188 140.053 189.154C140.057 189.121 140.061 189.087 140.066 189.054C140.071 189.021 140.076 188.987 140.082 188.955C140.088 188.922 140.095 188.889 140.102 188.857C140.109 188.825 140.117 188.793 140.125 188.762C140.134 188.73 140.143 188.699 140.152 188.668C140.338 188.053 140.67 187.753 141.095 187.538Z" fill="#1AAEE0"/>
<path d="M141.208 188.457C141.402 188.431 141.581 188.426 141.77 188.549C142.048 188.729 142.165 189.07 142.278 189.447C142.266 189.583 142.251 189.719 142.228 189.852C142.156 190.253 141.995 190.453 141.756 190.638C141.616 190.667 141.47 190.684 141.329 190.634C141.302 190.624 141.275 190.613 141.249 190.599C141.222 190.585 141.196 190.57 141.171 190.552C141.145 190.535 141.12 190.515 141.096 190.494C141.072 190.473 141.048 190.45 141.025 190.426C141.003 190.401 140.981 190.375 140.96 190.347C140.939 190.32 140.919 190.29 140.9 190.26C140.881 190.229 140.863 190.198 140.846 190.164C140.829 190.131 140.813 190.097 140.799 190.062C140.786 190.03 140.774 189.998 140.764 189.965C140.753 189.932 140.743 189.898 140.735 189.864C140.727 189.83 140.72 189.795 140.713 189.76C140.707 189.725 140.703 189.689 140.699 189.654C140.695 189.618 140.693 189.583 140.692 189.547C140.69 189.511 140.69 189.476 140.692 189.44C140.693 189.405 140.695 189.369 140.699 189.334C140.703 189.3 140.708 189.265 140.714 189.231C140.784 188.833 140.97 188.631 141.208 188.457Z" fill="white"/>
<path opacity="0.08" d="M125.18 264.346H137.664C136.731 261.666 136.01 256.966 136.863 248.918C138.578 232.962 133.909 216.488 133.909 216.488C116.116 217.138 121.516 254.967 122.521 258.337C123.242 260.409 124.131 262.418 125.18 264.346Z" fill="black"/>
<path d="M122.653 210.541C115.111 216.296 105.682 227.582 107.306 247.456L129.017 247.679C129.017 247.679 135.584 231.094 133.777 215.199C133.628 213.984 133.16 212.829 132.421 211.853C131.682 210.876 130.697 210.113 129.568 209.639C128.438 209.166 127.203 209.001 125.989 209.159C124.774 209.317 123.623 209.794 122.653 210.541Z" fill="#68E1FD"/>
<path opacity="0.46" d="M122.653 210.541C115.111 216.296 105.682 227.582 107.306 247.456L129.017 247.679C129.017 247.679 135.584 231.094 133.777 215.199C133.628 213.984 133.16 212.829 132.421 211.853C131.682 210.876 130.697 210.113 129.568 209.639C128.438 209.166 127.203 209.001 125.989 209.159C124.774 209.317 123.623 209.794 122.653 210.541Z" fill="white"/>
<path d="M121.617 264.345C122.159 258.607 123.548 252.98 125.738 247.649L109.356 247.476C109.323 253.109 109.587 258.74 110.148 264.345H121.617Z" fill="#F4A28C"/>
<path d="M292.939 47.5312C292.939 47.5312 299.638 41.8573 304.916 45.8158C310.194 49.7743 306.601 65.8012 318.111 62.1167C318.111 62.1167 305.637 72.4596 296.908 55.57L292.939 47.5312Z" fill="#24285B"/>
<path d="M298.288 58.5135C298.288 58.5135 302.846 57.874 300.958 51.6622C299.07 45.4504 293.924 45.6737 292.452 47.3079L298.288 58.5135Z" fill="#68E1FD"/>
<path d="M284.667 55.1538C284.982 58.1592 285.699 61.1086 286.798 63.9234C286.952 64.2485 287.168 64.54 287.434 64.7813C287.701 65.0226 288.012 65.209 288.35 65.3297C288.689 65.4504 289.048 65.5031 289.407 65.4847C289.766 65.4663 290.118 65.3773 290.442 65.2226C291.514 64.7839 292.439 64.0486 293.107 63.1029C293.776 62.1573 294.161 61.0406 294.218 59.8837L294.918 54.9102C294.952 53.9015 294.673 52.907 294.119 52.0636C293.564 51.2202 292.762 50.5694 291.823 50.2006C288.402 48.6172 284.2 51.8754 284.667 55.1538Z" fill="#F4A28C"/>
<path d="M296.035 57.6812L299.567 75.129L289.813 76.3876L291.122 63.5174L296.035 57.6812Z" fill="#F4A28C"/>
<path d="M285.215 58.5342L284.129 60.8788C284.068 61.0117 284.041 61.1579 284.051 61.304C284.061 61.45 284.107 61.5911 284.186 61.7144C284.265 61.8377 284.374 61.9392 284.502 62.0096C284.63 62.08 284.774 62.117 284.921 62.1171H287.032L285.215 58.5342Z" fill="#F4A28C"/>
<path opacity="0.31" d="M291.092 63.8831C292.239 63.5203 293.267 62.8539 294.066 61.9546C294.066 61.9546 295.192 65.6796 290.716 67.5675L291.092 63.8831Z" fill="#CE8172"/>
<path d="M295.67 57.7627C295.67 57.7627 295.314 55.7327 296.888 55.5703C298.461 55.4079 298.989 58.4022 296.948 59.0822L295.67 57.7627Z" fill="#F4A28C"/>
<path d="M285.743 54.6872C287.489 54.7754 289.239 54.573 290.919 54.0883C290.919 54.0883 292.706 59.955 297.628 60.9193C297.628 60.9193 301.12 51.4595 295.192 48.6175C290.239 46.2424 286.494 44.05 283.073 47.9476C282.574 48.5094 282.241 49.1986 282.111 49.9386C281.98 50.6786 282.057 51.4402 282.334 52.1388C282.611 52.8374 283.076 53.4455 283.678 53.8954C284.28 54.3453 284.994 54.6194 285.743 54.6872Z" fill="#24285B"/>
<path d="M277.552 128.833C277.552 128.833 277.237 166.388 251.832 168.865C226.426 171.341 211.699 121.626 211.546 121.16C211.171 119.881 209.1 118.703 208.359 117.506C207.322 115.81 206.777 113.86 206.786 111.872C206.778 111.658 206.823 111.445 206.918 111.253C207.025 111.112 207.174 111.008 207.343 110.955C207.512 110.902 207.693 110.904 207.862 110.959C208.201 111.072 208.512 111.255 208.775 111.497C208.43 110.342 208.269 109.139 208.298 107.934C208.369 105.386 210.328 102.544 212.541 105.285C213.535 106.719 214.295 108.302 214.794 109.974C215.454 111.761 216.012 113.598 216.53 115.435C216.658 116.296 216.883 117.141 217.2 117.952C217.2 117.952 231.948 143.865 244.239 145.875C256.531 147.884 246.381 107.416 274.05 87.6544C301.719 67.8923 277.552 128.833 277.552 128.833Z" fill="#F4A28C"/>
<path d="M291.183 57.2449C291.183 57.2449 291.183 54.819 293.112 54.9814C295.04 55.1438 295.355 57.9452 293.112 59.3256L291.183 57.2449Z" fill="#F4A28C"/>
<path d="M299.567 75.1294L289.813 76.388C289.813 76.388 237.033 101.763 267.239 137.42C269.792 140.391 271.425 144.042 271.939 147.925L274.679 169.839H314.335C314.335 169.839 371.612 87.9285 299.567 75.1294Z" fill="#68E1FD"/>
<path opacity="0.08" d="M299.283 95.4189C299.283 95.4189 288.189 112.227 303.394 128.143C318.598 144.058 309.778 157.933 292.452 147.032C275.126 136.131 272.324 150.341 272.324 150.341L273.339 159.262L300.308 158.958L330.19 159.07L340.705 134.141L299.283 95.4189Z" fill="black"/>
<path d="M331.499 196.412L323.105 159.263H273.36L267.199 196.412H331.499Z" fill="#24285B"/>
<path d="M299.283 95.4189C298.664 83.7058 312.265 76.7429 321.765 83.6144C334.595 92.9017 352.794 108.695 347.83 149.732C341.801 199.467 279.409 147.915 279.409 147.915L281.987 141.348C281.987 141.348 316.284 162.784 325.49 149.346C328.322 145.205 324.475 138.942 321.522 133.979C316.244 125.006 300.034 109.71 299.283 95.4189Z" fill="#F4A28C"/>
<path d="M281.744 141.378C281.459 139.216 277.684 136.06 276.141 134.781C275.689 134.356 275.153 134.031 274.568 133.827C274.272 133.731 273.956 133.718 273.653 133.789C273.35 133.861 273.073 134.014 272.852 134.233C272.663 134.531 272.54 134.867 272.491 135.217C272.442 135.567 272.468 135.924 272.568 136.263C272.964 138.719 273.451 141.997 274.771 144.149C275.106 144.697 278.993 147.935 279.409 147.001C280.13 145.418 281.368 143.601 281.723 141.926C281.76 141.746 281.767 141.561 281.744 141.378Z" fill="#F4A28C"/>
<path d="M303.394 75.8602C303.394 75.8602 304.744 71.6479 296.958 70.7852C289.173 69.9224 282.962 73.211 285.519 78.7225C285.519 78.7428 291.386 83.4118 303.394 75.8602Z" fill="#68E1FD"/>
<path opacity="0.46" d="M303.394 75.8602C303.394 75.8602 304.744 71.6479 296.958 70.7852C289.173 69.9224 282.962 73.211 285.519 78.7225C285.519 78.7428 291.386 83.4118 303.394 75.8602Z" fill="white"/>
<path d="M276.406 148.033L280.422 151.282L286.602 143.643L282.585 140.394L276.406 148.033Z" fill="#24285B"/>
</svg>
