<svg width="406" height="306" viewBox="0 0 406 306" fill="none" xmlns="http://www.w3.org/2000/svg">
<path opacity="0.45" d="M89.7261 272.039C121.516 272.039 147.287 267.158 147.287 261.138C147.287 255.117 121.516 250.237 89.7261 250.237C57.9362 250.237 32.1654 255.117 32.1654 261.138C32.1654 267.158 57.9362 272.039 89.7261 272.039Z" fill="#E6E6E6"/>
<path d="M304.774 78.1943H92.5376V217.655H304.774V78.1943Z" fill="#E6E6E6"/>
<path d="M102.799 90.9226C104.716 90.9226 106.27 89.3684 106.27 87.4513C106.27 85.5341 104.716 83.98 102.799 83.98C100.882 83.98 99.3279 85.5341 99.3279 87.4513C99.3279 89.3684 100.882 90.9226 102.799 90.9226Z" fill="#24285B"/>
<path d="M113.112 90.9226C115.029 90.9226 116.583 89.3684 116.583 87.4513C116.583 85.5341 115.029 83.98 113.112 83.98C111.194 83.98 109.64 85.5341 109.64 87.4513C109.64 89.3684 111.194 90.9226 113.112 90.9226Z" fill="#68E1FD"/>
<path d="M122.835 90.9226C124.752 90.9226 126.307 89.3684 126.307 87.4513C126.307 85.5341 124.752 83.98 122.835 83.98C120.918 83.98 119.364 85.5341 119.364 87.4513C119.364 89.3684 120.918 90.9226 122.835 90.9226Z" fill="#FFD200"/>
<path opacity="0.08" d="M270.376 78.1943L220.387 78.3973L212.389 89.6537L137.025 158.867L143.217 170.894L122.054 179.238H101.429L98.6986 217.655H122.815L126.225 195.224C146.414 192.534 159.72 174.031 159.72 174.031L247.66 136.425L236.495 110.705L251.344 103.6L252.167 108.259C252.167 108.259 260.195 106.046 259.86 98.5654C259.525 91.0848 258.825 81.7976 270.376 78.1943Z" fill="black"/>
<path d="M229.126 49.8457C227.898 59.6811 222.823 80.0014 201.985 89.0552L205.03 94.1302C205.03 94.1302 234.029 84.9952 241.022 61.6502C244.158 51.145 242.159 46.5876 238.992 44.7403C238.03 44.2092 236.952 43.9236 235.854 43.9088C234.755 43.894 233.67 44.1504 232.694 44.6554C231.718 45.1603 230.882 45.8982 230.26 46.8036C229.638 47.7089 229.248 48.7539 229.126 49.8457Z" fill="#68E1FD"/>
<path opacity="0.2" d="M229.126 49.8457C227.898 59.6811 222.823 80.0014 201.985 89.0552L205.03 94.1302C205.03 94.1302 234.029 84.9952 241.022 61.6502C244.158 51.145 242.159 46.5876 238.992 44.7403C238.03 44.2092 236.952 43.9236 235.854 43.9088C234.755 43.894 233.67 44.1504 232.694 44.6554C231.718 45.1603 230.882 45.8982 230.26 46.8036C229.638 47.7089 229.248 48.7539 229.126 49.8457Z" fill="white"/>
<path d="M231.785 34.2956L236.769 40.3754L241.154 35.6658L233.288 28.6826L231.785 34.2956Z" fill="#F4A28C"/>
<path d="M228.273 23.1307C227.509 23.0119 226.727 23.0863 225.998 23.3471C225.269 23.6079 224.618 24.0468 224.102 24.6239C223.587 25.201 223.224 25.8979 223.046 26.6511C222.869 27.4044 222.883 28.19 223.087 28.9365C224.01 32.489 226 37.3305 229.796 35.6659C235.592 33.1284 232.547 25.5159 232.547 25.5159C231.388 24.3179 229.901 23.4883 228.273 23.1307Z" fill="#F4A28C"/>
<path d="M235.977 70.7241L226.091 75.7991C225.245 76.2396 224.495 76.8461 223.888 77.5825C223.281 78.3189 222.829 79.17 222.558 80.0851C222.287 81.0002 222.203 81.9606 222.311 82.9088C222.42 83.857 222.718 84.7736 223.188 85.604L232.07 100.981L236.393 97.9363L231.318 83.909C231.233 83.677 231.197 83.4295 231.213 83.1827C231.23 82.9359 231.298 82.6954 231.414 82.4769C231.53 82.2584 231.691 82.0669 231.886 81.9149C232.081 81.7628 232.306 81.6538 232.547 81.5948L242.402 79.1892L240.646 83.8582C240.093 85.317 239.896 86.887 240.073 88.4372C240.249 89.9875 240.794 91.473 241.661 92.7699L250.796 106.391L254.257 104.27L249.863 92.2015C249.38 90.8767 249.269 89.4448 249.543 88.0616C249.817 86.6783 250.464 85.3965 251.415 84.3556L256.176 79.1385L235.977 70.7241Z" fill="#24285B"/>
<path d="M331.753 194.615H272.375V232.17H331.753V194.615Z" fill="#F2F2F2"/>
<path opacity="0.08" d="M272.527 194.615H262.875V217.656H272.527V194.615Z" fill="black"/>
<path d="M220.874 24.4199C220.874 24.4199 219.27 29.5761 224.853 28.3074C230.435 27.0386 230.009 25.2624 230.009 25.2624C230.009 25.2624 230.435 31.3524 233.227 30.0024C236.018 28.6525 234.414 25.3334 233.227 23.0598C232.039 20.7862 231.339 20.1062 228.152 19.7712C224.965 19.4363 221.27 21.2937 220.874 24.4199Z" fill="#24285B"/>
<path d="M230.1 28.8147C230.1 28.8147 229.867 27.0791 231.542 27.414C233.216 27.749 232.557 30.1647 231.542 30.3372C230.527 30.5098 230.1 28.8147 230.1 28.8147Z" fill="#F4A28C"/>
<path d="M235.713 39.0866L241.154 35.6661C241.154 35.6661 258.825 29.6268 264.407 35.1788C269.99 40.7309 270.386 61.6805 256.176 79.1385L235.977 70.7242C235.977 70.7242 236.383 60.6756 233.024 58.1381C229.664 55.6006 225.533 47.9882 235.713 39.0866Z" fill="#68E1FD"/>
<path d="M233.085 100.22C233.085 100.22 231.978 105.356 233.958 105.173C235.937 104.991 236.394 97.8857 236.394 97.8857L233.085 100.22Z" fill="#68E1FD"/>
<path d="M250.898 106.158C250.898 106.158 249.792 111.283 251.771 111.111C253.75 110.938 254.197 103.823 254.197 103.823L250.898 106.158Z" fill="#68E1FD"/>
<path d="M278.932 75.6265C278.932 75.6265 275.522 77.0982 276.78 78.7831C278.039 80.468 282.353 78.1944 282.353 78.1944L282.617 75.6265H278.932Z" fill="#F4A28C"/>
<path d="M202.401 89.6538C202.401 89.6538 196.798 90.1106 197.976 91.3996C198.554 92.0977 199.283 92.6562 200.107 93.0338C200.107 93.0338 196.047 97.5708 199.001 98.4742C201.955 99.3775 204.837 93.724 204.837 93.724L202.401 89.6538Z" fill="#F4A28C"/>
<path d="M213.894 87.0179L114.916 132.7L133.034 171.955L232.012 126.273L213.894 87.0179Z" fill="#FFD200"/>
<path opacity="0.58" d="M205.753 103.198L158.255 125.024L161.222 131.48L208.719 109.654L205.753 103.198Z" fill="white"/>
<path opacity="0.58" d="M211.894 116.575L164.396 138.401L167.363 144.857L214.861 123.031L211.894 116.575Z" fill="white"/>
<path d="M144.171 155.223C150.404 155.223 155.457 150.17 155.457 143.936C155.457 137.703 150.404 132.649 144.171 132.649C137.937 132.649 132.884 137.703 132.884 143.936C132.884 150.17 137.937 155.223 144.171 155.223Z" fill="white"/>
<path d="M292.563 206.115L284.646 213.808L292.563 221.512" stroke="#A5A5A5" stroke-width="2.03" stroke-linecap="round" stroke-linejoin="round"/>
<path d="M309.687 206.115L317.604 213.808L309.687 221.512" stroke="#A5A5A5" stroke-width="2.03" stroke-linecap="round" stroke-linejoin="round"/>
<path opacity="0.58" d="M194.555 65.8929C194.555 65.8929 184.801 63.2742 182.7 54.2204C182.7 54.2204 197.773 51.1044 198.27 66.6745L194.555 65.8929Z" fill="#68E1FD"/>
<path opacity="0.73" d="M195.743 64.9183C195.743 64.9183 188.892 54.1898 194.839 44.1108C194.839 44.1108 206.339 51.3478 201.305 64.9183H195.743Z" fill="#68E1FD"/>
<path d="M197.499 64.9182C197.499 64.9182 201.041 53.5502 211.902 51.3477C211.902 51.3477 213.932 58.7166 204.918 64.9182H197.499Z" fill="#68E1FD"/>
<path d="M304.206 206.115L296.614 221.512" stroke="#A5A5A5" stroke-width="2.03" stroke-linecap="round" stroke-linejoin="round"/>
<path opacity="0.63" d="M136.01 102.676H106.26V108.259H136.01V102.676Z" fill="#CECECE"/>
<path d="M78.2261 170.509C78.2261 170.509 60.7985 181.065 58.5148 205.831C58.3242 207.88 58.8763 209.93 60.0706 211.607C61.2648 213.284 63.0216 214.476 65.0209 214.966L85.4427 219.99L78.2261 170.509Z" fill="#68E1FD"/>
<path opacity="0.2" d="M78.2261 170.509C78.2261 170.509 60.7985 181.065 58.5148 205.831C58.3242 207.88 58.8763 209.93 60.0706 211.607C61.2648 213.284 63.0216 214.476 65.0209 214.966L85.4427 219.99L78.2261 170.509Z" fill="white"/>
<path d="M190.434 64.6948L192.464 78.1943H204.898L206.674 64.6948H190.434Z" fill="#24285B"/>
<path opacity="0.08" d="M304.774 115.059H260.175V185.185H304.774V115.059Z" fill="black"/>
<path d="M81.8771 198.419L48.2252 207.092L54.4421 231.213L88.094 222.54L81.8771 198.419Z" fill="#FFD200"/>
<path opacity="0.08" d="M68.0963 201.568L71.9533 217.656L70.9485 226.517L79.9718 224.182L82.6616 216.996L73.9935 200.035L68.0963 201.568Z" fill="black"/>
<path d="M80.7717 163.513C83.1152 163.569 85.2347 162.262 87.5568 162.268L87.8592 163.497C88.1782 164.96 88.8095 167.172 88.66 168.494C87.9891 169.814 84.0995 170.598 82.9126 170.186C82.5878 170.073 82.4117 169.932 82.1516 169.377C81.6288 168.262 81.3637 166.446 81.1061 165.15L80.7717 163.513Z" fill="#FFD200"/>
<path d="M85.2836 166.58C82.9897 167.267 81.7025 164.884 80.8707 163.973L87.6573 162.635C87.4324 163.636 88.3207 165.67 85.2836 166.58Z" fill="#E5BF0B"/>
<path d="M81.099 146.227C80.9391 145.507 80.7854 144.792 80.6771 144.062L81.1332 146.209C82.8996 146.086 85.2615 145.847 86.6971 147.11C87.7958 148.076 87.9505 149.599 88.2283 150.951C88.6931 153.173 89.1179 155.412 89.6263 157.625C89.8244 158.546 90.5786 160.627 90.0688 161.446C89.63 162.151 88.4056 162.436 87.6364 162.647C85.3677 162.895 83.3427 163.475 81.0587 163.701C80.1707 163.818 79.6403 163.48 78.8575 162.932C78.051 162.368 76.864 161.526 76.6841 160.594C76.2769 158.324 75.7269 156.067 75.2767 153.804C75.1965 152.171 74.3903 151.053 75.3036 149.432C76.2132 147.818 78.259 146.944 79.9544 146.461L81.099 146.227Z" fill="#FFE56E"/>
<path d="M75.4911 154.262C75.3624 153.571 75.186 153.039 75.0663 152.346C74.9069 151.399 74.8214 150.612 75.2937 149.818C76.7444 147.378 80.8735 145.879 83.8966 146.788C83.8966 146.788 85.7292 147.17 86.7726 148.948C87.6186 150.389 87.4251 152.369 87.6505 152.723C87.2866 153.472 87.0436 154.265 87.2557 155.174C87.376 155.689 87.6 156.139 87.891 156.553C87.7112 157.11 87.5821 157.682 87.3737 158.226C86.679 160.041 85.428 161.433 84.0454 162.504C83.0165 163.301 82.4121 163.572 81.0706 163.824C80.0374 164.019 79.3192 163.593 78.3434 162.788C77.2692 161.902 76.7836 160.758 76.5282 159.395C76.1156 157.397 75.9269 156.255 75.4911 154.262Z" fill="#FFD200"/>
<path d="M79.6136 147.112C79.3148 146.382 78.8958 145.569 78.778 144.79C78.7315 144.481 78.7491 144.32 78.9278 144.074C79.1785 144.021 79.3591 144.049 79.5986 144.159C79.8008 144.252 79.8534 144.432 79.926 144.625C80.1546 145.327 80.4253 146.006 80.7031 146.69L79.6136 147.112Z" fill="#25285B"/>
<path d="M81.2735 158.976C80.8913 159.018 80.418 159.114 80.0578 158.94C79.7158 158.775 79.5935 158.591 79.463 158.244C79.1755 157.481 78.2429 153.488 78.5318 152.936C78.7976 152.427 80.8553 151.968 81.3577 152.483C82.6811 153.319 80.8663 156.706 81.2735 158.976Z" fill="#25285B"/>
<path d="M85.2787 152.623C86.356 152.429 88.4742 151.996 88.6776 152.21C88.8811 152.425 89.2098 155.139 89.3753 156.297C88.4093 156.774 87.2381 157.04 86.0265 156.871C85.6607 156.819 85.3476 156.58 85.0931 156.141C84.7956 155.629 84.6644 154.903 84.6781 154.264C84.6941 153.514 84.924 153.059 85.2787 152.623Z" fill="#25285B"/>
<path d="M86.9572 152.689C87.2739 152.623 87.5403 152.61 87.8503 152.822C88.1755 153.044 88.427 153.455 88.5599 153.931C88.5684 153.961 88.5763 153.991 88.5838 154.021C88.5912 154.052 88.5981 154.082 88.6045 154.113C88.611 154.144 88.6168 154.174 88.6222 154.205C88.6276 154.236 88.6324 154.267 88.6368 154.298C88.6411 154.33 88.6449 154.361 88.6482 154.392C88.6514 154.424 88.6542 154.455 88.6564 154.486C88.6585 154.518 88.6602 154.549 88.6613 154.58C88.6625 154.612 88.6631 154.643 88.6631 154.674C88.6632 154.706 88.6627 154.737 88.6616 154.768C88.6606 154.799 88.659 154.83 88.657 154.861C88.6548 154.892 88.6522 154.922 88.649 154.953C88.6458 154.983 88.6422 155.014 88.6379 155.044C88.6337 155.074 88.6289 155.104 88.6236 155.134C88.6184 155.163 88.6126 155.193 88.6062 155.222C88.5999 155.251 88.5931 155.28 88.5857 155.308C88.5784 155.337 88.5706 155.365 88.5622 155.393C88.4064 155.904 88.1293 156.171 87.7695 156.343C87.4903 156.4 87.2259 156.379 86.9502 156.217C86.6251 156.025 86.3387 155.658 86.1872 155.196C86.1778 155.167 86.1688 155.138 86.1604 155.108C86.152 155.079 86.1441 155.049 86.1367 155.019C86.1293 154.989 86.1224 154.958 86.116 154.928C86.1096 154.897 86.1038 154.867 86.0985 154.836C86.0932 154.805 86.0884 154.774 86.0841 154.743C86.0799 154.712 86.0762 154.681 86.073 154.65C86.0698 154.619 86.0672 154.588 86.0651 154.557C86.063 154.526 86.0614 154.494 86.0604 154.463C86.0594 154.432 86.0589 154.401 86.059 154.37C86.0591 154.339 86.0597 154.308 86.0609 154.277C86.062 154.246 86.0638 154.215 86.066 154.185C86.0683 154.154 86.0711 154.124 86.0744 154.094C86.0778 154.063 86.0817 154.033 86.0861 154.003C86.0905 153.973 86.0955 153.944 86.1009 153.914C86.1064 153.885 86.1124 153.856 86.1189 153.827C86.1255 153.798 86.1325 153.77 86.1401 153.742C86.2888 153.179 86.5798 152.898 86.9572 152.689Z" fill="#1AAEE0"/>
<path d="M87.0888 153.517C87.2639 153.488 87.4258 153.477 87.6007 153.583C87.8572 153.737 87.9741 154.042 88.0888 154.379C88.082 154.503 88.073 154.626 88.0558 154.747C88.0035 155.112 87.8641 155.298 87.6536 155.473C87.5287 155.503 87.3972 155.524 87.2678 155.483C87.243 155.475 87.2183 155.465 87.1939 155.454C87.1695 155.442 87.1455 155.429 87.1219 155.414C87.0982 155.399 87.0751 155.382 87.0524 155.364C87.0298 155.346 87.0078 155.326 86.9864 155.304C86.965 155.283 86.9443 155.26 86.9244 155.235C86.9045 155.211 86.8855 155.185 86.8673 155.158C86.8491 155.131 86.8319 155.103 86.8156 155.074C86.7993 155.044 86.784 155.014 86.7698 154.982C86.7572 154.954 86.7456 154.925 86.7349 154.896C86.7242 154.866 86.7145 154.836 86.7059 154.805C86.6972 154.774 86.6896 154.743 86.683 154.712C86.6764 154.68 86.6709 154.648 86.6664 154.616C86.662 154.584 86.6587 154.552 86.6565 154.52C86.6542 154.487 86.6531 154.455 86.6531 154.423C86.6531 154.391 86.6542 154.359 86.6564 154.327C86.6586 154.296 86.6619 154.264 86.6664 154.233C86.7175 153.871 86.8792 153.682 87.0888 153.517Z" fill="white"/>
<path d="M74.1965 175.695C75.0245 173.858 76.2394 172.221 77.7582 170.897C79.277 169.573 81.0638 168.592 82.9966 168.022C90.4467 165.779 104.596 161.089 108.778 168.022C114.502 177.563 105.733 215.027 105.733 215.027L80.6925 216.965C80.6925 216.965 66.8784 192.159 74.1965 175.695Z" fill="#68E1FD"/>
<path d="M105.692 215.057L102.393 258.103H97.1863L92.5376 224.659L81.0275 216.996L105.692 215.057Z" fill="#24285B"/>
<path d="M81.0275 216.996L73.8413 258.103H79.4238L91.482 223.959L81.0275 216.996Z" fill="#24285B"/>
<path d="M93.8266 173.757C93.489 172.7 93.4034 171.58 93.5766 170.484C93.7499 169.389 94.1772 168.349 94.8244 167.448C95.4715 166.547 96.3206 165.811 97.3035 165.297C98.2864 164.783 99.376 164.507 100.485 164.49C103.672 164.388 107.336 164.936 110.148 167.21C116.41 172.285 136.944 175.736 155.478 158.775L159.04 164.246C159.04 164.246 137.989 191.651 105.022 183.775C102.516 183.207 100.191 182.022 98.2588 180.327C96.3267 178.633 94.8485 176.482 93.9585 174.071C93.9078 173.97 93.8672 173.858 93.8266 173.757Z" fill="#68E1FD"/>
<path opacity="0.2" d="M93.8266 173.757C93.489 172.7 93.4034 171.58 93.5766 170.484C93.7499 169.389 94.1772 168.349 94.8244 167.448C95.4715 166.547 96.3206 165.811 97.3035 165.297C98.2864 164.783 99.376 164.507 100.485 164.49C103.672 164.388 107.336 164.936 110.148 167.21C116.41 172.285 136.944 175.736 155.478 158.775L159.04 164.246C159.04 164.246 137.989 191.651 105.022 183.775C102.516 183.207 100.191 182.022 98.2588 180.327C96.3267 178.633 94.8485 176.482 93.9585 174.071C93.9078 173.97 93.8672 173.858 93.8266 173.757Z" fill="white"/>
<path opacity="0.08" d="M85.1585 167.362C85.1585 167.362 73.4454 205.09 107.265 207.587L105.692 215.057L80.6519 216.996C74.894 206.852 71.9735 195.345 72.197 183.684C72.197 183.684 72.4101 174.061 79.1903 169.808C80.9836 168.579 83.0181 167.745 85.1585 167.362Z" fill="black"/>
<path d="M74.8563 258.103L71.3951 260.651C71.2637 260.745 71.1657 260.878 71.1151 261.031C71.0645 261.185 71.064 261.35 71.1137 261.504C71.1635 261.658 71.2608 261.792 71.3917 261.886C71.5226 261.981 71.6802 262.032 71.8417 262.031H77.6476C77.8486 262.028 78.0407 261.947 78.1829 261.805C78.3251 261.663 78.4062 261.471 78.4088 261.27V258.103H74.8563Z" fill="#68E1FD"/>
<path d="M102.251 258.103L105.509 260.651C105.636 260.75 105.729 260.886 105.775 261.04C105.821 261.195 105.817 261.359 105.765 261.512C105.712 261.664 105.613 261.796 105.482 261.889C105.351 261.982 105.193 262.032 105.032 262.031H100.901C100.316 262.028 99.7559 261.794 99.3431 261.379C98.9303 260.965 98.6986 260.403 98.6986 259.818V258.103H102.251Z" fill="#68E1FD"/>
<path d="M344.095 101.408H270.376V177.106H344.095V101.408Z" fill="#F2F2F2"/>
<path d="M329.114 120.083H283.692V122.804H329.114V120.083Z" fill="#A5A5A5"/>
<path d="M329.114 137.268H283.692V139.988H329.114V137.268Z" fill="#A5A5A5"/>
<path d="M329.114 154.452H283.692V157.172H329.114V154.452Z" fill="#A5A5A5"/>
<path d="M326.759 115.059H326.749C324.551 115.059 322.77 116.84 322.77 119.038V123.849C322.77 126.046 324.551 127.828 326.749 127.828H326.759C328.956 127.828 330.738 126.046 330.738 123.849V119.038C330.738 116.84 328.956 115.059 326.759 115.059Z" fill="#24285B"/>
<path d="M308.763 132.243H308.753C306.555 132.243 304.774 134.025 304.774 136.222V141.033C304.774 143.23 306.555 145.012 308.753 145.012H308.763C310.96 145.012 312.742 143.23 312.742 141.033V136.222C312.742 134.025 310.96 132.243 308.763 132.243Z" fill="#68E1FD"/>
<path d="M296.583 149.438H296.573C294.375 149.438 292.594 151.219 292.594 153.416V158.227C292.594 160.425 294.375 162.206 296.573 162.206H296.583C298.78 162.206 300.562 160.425 300.562 158.227V153.416C300.562 151.219 298.78 149.438 296.583 149.438Z" fill="#FFD200"/>
<path d="M249.03 181.207H165.831V200.167H249.03V181.207Z" fill="white"/>
<path d="M249.03 181.207H220.661V200.167H249.03V181.207Z" fill="#24285B"/>
<path d="M158.107 162.835C158.107 162.835 162.451 164.256 163.374 157.862L155.995 159.597L158.107 162.835Z" fill="#F4A28C"/>
<path opacity="0.08" d="M244.3 74.1853C244.3 74.1853 253.131 72.5004 256.176 60.3204C259.221 48.1404 252.735 38.4674 258.997 36.9754C265.26 35.4833 267.858 51.3681 267.858 51.3681C267.858 51.3681 268.102 63.7917 256.176 79.1588L244.3 74.1853Z" fill="black"/>
<path d="M263.057 34.0928C268.254 35.9401 276.374 39.6144 281.855 45.8364C283.41 47.6061 284.562 49.693 285.229 51.9523C285.897 54.2115 286.065 56.589 285.722 58.9197L283.266 75.6266H277.43L277.694 60.4016C277.707 58.7925 277.202 57.2217 276.254 55.9219C275.305 54.6221 273.963 53.6624 272.426 53.185C266.123 51.2565 256.45 46.9732 256.44 38.8532C256.429 38.0531 256.611 37.2623 256.972 36.5478C257.332 35.8333 257.859 35.2163 258.508 34.749C259.158 34.2818 259.911 33.9782 260.703 33.8639C261.495 33.7497 262.302 33.8282 263.057 34.0928Z" fill="#68E1FD"/>
<path opacity="0.2" d="M263.057 34.0928C268.254 35.9401 276.374 39.6144 281.855 45.8364C283.41 47.6061 284.562 49.693 285.229 51.9523C285.897 54.2115 286.065 56.589 285.722 58.9197L283.266 75.6266H277.43L277.694 60.4016C277.707 58.7925 277.202 57.2217 276.254 55.9219C275.305 54.6221 273.963 53.6624 272.426 53.185C266.123 51.2565 256.45 46.9732 256.44 38.8532C256.429 38.0531 256.611 37.2623 256.972 36.5478C257.332 35.8333 257.859 35.2163 258.508 34.749C259.158 34.2818 259.911 33.9782 260.703 33.8639C261.495 33.7497 262.302 33.8282 263.057 34.0928Z" fill="white"/>
<path opacity="0.08" d="M248.675 167.362H210.785V171.97H248.675V167.362Z" fill="black"/>
</svg>
